<?xml version="1.0" encoding="UTF-8" standalone="no"?>
<!-- Created with Inkscape (http://www.inkscape.org/) -->

<svg
   width="131.9422mm"
   height="107.10762mm"
   viewBox="0 0 131.9422 107.10762"
   version="1.1"
   id="svg2114"
   sodipodi:docname="blobcat_wrapped_in_blanket2.svg"
   inkscape:version="1.2.2 (b0a8486541, 2022-12-01)"
   xmlns:inkscape="http://www.inkscape.org/namespaces/inkscape"
   xmlns:sodipodi="http://sodipodi.sourceforge.net/DTD/sodipodi-0.dtd"
   xmlns="http://www.w3.org/2000/svg"
   xmlns:svg="http://www.w3.org/2000/svg"
   xmlns:rdf="http://www.w3.org/1999/02/22-rdf-syntax-ns#"
   xmlns:cc="http://creativecommons.org/ns#">
  <sodipodi:namedview
     id="namedview2116"
     pagecolor="#ffffff"
     bordercolor="#000000"
     borderopacity="0.25"
     inkscape:showpageshadow="2"
     inkscape:pageopacity="0.0"
     inkscape:pagecheckerboard="true"
     inkscape:deskcolor="#d1d1d1"
     inkscape:document-units="mm"
     showgrid="false"
     inkscape:zoom="2.587745"
     inkscape:cx="157.2798"
     inkscape:cy="217.75716"
     inkscape:window-width="2560"
     inkscape:window-height="1391"
     inkscape:window-x="0"
     inkscape:window-y="0"
     inkscape:window-maximized="1"
     inkscape:current-layer="layer1" />
  <defs
     id="defs2111" />
  <g
     inkscape:label="Layer 1"
     inkscape:groupmode="layer"
     id="layer1"
     transform="translate(-12.368134,-75.875559)"
     style="display:inline">
    <path
       style="display:inline;fill:#ffffff;fill-opacity:1;image-rendering:auto"
       d="m 216,403.92683 c -18.42498,-0.90848 -47.89542,-4.31246 -57,-6.58379 C 143.61099,393.50393 74.747369,379.6042 67.829659,365.90754 132.43952,315.9755 303.9448,407.01047 104.74572,382.53165 91.312221,380.40011 59.639274,344.91627 47.309424,347.78832 54.151376,307.57059 59.292606,206.70024 59.960976,247.49033 45.024543,289.83284 54.703674,145.75512 46.064927,130.48117 L 56.819334,109.48134 C 67.096872,89.412683 72.514094,85.023288 81.757646,74 89.458615,64.816301 92.365161,61.947826 104.33693,51.71646 c 5.09973,-4.358354 5.82951,-5.513864 8.21025,-13 C 113.98433,34.197407 115.41226,27.125 115.72037,23 116.3804,14.163153 118.86623,8.2026512 123.6394,4.0117482 128.20791,5.4378615e-4 131.5559,0.08640763 149.84516,4.683831 167.92088,9.2275787 180.51725,9.6171329 199.5,6.2194528 220.10932,2.5306367 233.49174,1.7001874 263,2.2789436 c 21.92318,0.4299873 29.76109,0.9621925 38.64974,2.6243722 20.18742,3.7750542 45.17597,11.9441192 61.1603,19.9940532 11.01718,5.54841 14.56535,6.28818 34.18996,7.128382 20.35345,0.871407 27.64521,2.409362 31.58655,6.662136 3.92863,4.23906 6.45696,12.752668 7.50332,25.265813 2.21969,26.544487 1.48531,24.261992 15.93702,49.53332 17.94069,31.37243 29.8349,67.25161 38.95642,117.51298 3.40924,18.78563 7.14634,55.25327 7.17949,70.05942 0.0276,12.32128 -0.96233,14.47645 -11.92785,25.96844 -32.7821,34.35602 -75.61299,55.18791 -141.74288,68.94023 -38.7053,8.04913 -77.68806,10.4637 -128.49207,7.95874 z M 72.94428,371.41903 C 71.049926,369.9995 66.455069,367.2901 62.733488,365.39814 45.672233,356.72465 31.384742,346.48783 17.78844,333.19556 l -9.7115599,-9.4944 0.4930184,-18.10058 c 1.2440872,-45.67517 8.5581145,-92.59562 20.6279905,-132.33129 3.028691,-9.97086 6.053813,-20.34878 8.565408,-19.71841 23.194286,106.50744 118.024293,127.79445 47.555177,217.48248 -3.21501,3.82082 -7.607328,3.95772 -12.374194,0.38567 z m -38.081486,-214.5615 4.685341,-13.17794 c 1.849769,-5.20264 5.981968,-13.61452 6.799666,-13.41424 32.619533,15.52756 21.174319,42.54855 -11.485007,26.59218 z"
       id="path10944"
       inkscape:label="blanket_rim"
       sodipodi:nodetypes="sscccccssssssssssssssssssssssscssccscscc"
       transform="matrix(0.26458333,0,0,0.26458333,12.315389,75.581875)" />
    <path
       style="display:inline;image-rendering:auto;fill:#f9c019;fill-opacity:1"
       d="M 136.81484,280.40685 C 134.43527,266.41936 130.85428,259.87523 118.56443,247.05489 101.78699,229.55324 96.883399,222.28351 91.021558,206.22168 88.303009,198.77268 86.077357,188 87.25693,188 c 48.23742,19.49288 -0.277905,9.395 -0.861763,-0.43601 -0.173191,-2.74853 -0.250419,-21.52204 0.08513,-23.31063 l 3.537813,-15.80529 3.67621,17.55261 c 0.933853,4.45882 23.57198,4.4765 7.26772,4.99932 -11.563072,0.37078 -18.018706,-29.57534 -3.552231,-15.64066 3.743981,-3.16815 9.068671,9.26098 5.906771,6.21215 C 92.306581,169.6582 97.925,157.02597 96,155.96823 87.650537,151.38036 87.68123,151.68613 94.246473,138.5 100.46926,126.00168 106.22462,118.01785 115.20902,109.42076 131.64583,93.692541 148.88628,84.954571 173.5,79.877176 c 14.85651,-3.064646 35.5182,-2.297079 51.72704,1.921623 20.64489,5.373277 37.31087,14.59063 50.85343,28.125201 12.82729,12.81971 21.93962,28.41074 26.34512,45.076 6.22178,24.51528 -3.69086,54.36823 -11.1196,66.80572 l -5.09302,8.16397 c -7.91459,11.09082 -27.27972,15.72829 -12.7021,-7.25343 15.41739,-16.87178 -9.56075,10.30353 -0.71748,11.06881 l 21.23586,-18.0425 -12.14321,20.54218 c -1.84645,3.12356 -13.38213,13.84188 -21.79672,19.43744 -7.32468,4.87081 -14.83613,8.5381 -26.12468,12.75478 -10.41105,3.8889 -13.75522,4.55794 -37.96464,7.59523 -27.53022,3.45392 -39.95501,5.8107 -45.45788,8.62262 C 142.79529,288.65341 139.90173,290 139.14238,290 c -0.38255,0 -1.42994,-4.31692 -2.32754,-9.59315 z"
       id="path471"
       inkscape:label="face"
       sodipodi:nodetypes="sssccscsscccsssssccccccsssssss"
       transform="matrix(0.26458333,0,0,0.26458333,12.315389,75.581875)" />
    <path
       style="display:inline;image-rendering:auto;fill:#6a647a;fill-opacity:1"
       d="m 216,403.92683 c -18.42498,-0.90848 -47.89542,-4.31246 -57,-6.58379 -15.38901,-3.83911 -24.58229,-11.06615 -31.5,-24.76281 -3.74166,-7.40827 -3.99984,-8.47394 -3.99746,-16.5 0.002,-7.8182 0.32911,-9.26456 3.6795,-16.28556 7.36019,-15.42383 30.10609,-33.39357 48.56852,-38.37015 3.16219,-0.85237 11.82444,-1.95251 19.24944,-2.44475 31.51281,-2.08913 61.74029,-11.91931 82.0881,-26.69559 C 285.7037,266.02766 299,254.78159 299,253.75099 c 0,-1.04028 7.61865,-8.07806 11.5,-14.50851 l 5.28054,-8.74857 c 82.86009,-5.22946 79.58821,11.99963 0.0914,1.60983 -1.05055,-1.05055 6.17231,-22.7992 8.06211,-24.50945 48.94578,-15.74172 75.25614,-3.01153 -1.03879,2.00659 l 4.19066,-18.82469 c 1.49382,-6.71033 1.03656,-22.38522 -0.56762,-33.0277 C 318.84927,106.87037 274.21128,65.325702 217.55469,56.335811 204.12119,54.204272 177.20028,54.978059 164.87043,57.850112 138.24324,64.052518 116.59847,75.599386 98.140086,93.448855 87.773274,103.47368 78.303846,116.89419 72.527863,129.36942 l -7.576847,16.36481 c -8.725762,-6.33458 -12.191725,-8.1268 -18.886089,-15.25306 L 56.819334,109.48134 C 67.096872,89.412683 72.514094,85.023288 81.757646,74 89.458615,64.816301 92.365161,61.947826 104.33693,51.71646 c 5.09973,-4.358354 5.82951,-5.513864 8.21025,-13 C 113.98433,34.197407 115.41226,27.125 115.72037,23 116.3804,14.163153 118.86623,8.2026512 123.6394,4.0117482 128.20791,5.4378615e-4 131.5559,0.08640763 149.84516,4.683831 167.92088,9.2275787 180.51725,9.6171329 199.5,6.2194528 220.10932,2.5306367 233.49174,1.7001874 263,2.2789436 c 21.92318,0.4299873 29.76109,0.9621925 38.64974,2.6243722 20.18742,3.7750542 45.17597,11.9441192 61.1603,19.9940532 11.01718,5.54841 14.56535,6.28818 34.18996,7.128382 20.35345,0.871407 27.64521,2.409362 31.58655,6.662136 3.92863,4.23906 6.45696,12.752668 7.50332,25.265813 2.21969,26.544487 1.48531,24.261992 15.93702,49.53332 17.94069,31.37243 29.8349,67.25161 38.95642,117.51298 3.40924,18.78563 7.14634,55.25327 7.17949,70.05942 0.0276,12.32128 -0.96233,14.47645 -11.92785,25.96844 -32.7821,34.35602 -75.61299,55.18791 -141.74288,68.94023 -38.7053,8.04913 -77.68806,10.4637 -128.49207,7.95874 z M 72.94428,371.41903 C 71.049926,369.9995 66.455069,367.2901 62.733488,365.39814 45.672233,356.72465 31.384742,346.48783 17.78844,333.19556 l -9.7115599,-9.4944 0.4930184,-18.10058 c 1.2440872,-45.67517 8.5581145,-92.59562 20.6279905,-132.33129 3.028691,-9.97086 6.053813,-20.34878 8.565408,-19.71841 26.098904,10.22717 24.338265,-5.81907 25.24774,33.48985 0.621958,5.83146 2.186247,14.66838 3.585286,19.56192 1.399038,4.89354 2.733531,10.17883 2.96554,11.74508 0.232009,1.56624 1.888003,5.13781 3.679986,7.9368 1.791983,2.799 5.512839,8.58246 8.268568,12.85215 12.547832,17.76162 32.930553,32.30225 35.481303,51.29804 1.43802,11.34197 -0.15058,16.95853 -8.4791,29.9781 -1.86147,2.90994 -4.83169,8.16998 -6.60049,11.68899 -1.76881,3.519 -4.589169,9.09819 -6.267475,12.39819 -1.678305,3.3 -3.160893,7.05051 -3.29464,8.33447 -0.486213,4.66763 -4.595945,15.30435 -7.031541,18.19889 -3.21501,3.82082 -7.607328,3.95772 -12.374194,0.38567 z m -38.081486,-214.5615 4.685341,-13.17794 c 1.849769,-5.20264 5.981968,-13.61452 6.799666,-13.41424 2.088529,0.51153 17.136677,7.19004 19.411647,9.13503 2.783598,0.96251 -2.757558,19.97698 -4.346877,30.46427 -8.762482,-4.27965 -17.7873,-8.72746 -26.549777,-13.00712 z"
       id="path467"
       inkscape:label="blanket"
       sodipodi:nodetypes="ssscssssssccccssssssccssssssssssssssssssssssscssccsssccsssssscssccc"
       transform="matrix(0.26458333,0,0,0.26458333,12.315389,75.581875)" />
    <path
       style="display:inline;image-rendering:auto;fill:#333333;fill-opacity:1"
       d="m 105.36468,385.33037 c -5.26986,-12.61254 -6.963726,-32.37076 -3.8164,-44.51667 4.52904,-17.47816 16.09422,-33.21777 34.69455,-47.21751 6.93425,-5.21913 9.80717,-6.65127 9.72163,-4.84619 -0.0196,0.4125 -3.40482,3.18779 -7.52282,6.16732 -15.68026,11.34525 -28.62497,27.61002 -33.49251,42.08268 -4.31482,12.82926 -3.65216,30.6249 1.67079,44.86906 2.74651,7.34963 2.70575,7.13094 1.32905,7.13094 -0.57806,0 -1.74099,-1.65133 -2.58429,-3.66963 z"
       id="path461"
       inkscape:label="sleeve_line"
       sodipodi:nodetypes="sssssssss"
       transform="matrix(0.26458333,0,0,0.26458333,12.315389,75.581875)" />
    <path
       style="display:inline;fill:#2b1100;fill-opacity:1;stroke-width:0.264583;image-rendering:auto"
       d="m 108.7363,150.1029 c -5.79863,-0.15897 -6.24891,-0.20656 -6.68073,-0.70608 -0.55639,-0.64364 -0.59593,-1.36022 -0.0979,-1.77359 0.40329,-0.3347 20.34275,-0.42811 27.54838,-0.12905 4.13037,0.17142 5.15938,0.44642 5.15938,1.37883 0,1.06334 -0.33089,1.10515 -8.74724,1.10515 -5.96361,0.35856 -11.92924,0.28753 -17.18193,0.12474 z m -2.46944,-6.38655 c -0.30096,-0.30095 -0.19384,-1.59734 0.15434,-1.86786 0.1819,-0.14134 1.50382,-0.3964 2.9376,-0.56681 1.43378,-0.17041 2.82494,-0.42654 3.09146,-0.56918 0.26652,-0.14264 1.21937,-0.25934 2.11744,-0.25934 0.89806,0 2.30488,-0.16259 3.12625,-0.36131 0.82136,-0.19872 2.44589,-0.37842 3.61006,-0.39934 1.16417,-0.0209 3.57777,-0.27505 5.36356,-0.56473 1.7858,-0.28969 3.83054,-0.52671 4.54388,-0.52671 0.71334,0 1.89943,-0.13906 2.63576,-0.30902 1.77191,-0.40901 2.74468,-0.0266 2.62156,1.03045 -0.0642,0.55096 -0.26727,0.75861 -0.87726,0.89694 -0.43656,0.099 -1.36101,0.31115 -2.05432,0.47144 -0.69331,0.1603 -1.96276,0.29144 -2.82099,0.29144 -0.85824,0 -2.49364,0.18474 -3.63423,0.41054 -1.14058,0.22579 -3.41738,0.50874 -5.05955,0.62877 -2.25304,0.16468 -3.11167,0.33219 -3.49884,0.68258 -0.42888,0.38812 -1.13306,0.47721 -4.29029,0.54275 -2.07746,0.0431 -4.19313,0.20608 -4.70149,0.3621 -1.02856,0.31568 -2.99203,0.38021 -3.26494,0.10729 z m -48.027932,-4.73597 c -0.757764,-0.61344 -2.032514,-0.76588 -2.727423,-1.11076 -0.04881,-0.11307 -1.219838,-0.7153 -2.602286,-1.33828 -1.382447,-0.62299 -2.811197,-1.3411 -3.175,-1.59582 -0.363802,-0.25471 -1.316302,-0.73954 -2.116666,-1.07739 -0.800365,-0.33786 -2.313034,-1.0836 -3.361488,-1.6572 -3.892447,-1.24806 -7.434232,-3.79758 -10.816566,-5.25021 -0.552253,-0.20996 -0.664833,-0.38855 -0.539559,-0.85592 0.08707,-0.32483 0.15993,-0.91802 0.161917,-1.3182 0.002,-0.40019 0.123706,-0.72761 0.270487,-0.72761 0.146781,0 0.633448,0.32742 1.081483,0.72761 0.959079,0.85664 -0.335418,0.42823 -0.335418,-0.003 0,-0.18081 2.343266,0.67244 2.625081,0.91538 0.254662,0.21953 0.820209,0.58225 1.256771,0.80603 0.436563,0.22378 1.482694,0.77554 2.324736,1.22614 0.842043,0.4506 1.615949,0.79561 1.719792,0.76668 0.103843,-0.0289 1.736618,0.69612 3.628389,1.61121 1.891771,0.91509 4.153958,1.98125 5.027083,2.36924 0.873125,0.388 2.420938,1.14975 3.439583,1.6928 1.018646,0.54305 2.62599,1.35458 3.571875,1.8034 5.160415,2.44864 5.48132,2.71146 4.503981,3.6888 -0.764153,0.76415 -1.437674,0.64902 -3.936772,-0.67297 z m -0.594748,-6.95333 c -0.931675,-0.7053 -2.059431,-1.47135 -2.506124,-1.70235 -0.446693,-0.23099 -0.966904,-0.60643 -1.156024,-0.8343 -1.093221,-0.596 -2.210366,-1.1905 -3.054501,-1.87696 -0.981415,-0.80445 -2.901554,-2.06488 -4.266976,-2.80096 -1.365422,-0.73608 -2.482585,-1.44609 -2.482585,-1.57781 0,-0.13172 -0.625079,-0.60305 -1.389063,-1.0474 -2.020684,-1.17527 -2.21958,-1.2982 -4.777512,-2.95286 -2.794768,-2.00879 -3.695448,-1.81729 -4.225709,-3.3875 -0.197529,-0.64514 0.282628,-1.5875 0.808867,-1.5875 0.268292,0 0.718613,0.21023 1.000714,0.46718 4.575245,3.03195 9.141319,6.11851 13.596352,8.78477 0.938497,0.57726 1.754842,1.00108 1.814102,0.94182 0.05926,-0.0592 0.338341,0.10709 0.620182,0.36967 0.281841,0.26257 1.13237,0.81163 1.890064,1.22012 0.757695,0.4085 1.913409,1.21074 2.568252,1.78277 0.654844,0.57203 1.607344,1.25949 2.116667,1.5277 0.509323,0.26821 1.380453,0.92581 1.935845,1.46134 l 1.009801,0.97369 -0.728573,0.76047 c -0.400716,0.41826 -0.807606,0.76047 -0.9042,0.76047 -0.09659,0 -0.937904,-0.57706 -1.869579,-1.28236 z"
       id="path473"
       inkscape:label="whiskers"
       sodipodi:nodetypes="cssssccssssssssssssssssssssccsssccssssssssssssssscssccsssccsccssssscssss"
       transform="translate(-20.485496,-12.483781)" />
    <path
       id="path3237"
       style="display:inline;fill:#333333;fill-opacity:1;stroke-width:0.264583;image-rendering:auto"
       inkscape:label="eyes_and_mouth"
       d="m 63.389235,124.9044 c -0.236913,-0.0124 -0.478345,0.13976 -0.731736,0.45269 -0.639919,0.79025 -0.617549,1.96073 0.06408,3.36878 0.645184,1.33278 1.634437,2.11371 3.058726,2.41433 1.099852,0.23213 2.542442,0.0579 3.417364,-0.4129 0.659841,-0.35509 2.761588,-2.59767 2.761588,-2.94659 0,-1.3903 -1.115428,-1.40059 -2.942973,-0.0274 -2.209919,1.6605 -3.277071,1.32525 -4.440555,-1.39475 -0.408665,-0.95536 -0.791634,-1.43353 -1.186493,-1.45417 z m 40.972175,4.72374 c -0.54889,-0.0599 -1.06081,0.43005 -1.63297,1.54771 -0.92253,1.80209 -1.33396,2.13372 -2.64945,2.13372 -1.572883,0 -2.057173,-0.31039 -3.149173,-2.01745 -0.72431,-1.1323 -1.05822,-1.43596 -1.5074,-1.37201 -0.86322,0.12291 -0.92867,2.07017 -0.12247,3.63854 0.74923,1.45757 1.71312,2.18056 3.17862,2.38487 2.870543,0.40019 5.455733,-0.82931 6.271453,-2.98225 0.44798,-1.18235 0.36051,-3.07797 -0.1509,-3.27422 -0.0802,-0.0308 -0.15929,-0.0504 -0.23771,-0.0589 z m -34.18861,7.12102 c -1.747578,0 -1.489654,3.16443 0.61857,7.58299 1.359635,2.84965 2.144072,3.6229 3.274734,3.22875 0.417222,-0.14545 1.792515,-1.20892 3.056144,-2.36316 1.263629,-1.15426 2.453279,-2.09858 2.643769,-2.09858 0.19049,0 1.01252,0.99076 1.82676,2.20193 0.81424,1.21118 1.90593,2.69947 2.42621,3.30729 0.52027,0.60783 1.1048,1.10536 1.29914,1.10536 0.52007,0 4.29448,-2.86564 6.43837,-4.88808 1.87411,-1.76794 2.38431,-2.73045 2.03295,-3.83749 -0.38573,-1.2153 -1.32191,-0.68405 -5.93711,3.36776 -1.03596,0.90949 -1.98577,1.65364 -2.11046,1.65364 -0.12469,0 -0.73343,-0.80368 -1.35289,-1.78594 -2.30236,-3.65078 -3.53549,-5.41364 -3.87883,-5.54539 -0.56476,-0.21672 -1.63851,0.62564 -4.205948,3.29902 l -2.401403,2.50062 -0.972034,-2.53886 c -0.534443,-1.3963 -0.971516,-2.82004 -0.971516,-3.16415 0,-0.762 -1.114467,-2.02571 -1.786456,-2.02571 z"
       sodipodi:nodetypes="ssssssssscsssssssscsssssscssssscscccss"
       transform="translate(-20.485496,-12.483781)" />
  </g>
  <metadata
     id="metadata10691">
    <rdf:RDF>
      <cc:Work
         rdf:about="">
        <cc:license
           rdf:resource="http://creativecommons.org/publicdomain/zero/1.0/" />
      </cc:Work>
      <cc:License
         rdf:about="http://creativecommons.org/publicdomain/zero/1.0/">
        <cc:permits
           rdf:resource="http://creativecommons.org/ns#Reproduction" />
        <cc:permits
           rdf:resource="http://creativecommons.org/ns#Distribution" />
        <cc:permits
           rdf:resource="http://creativecommons.org/ns#DerivativeWorks" />
      </cc:License>
    </rdf:RDF>
  </metadata>
</svg>
