<?xml version="1.0" encoding="UTF-8" standalone="no"?>
<!-- Created with Inkscape (http://www.inkscape.org/) -->

<svg
   width="800"
   height="800"
   viewBox="0 0 800 800"
   version="1.1"
   id="svg5"
   xmlns:xlink="http://www.w3.org/1999/xlink"
   xmlns="http://www.w3.org/2000/svg"
   xmlns:svg="http://www.w3.org/2000/svg"
   xmlns:rdf="http://www.w3.org/1999/02/22-rdf-syntax-ns#"
   xmlns:cc="http://creativecommons.org/ns#"
   xmlns:dc="http://purl.org/dc/elements/1.1/">
  <title
     id="title1375">Blobcat drinks directly from teapot</title>
  <defs
     id="defs2">
    <linearGradient
       id="face"
       gradientTransform="matrix(0.30608992,-1.0449013e-8,0,0.65476465,178.46518,287.84523)">
      <stop
         style="stop-color:#2b2b00;stop-opacity:1;"
         offset="0"
         id="stop999" />
    </linearGradient>
    <linearGradient
       id="blob_body"
       gradientTransform="matrix(0.22421862,0,0,0.47790186,125.85533,423.809)">
      <stop
         style="stop-color:#fcc314;stop-opacity:1;"
         offset="0"
         id="stop5823" />
    </linearGradient>
    <linearGradient
       xlink:href="#face"
       id="linearGradient3200"
       x1="539.43036"
       y1="437.90143"
       x2="660.23444"
       y2="437.90143"
       gradientUnits="userSpaceOnUse"
       gradientTransform="matrix(1.0455177,0,0,1.0676148,14.762898,45.330691)" />
    <linearGradient
       xlink:href="#face"
       id="linearGradient5554"
       gradientUnits="userSpaceOnUse"
       x1="539.43036"
       y1="437.90143"
       x2="660.23444"
       y2="437.90143"
       gradientTransform="matrix(0.97471167,0.41127683,-0.39920703,1.0041815,214.65375,-96.346662)" />
    <linearGradient
       xlink:href="#face"
       id="linearGradient5558"
       gradientUnits="userSpaceOnUse"
       gradientTransform="matrix(-0.95879011,0.26982027,-0.25400493,-1.0184881,876.02752,749.41197)"
       x1="539.43036"
       y1="437.90143"
       x2="660.23444"
       y2="437.90143" />
    <linearGradient
       xlink:href="#face"
       id="linearGradient5562"
       gradientUnits="userSpaceOnUse"
       gradientTransform="matrix(-0.82062932,0.62276988,-0.57190387,-0.87794401,921.03493,550.62676)"
       x1="539.43036"
       y1="437.90143"
       x2="660.23444"
       y2="437.90143" />
    <linearGradient
       xlink:href="#blob_body"
       id="linearGradient14063"
       x1="89.261482"
       y1="625.01587"
       x2="300.12128"
       y2="625.01587"
       gradientUnits="userSpaceOnUse"
       gradientTransform="matrix(-0.32368256,0.82215935,1.0851466,0.69915514,-401.51137,87.7622)" />
    <linearGradient
       xlink:href="#tea"
       id="linearGradient11337"
       x1="419.60144"
       y1="541.05774"
       x2="442.70374"
       y2="541.05774"
       gradientUnits="userSpaceOnUse"
       gradientTransform="matrix(1.765412,0,0,1.765412,-391.67005,-506.96532)" />
    <linearGradient
       id="tea"
       gradientTransform="translate(0,-115.00046)">
      <stop
         style="stop-color:#503200;stop-opacity:1;"
         offset="0"
         id="stop10824" />
    </linearGradient>
    <linearGradient
       xlink:href="#mouth"
       id="linearGradient2536"
       x1="318.32098"
       y1="545.00934"
       x2="481.67902"
       y2="545.00934"
       gradientUnits="userSpaceOnUse"
       gradientTransform="matrix(1.2661816,0.22326196,-0.17107562,0.97021803,6.2229597,-164.1955)" />
    <linearGradient
       id="mouth">
      <stop
         style="stop-color:#ed6c30;stop-opacity:1;"
         offset="0"
         id="stop2482" />
    </linearGradient>
    <linearGradient
       xlink:href="#face"
       id="linearGradient332"
       gradientTransform="matrix(-0.28328371,0.71954562,1.2398984,0.79886098,-401.51137,87.7622)"
       x1="-5.7130455"
       y1="416.80921"
       x2="251.374"
       y2="416.80921"
       gradientUnits="userSpaceOnUse" />
    <linearGradient
       xlink:href="#face"
       id="linearGradient502"
       gradientTransform="scale(0.90061778,1.1103489)"
       x1="331.18529"
       y1="86.064669"
       x2="433.48107"
       y2="86.064669"
       gradientUnits="userSpaceOnUse" />
    <linearGradient
       xlink:href="#face"
       id="linearGradient504"
       gradientTransform="scale(0.89920277,1.1120962)"
       x1="601.58517"
       y1="106.82399"
       x2="706.77622"
       y2="106.82399"
       gradientUnits="userSpaceOnUse" />
    <linearGradient
       xlink:href="#blob_body"
       id="linearGradient506"
       gradientTransform="matrix(1.0263586,0.18097469,-0.16661827,0.94493914,118.95369,-121.36952)"
       x1="86.356469"
       y1="135.48493"
       x2="761.8053"
       y2="135.48493"
       gradientUnits="userSpaceOnUse" />
  </defs>
  <path
     style="display:inline;fill:url(#linearGradient506);fill-opacity:1;stroke:none;stroke-width:0.879001px;stroke-linecap:butt;stroke-linejoin:miter;stroke-opacity:1"
     d="M 780.15539,603.79677 C 804.69498,715.82834 649.32273,763.16906 419.69594,720.23506 -126.64483,654.10379 198.7552,285.41902 206.86834,261.76425 234.52156,181.13809 229.29676,71.765443 268.92149,43.610206 307.65013,16.091669 377.5309,140.73218 377.5309,140.73218 c 138.80785,-45.943017 280.9651,3.84434 346.79753,58.51658 9.3977,4.31516 109.46434,-55.08148 138.01453,-21.6818 27.6225,32.31441 -51.21637,132.56147 -43.01944,174.1733 25.95314,131.75148 -50.28772,201.29182 -39.16813,252.05651 z"
     id="path2047" />
  <g
     id="layer1"
     style="display:inline"
     transform="rotate(10,303.59619,823.50198)">
    <ellipse
       style="display:inline;fill:url(#linearGradient504);fill-opacity:1;stroke:none;stroke-width:1.21563;stroke-linecap:round;stroke-linejoin:round;stroke-opacity:1"
       id="ellipse1396"
       cx="588.24109"
       cy="177.28984"
       rx="47.294041"
       ry="58.491283"
       transform="matrix(0.96362231,0.26726773,-0.26103537,0.96532924,0,0)" />
    <ellipse
       style="display:inline;fill:url(#linearGradient502);fill-opacity:1;stroke:none;stroke-width:1.18217;stroke-linecap:round;stroke-linejoin:round;stroke-opacity:1"
       id="path1292"
       cx="344.33606"
       cy="152.35382"
       rx="46.064701"
       ry="56.792007"
       transform="matrix(0.89475589,0.4465556,-0.44378819,0.89613171,0,0)" />
  </g>
  <g
     id="layer3"
     transform="rotate(10,753.10682,619.13869)">
    <path
       style="fill:url(#linearGradient5554);fill-opacity:1;stroke:none;stroke-width:1.0691px;stroke-linecap:butt;stroke-linejoin:miter;stroke-opacity:1"
       d="m 677.65382,629.32529 c -3.34663,2.69209 -119.89224,-59.77382 -107.72766,-74.37632 12.16457,-14.6025 111.07431,71.68425 107.72766,74.37632 z"
       id="path2624" />
    <path
       style="fill:url(#linearGradient3200);fill-opacity:1;stroke:none;stroke-width:1.05651px;stroke-linecap:butt;stroke-linejoin:miter;stroke-opacity:1"
       d="m 705.04965,528.15074 c -2.09104,3.73665 -131.95589,-8.36304 -126.11437,-26.33101 5.84151,-17.96797 128.2054,22.59436 126.11437,26.33101 z"
       id="path5472" />
    <path
       style="fill:url(#linearGradient5562);fill-opacity:1;stroke:none;stroke-width:1.03761px;stroke-linecap:butt;stroke-linejoin:miter;stroke-opacity:1"
       d="m 120.58842,564.75788 c -0.36042,-4.31834 108.05242,-71.72315 113.09255,-53.46783 5.04012,18.25537 -112.73216,57.78618 -113.09255,53.46783 z"
       id="path5560" />
    <path
       style="fill:url(#linearGradient5558);fill-opacity:1;stroke:none;stroke-width:1.02228px;stroke-linecap:butt;stroke-linejoin:miter;stroke-opacity:1"
       d="m 128.12968,466.95372 c 1.02854,-4.10435 122.9996,-26.07608 121.91756,-7.42739 -1.08206,18.64871 -122.94614,11.53173 -121.91756,7.42739 z"
       id="path5556" />
  </g>
  <metadata
     id="metadata1373">
    <rdf:RDF>
      <cc:Work
         rdf:about="">
        <dc:title>Blobcat drinks directly from teapot</dc:title>
        <dc:date>2022-06-12</dc:date>
        <dc:creator>
          <cc:Agent>
            <dc:title>tastytea</dc:title>
          </cc:Agent>
        </dc:creator>
        <dc:source>https://schlomp.space/tastytea/blobcats/src/branch/main/svg/blobcat_teapot.svg</dc:source>
        <dc:subject>
          <rdf:Bag>
            <rdf:li>blobcat</rdf:li>
            <rdf:li>emoji</rdf:li>
            <rdf:li>teapot</rdf:li>
            <rdf:li>tea</rdf:li>
          </rdf:Bag>
        </dc:subject>
        <cc:license
           rdf:resource="http://creativecommons.org/publicdomain/zero/1.0/" />
        <dc:contributor>
          <cc:Agent>
            <dc:title>Thanks to mg for fixing the arm.</dc:title>
          </cc:Agent>
        </dc:contributor>
      </cc:Work>
      <cc:License
         rdf:about="http://creativecommons.org/publicdomain/zero/1.0/">
        <cc:permits
           rdf:resource="http://creativecommons.org/ns#Reproduction" />
        <cc:permits
           rdf:resource="http://creativecommons.org/ns#Distribution" />
        <cc:permits
           rdf:resource="http://creativecommons.org/ns#DerivativeWorks" />
      </cc:License>
    </rdf:RDF>
  </metadata>
  <path
     style="fill:url(#linearGradient2536);fill-opacity:1;stroke:none;stroke-width:5.62731;stroke-linecap:butt;stroke-linejoin:miter;stroke-miterlimit:4;stroke-dasharray:none;stroke-opacity:1"
     d="m 329.97125,443.10091 c 10.99772,-62.37115 188.26312,-31.11448 177.2654,31.25668 -10.99772,62.37115 -188.26311,31.11448 -177.2654,-31.25668 z"
     id="path1199" />
  <path
     style="fill:url(#tea);stroke:none;stroke-width:1px;stroke-linecap:butt;stroke-linejoin:miter;stroke-opacity:1"
     d="m 331.59449,459.88784 c -2.09541,-10.17027 169.90905,-10.10545 174.90443,0.26679 0.34684,1.34605 0.69099,2.42003 0.83252,3.41734 1.44058,8.24055 -0.38392,16.23628 -5.24083,23.31966 -4.43995,7.48509 -22.14566,20.58111 -48.09573,21.11796 -2.47291,0.25089 -10.82862,0.78998 -19.31822,0.35633 -12.20211,-0.65444 -37.99274,-3.73705 -58.51887,-12.35541 -18.81869,-7.48291 -37.51907,-18.87213 -44.5633,-36.12267 z"
     id="path4603" />
  <g
     id="g8060"
     transform="matrix(20.709495,13.193404,-13.193404,20.709495,-55.068902,-342.16284)"
     style="display:inline">
    <path
       id="ellipse5367"
       d="M 25.86649,31.395826 C 26.012465,32.552578 22.654985,33.5 18.281553,33.5 c -4.469406,0 -8.212844,-0.985223 -8.270987,-2.187635 -0.057465,-1.188374 3.516977,-2.103902 7.897178,-2.058286 4.288064,0.04466 7.81441,0.997988 7.958746,2.141747 z"
       style="fill:#543499;fill-opacity:1" />
    <path
       fill="#3B88C3"
       d="m 11.74412,31.62038 c 0,0 3.406086,0.830154 6.481109,0.742604 2.50305,-0.07179 5.467611,-0.36035 6.276858,-0.777832 0,0 -0.862698,1.454945 -6.12882,1.44892 -5.405932,-0.0062 -6.629147,-1.413692 -6.629147,-1.413692 z"
       id="path5369"
       style="fill:#6d56c3;fill-opacity:1" />
    <path
       id="ellipse5371"
       d="m 24.336625,15.79191 c 0.142471,1.108467 -3.161822,1.882833 -7.463137,1.714528 -4.393789,-0.171923 -8.0686992,-1.254687 -8.1212833,-2.402255 -0.051948,-1.13368 3.4613033,-1.868434 7.7638623,-1.65753 4.213921,0.206559 7.679747,1.249706 7.820558,2.345257 z"
       style="fill:#543499;fill-opacity:1" />
    <path
       fill="#3B88C3"
       d="m 31.11927,17.316903 c 2.966926,-0.05437 2.041536,1.080372 1.174805,1.561888 -0.396321,0.21948 -1.05468,1.528836 -1.197449,3.826339 -0.114093,1.836062 0.09506,5.447639 -3.962835,5.125559 -2.82446,-0.224085 -0.963261,-6.847955 -0.963261,-6.847955 0,0 2.098227,2.996921 3.251721,-1.243286 0.495488,-1.822161 0.845127,-2.407256 1.697019,-2.422545 z M 6.0934645,27.910635 C 4.9425895,27.895301 3.8682158,27.509198 2.9367463,26.768593 0.88934622,25.140278 0.167,22.072671 0.167,20.259993 c 0,-2.370747 1.3219846,-4.65727 3.8260301,-4.551604 1.5073271,0.06361 2.1663782,0.592085 2.8657711,1.151462 0.3932943,0.315262 0.8001019,0.640875 1.4715405,0.987243 L 7.64349,19.666754 C 6.7944046,19.229491 6.26346,18.801572 5.8372,18.458568 5.2265985,17.96701 4.94838,17.743093 4.0337496,17.708834 2.5851387,17.654573 1.9332169,18.84105 1.9468435,20.315382 c 0.014079,1.523329 0.6592233,3.584685 2.0735086,4.702938 0.8585473,0.680722 1.8808498,0.884723 3.0230899,0.614824 l 0.5085616,2.104605 C 7.0581864,27.859264 6.5697663,27.91698 6.0934645,27.910635 Z"
       id="path5373"
       style="fill:#6d56c3;fill-opacity:1" />
    <path
       fill="#3B88C3"
       d="m 28.211813,24.65038 c 0.927079,6.50911 -5.55468,7.254479 -10.07227,7.236596 C 13.519511,31.868687 6.3647673,31.025048 6.1554361,24.159215 5.9597834,17.742021 10.275476,12.252668 16.438707,12.567957 22.4217,12.874026 27.342226,18.544927 28.211813,24.65038 Z"
       id="path5375"
       style="fill:#6d56c3;fill-opacity:1" />
    <path
       fill="#269"
       d="m 28.967621,26.842259 c -0.442876,0.03097 -1.085608,-0.761722 -1.085608,-0.761722 -0.502102,2.019555 -2.51268,4.582987 -10.075019,4.529394 -7.031859,-0.04983 -9.7806403,-2.350431 -11.2615106,-4.282119 0,0 0.379287,1.260495 -1.8102817,0.761017 -0.6743098,-0.15431 -2.0125225,-0.837959 -3.1040644,-1.786417 0.3585753,0.552811 0.789893,1.056497 1.305609,1.466181 0.9314695,0.740605 2.006881,1.126722 3.1567182,1.142042 0.3650554,0.0049 0.7381116,-0.03968 1.1145592,-0.109305 2.2222649,3.543739 7.2782073,4.15731 10.8764373,4.1708 3.623671,0.01359 8.564009,-0.557646 9.875528,-4.13766 3.195243,-0.216101 3.029897,-3.428445 3.1359,-5.128426 0.107789,-1.736148 0.509307,-2.905228 0.868824,-3.468284 -0.02399,0.01078 -0.0417,0.01283 -0.06627,0.0254 -1.458119,0.752946 -0.451589,7.403042 -2.930825,7.579103 z M 4.8587855,17.223759 C 4.2218598,16.85619 2.9216802,16.936772 2.2700002,17.976993 c -0.4357404,0.69553 -0.4572974,1.578044 -0.3189616,2.244811 0.014867,-1.43014 0.6649617,-2.566075 2.082711,-2.51297 0.9136459,0.03422 1.1928489,0.258176 1.8034504,0.749734 0.2911704,0.234618 0.6409393,0.509933 1.0986203,0.799809 l 0.1537931,-0.46712 c 0,0 -1.2099289,-0.979054 -2.2308279,-1.567498 z M 22.921313,14.624983 c 0.267863,0.151517 0.429227,0.306909 0.448661,0.463827 0.09083,0.733406 -2.843612,1.205075 -6.61735,1.044786 -3.844711,-0.163304 -7.0466197,-0.916009 -7.0850841,-1.67196 -0.00823,-0.161716 0.1366914,-0.307891 0.3965081,-0.439297 -0.8445984,0.285385 -1.3313562,0.656005 -1.3118433,1.081844 0.052599,1.147901 3.7278913,2.230347 8.1212833,2.402255 4.300934,0.16829 7.605649,-0.605739 7.463137,-1.714528 -0.05288,-0.411459 -0.570845,-0.813725 -1.415312,-1.166927 z"
       id="path5377"
       style="fill:#543499;fill-opacity:1" />
    <path
       id="ellipse5379"
       d="m 18.863286,11.830787 c 0.07278,0.716592 -0.991392,1.245331 -2.385991,1.175476 -1.404171,-0.07034 -2.593535,-0.719185 -2.647381,-1.443623 -0.05343,-0.718772 1.033379,-1.233606 2.418558,-1.155467 1.375869,0.07761 2.542597,0.712557 2.614814,1.423614 z"
       style="fill:#543499;fill-opacity:1" />
    <path
       id="ellipse5381"
       d="m 32.757791,17.811542 c 0.02805,0.163555 -0.35043,0.280625 -0.846523,0.261186 -0.497346,-0.01949 -0.923061,-0.168675 -0.949681,-0.332916 -0.02658,-0.163957 0.354855,-0.280271 0.850774,-0.260097 0.494673,0.02012 0.917434,0.168554 0.94543,0.331827 z"
       style="fill:#543499;fill-opacity:1" />
  </g>
  <path
     style="fill:url(#linearGradient11337);fill-opacity:1;stroke:none;stroke-width:1.76542px;stroke-linecap:butt;stroke-linejoin:miter;stroke-opacity:1"
     d="m 350.22673,439.29714 c 0.68578,9.80001 27.10087,22.88608 34.88777,21.81892 22.0253,-3.01845 67.1046,7.6615 30.8349,-14.74046 -25.1355,-15.52495 -66.60084,-19.62784 -65.72267,-7.07846 z"
     id="path11236" />
  <path
     style="display:inline;fill:url(#linearGradient14063);fill-opacity:1;stroke:url(#linearGradient332);stroke-width:10.5758;stroke-linecap:round;stroke-linejoin:round;stroke-miterlimit:4;stroke-dasharray:none;stroke-opacity:1"
     d="M 396.25762,704.83193 C 109.45038,638.57455 104.02462,635.07873 76.895983,617.59985 49.767249,600.12102 52.433602,576.07124 81.180701,589.43932 55.670456,567.84962 62.144098,551.40646 90.891235,564.77453 65.380952,543.18487 71.854602,526.74164 100.60167,540.10974 c 28.74705,13.3681 34.17281,16.86386 306.32126,68.52308"
     id="path13724" />
</svg>
