<?xml version="1.0" encoding="UTF-8" standalone="no"?>
<!-- Created with Inkscape (http://www.inkscape.org/) -->

<svg
   width="131.9422mm"
   height="107.10762mm"
   viewBox="0 0 131.9422 107.10762"
   version="1.1"
   id="svg2114"
   sodipodi:docname="blobcat_wrapped_in_blanket.svg"
   inkscape:version="1.2.2 (b0a8486541, 2022-12-01)"
   xmlns:inkscape="http://www.inkscape.org/namespaces/inkscape"
   xmlns:sodipodi="http://sodipodi.sourceforge.net/DTD/sodipodi-0.dtd"
   xmlns="http://www.w3.org/2000/svg"
   xmlns:svg="http://www.w3.org/2000/svg"
   xmlns:rdf="http://www.w3.org/1999/02/22-rdf-syntax-ns#"
   xmlns:cc="http://creativecommons.org/ns#">
  <sodipodi:namedview
     id="namedview2116"
     pagecolor="#ffffff"
     bordercolor="#000000"
     borderopacity="0.25"
     inkscape:showpageshadow="2"
     inkscape:pageopacity="0.0"
     inkscape:pagecheckerboard="true"
     inkscape:deskcolor="#d1d1d1"
     inkscape:document-units="mm"
     showgrid="false"
     inkscape:zoom="2.587745"
     inkscape:cx="157.2798"
     inkscape:cy="217.75716"
     inkscape:window-width="2560"
     inkscape:window-height="1391"
     inkscape:window-x="0"
     inkscape:window-y="0"
     inkscape:window-maximized="1"
     inkscape:current-layer="layer1" />
  <defs
     id="defs2111" />
  <g
     inkscape:label="Layer 1"
     inkscape:groupmode="layer"
     id="layer1"
     transform="translate(-12.368134,-75.875559)"
     style="display:inline">
    <g
       id="g9890"
       style="display:inline;fill:#ffffff"
       inkscape:label="blanket_rim"
       transform="translate(-20.485496,-12.483781)">
      <rect
         style="fill:#ffffff;fill-opacity:1;stroke-width:0.264583"
         id="rect9615"
         width="90.595642"
         height="45.811642"
         x="46.36594"
         y="127.75621" />
      <rect
         style="fill:#ffffff;fill-opacity:1;stroke-width:0.264583"
         id="rect9617"
         width="59.932495"
         height="32.596107"
         x="66.878098"
         y="97.906143" />
      <rect
         style="fill:#ffffff;fill-opacity:1;stroke-width:0.264583"
         id="rect9619"
         width="23.947268"
         height="10.931632"
         x="48.810211"
         y="120.64407" />
      <rect
         style="fill:#ffffff;fill-opacity:1;stroke-width:0.264583"
         id="rect9621"
         width="16.416437"
         height="6.5550737"
         x="51.651981"
         y="115.90361" />
      <rect
         style="fill:#ffffff;fill-opacity:1;stroke-width:0.264583"
         id="rect9623"
         width="17.168255"
         height="5.8788452"
         x="54.28112"
         y="112.82442" />
      <rect
         style="fill:#ffffff;fill-opacity:1;stroke-width:0.264583"
         id="rect9625"
         width="17.992958"
         height="6.368402"
         x="56.408588"
         y="109.14483" />
      <rect
         style="fill:#ffffff;fill-opacity:1;stroke-width:0.264583"
         id="rect9627"
         width="11.224637"
         height="5.5502005"
         x="60.713848"
         y="105.3047" />
      <rect
         style="fill:#ffffff;fill-opacity:1;stroke-width:0.264583"
         id="rect9629"
         width="21.947874"
         height="15.286896"
         x="53.065605"
         y="170.45993" />
      <path
         style="fill:#ffffff;fill-opacity:1;stroke-width:0.264583"
         id="path9801"
         d="m 55.225435,183.75977 c 0.491152,0.37412 0.943458,0.79552 1.415158,1.19317 0.396549,0.33429 0.386732,0.31988 0.789611,0.63055 0,0 3.317738,1.31747 3.317738,1.31747 v 0 c -0.136472,-0.0975 -0.275328,-0.19179 -0.409416,-0.29256 -0.306102,-0.23005 -0.492495,-0.38856 -0.775237,-0.64437 -0.122677,-0.11099 -0.451378,-0.42024 -0.578412,-0.55617 -0.04838,-0.0518 -0.09008,-0.10938 -0.135127,-0.16407 0,0 -3.624315,-1.48402 -3.624315,-1.48402 z" />
      <path
         style="fill:#ffffff;fill-opacity:1;stroke-width:0.264583"
         id="path9803"
         d="m 52.909177,184.76733 c 1.176391,0.67608 2.348468,1.35972 3.529174,2.02823 0.09971,0.0565 0.207049,0.0982 0.311132,0.14614 0.166892,0.0768 0.33524,0.15048 0.501779,0.22807 0.21065,0.0981 0.41921,0.20071 0.629749,0.29909 0.290003,0.13551 1.089223,0.49999 1.379629,0.6327 0.320098,0.14448 0.898189,0.41178 1.236157,0.54078 0.341688,0.13041 0.843262,0.2829 1.194657,0.3769 0.215406,0.0576 0.430422,0.1188 0.649693,0.15928 0.262927,0.0485 0.529926,0.0716 0.79489,0.10743 0.308787,0.0364 0.616971,0.0784 0.926362,0.10936 0.338926,0.0339 0.679021,0.0549 1.018299,0.0851 1.181751,0.10501 2.361933,0.22603 3.544081,0.32682 0.427632,0.029 0.583162,0.0494 0.989756,0.044 0.23628,-0.003 0.515995,-0.006 0.732562,-0.12093 0.04776,-0.0253 0.08725,-0.0638 0.130874,-0.0957 0.03414,-0.0421 0.07227,-0.0813 0.102417,-0.12632 0.06236,-0.0932 0.08894,-0.17355 0.13062,-0.27588 0.06147,-0.1509 0.123981,-0.30125 0.187952,-0.45111 0.162501,-0.4005 0.334777,-0.79738 0.484909,-1.20277 0.09472,-0.28206 0.184658,-0.57274 0.190723,-0.87314 0.0019,-0.091 -0.0075,-0.18196 -0.01125,-0.27294 0,0 -3.384103,-1.70194 -3.384103,-1.70194 v 0 c 0.0048,0.0721 0.01461,0.14409 0.0145,0.21637 -2.64e-4,0.2671 -0.0701,0.53191 -0.139856,0.78726 -0.04995,0.14292 -0.0913,0.26925 -0.151262,0.4085 -0.108678,0.25239 -0.241755,0.49422 -0.353438,0.74528 -0.07258,0.14612 -0.14722,0.29087 -0.222311,0.43569 -0.0049,0.009 -0.07212,0.14555 -0.08997,0.16963 -0.01193,0.0161 -0.02853,0.0281 -0.04279,0.0421 -0.392221,0.22306 -0.910593,0.20368 -1.343705,0.2406 -0.197578,0.004 -0.395108,0.0129 -0.592728,0.0125 -0.553934,-0.001 -1.100373,-0.026 -1.653249,-0.0656 -1.026538,-0.0735 -2.050068,-0.19302 -3.059652,-0.39649 -0.699513,-0.17167 -0.931873,-0.21664 -1.577385,-0.41396 -0.796653,-0.24351 -1.56935,-0.55784 -2.330626,-0.89443 -0.614892,-0.28022 -0.769367,-0.34484 -1.384803,-0.64957 -0.547351,-0.27102 -0.807534,-0.40976 -1.337259,-0.70571 -0.14411,-0.0805 -0.572043,-0.32979 -0.429177,-0.24709 1.036006,0.5997 2.072399,1.19873 3.108599,1.79809 0,0 -3.684957,-1.44635 -3.684957,-1.44635 z" />
      <path
         style="fill:#ffffff;fill-opacity:1;stroke-width:0.264583"
         id="path9805"
         d="m 57.885536,187.20934 c 0.616891,-0.10104 1.577468,-0.26377 2.089164,-0.30267 0.777703,-0.0591 1.558613,-0.064 2.338218,-0.087 1.00153,-0.0296 2.003126,-0.0637 3.005066,-0.0709 2.724433,-0.0194 3.684003,0.0399 6.37213,0.13111 0,0 -1.152467,-0.83852 -1.152467,-0.83852 v 0 c -0.952881,0.0213 -1.905524,0.0648 -2.858643,0.064 -2.797852,-0.002 -3.976221,-0.082 -6.781593,-0.32246 -0.950542,-0.0815 -1.901029,-0.16826 -2.847724,-0.2863 -1.069909,-0.1334 -2.128353,-0.34842 -3.196986,-0.49173 0,0 3.032835,2.20447 3.032835,2.20447 z" />
      <path
         style="fill:#ffffff;fill-opacity:1;stroke-width:0.264583"
         id="path9807"
         d="m 59.377012,186.71849 c 0.865029,-0.33114 1.802802,-0.42011 2.710309,-0.55441 3.399145,-0.50302 1.760686,-0.30977 5.607582,-0.57727 0,0 -0.917435,-0.66234 -0.917435,-0.66234 v 0 c -1.159359,-0.006 -2.3193,0.0181 -3.478077,-0.0192 -1.077836,-0.0346 -2.152679,-0.13306 -3.229208,-0.19642 -0.662913,-0.039 -1.326098,-0.0733 -1.989102,-0.11069 -1.517838,-0.0857 -0.829469,-0.0691 -1.882119,-0.0799 0,0 3.17805,2.20015 3.17805,2.20015 z" />
      <path
         style="fill:#ffffff;fill-opacity:1;stroke-width:0.264583"
         id="path9809"
         d="m 70.381374,184.93428 c -0.08131,0.023 -0.160846,0.0535 -0.243922,0.0689 -0.162063,0.03 -0.326358,0.0464 -0.489895,0.0669 -0.953182,0.11935 -0.769988,0.10351 -1.821246,0.13704 -0.580332,0.0185 -1.64406,0.035 -2.220656,0.0451 -0.358907,-0.002 -0.717822,-0.003 -1.076722,-0.007 -0.704516,-0.006 -1.11965,-0.0125 -1.809929,-0.0322 -0.566005,-0.0161 -1.131663,-0.0417 -1.697636,-0.0589 -0.390588,-0.014 -0.780907,-0.0333 -1.171451,-0.0485 0,0 2.946123,2.16057 2.946123,2.16057 v 0 c 0.389376,0.0195 0.779618,0.0445 1.169469,0.018 0.481306,-0.0374 0.9613,-0.0881 1.442566,-0.12595 0.880216,-0.0692 1.762305,-0.11157 2.644952,-0.13334 0.573633,-0.005 1.688505,-0.0186 2.263524,-0.0112 0.372049,0.005 0.744297,0.01 1.115846,0.0295 0.350639,0.0187 0.700161,0.0547 1.049893,0.0861 0.219091,0.0197 0.438801,0.0355 0.656487,0.0672 0.13781,0.02 0.272333,0.0583 0.408498,0.0875 0,0 -3.165901,-2.35014 -3.165901,-2.35014 z" />
      <path
         style="fill:#ffffff;fill-opacity:1;stroke-width:0.264583"
         id="path9811"
         d="m 67.918918,186.11387 c -0.254079,0.0514 -0.353909,0.0765 -0.656296,0.1008 -0.209664,0.0168 -0.42013,0.0224 -0.630399,0.0277 -0.707573,0.0176 -1.414854,-0.004 -2.122019,-0.0249 -0.624571,-0.0331 -1.250178,-0.0538 -1.873954,-0.10104 -0.465953,-0.0353 -0.929696,-0.0904 -1.393092,-0.14937 -0.179769,-0.0293 -0.361334,-0.045 -0.541597,-0.0705 -0.06339,-0.009 -0.126066,-0.0228 -0.189608,-0.0306 -0.17408,-0.0213 -0.351518,-0.0268 -0.526394,-0.04 -0.259429,-0.0234 -0.520076,-0.0189 -0.780143,-0.0275 -0.144682,-0.005 -0.289504,-0.01 -0.434287,-0.0113 -0.01819,8e-5 -0.03645,0.002 -0.05456,2.3e-4 -0.01925,-0.002 -0.03775,-0.009 -0.05702,-0.0105 -0.02845,-0.002 -0.05705,5.3e-4 -0.08557,2.7e-4 -0.112424,-5.3e-4 -0.224856,-0.004 -0.337258,-0.006 -0.252187,2e-5 -0.503379,-0.004 -0.753872,-0.0352 -0.173451,-0.0185 -0.337195,-0.081 -0.503417,-0.12917 -0.0061,-0.002 -0.240302,-0.0596 -0.242529,-0.0601 -0.309447,-0.0738 -0.615839,-0.16092 -0.927014,-0.22704 -0.161773,-0.0526 -0.329269,-0.0884 -0.496442,-0.11932 -0.181322,-0.0335 -0.03833,0.006 -0.202888,-0.0455 -0.02911,-0.008 -0.05809,-0.0162 -0.08732,-0.0236 -0.03648,-0.009 -0.108515,-0.0261 -0.147503,-0.0311 -0.07252,-0.009 -0.10033,0.002 -0.171443,-0.0241 -0.04473,-0.0101 -0.08977,-0.0202 -0.13544,-0.0251 -0.01253,-0.001 -0.02627,0.003 -0.03773,-0.003 -0.02681,-0.0318 -0.01051,-0.0199 -0.04882,-0.0358 -0.0109,-0.002 -0.02179,-0.004 -0.03268,-0.005 -0.0088,-0.006 -0.01617,-0.0149 -0.02635,-0.0179 -0.04033,-0.0119 -0.150062,-0.007 -0.193161,-0.004 -0.05987,0.005 -0.119862,0.007 -0.179916,0.007 0,0 3.186688,2.33246 3.186688,2.33246 v 0 c 0.05581,0.005 0.111728,0.009 0.165472,0.0265 0.04064,0.0155 0.08221,0.0288 0.121768,0.047 0.01294,0.006 0.02456,0.0152 0.03829,0.019 0.01372,0.004 0.02838,0.002 0.04257,0.004 0.0094,0.003 0.01874,0.007 0.02811,0.0101 0.09287,0.0137 -0.03578,-0.002 0.07663,-0.003 0.04116,-5.3e-4 0.110362,0.0328 0.15386,0.0279 0.123891,0.001 0.24021,0.057 0.363585,0.0694 0.222875,0.0303 0.43888,0.095 0.659369,0.13816 0.313239,0.0784 0.627369,0.15288 0.936733,0.24597 0.0021,5.3e-4 0.245594,0.065 0.251579,0.0663 0.173599,0.0385 0.351973,0.0543 0.528807,0.0681 0.259165,0.0123 0.518337,0.0213 0.777661,0.0299 0.09858,0.005 0.13703,0.007 0.235257,0.0151 0.07218,0.006 0.143764,0.0189 0.216087,0.0228 0.04564,0.002 0.09142,-0.005 0.137105,-0.002 0.13231,-0.002 0.26462,-0.007 0.396885,-0.0111 0.24247,-0.005 0.484646,0.007 0.726898,0.0163 0.169339,0.009 0.337735,0.0297 0.506854,0.0397 0.204486,0.0121 0.410017,-0.002 0.61458,0.004 1.017331,0.008 2.033643,0.0607 3.051035,0.0675 1.279392,0.004 2.568249,-0.0248 3.833569,0.19806 0,0 -3.180665,-2.31089 -3.180665,-2.31089 z" />
      <path
         style="fill:#ffffff;fill-opacity:1;stroke-width:0.264583"
         id="path9813"
         d="m 56.187372,187.53118 c 0.06006,-0.006 0.119852,-0.0163 0.180179,-0.0172 0.09297,-0.001 0.185841,0.007 0.278749,0.0106 0.213018,0.009 0.52603,0.0209 0.735438,0.0365 0.112133,0.008 0.612589,0.0577 0.73332,0.0695 0.305069,0.0336 0.610767,0.0497 0.917351,0.0579 0.138127,0.004 0.458487,0.0144 0.595367,0.009 0.120131,-0.005 0.239699,-0.0194 0.359548,-0.0292 0.400682,-0.0248 0.802089,-0.0268 1.203338,-0.0291 0.12169,-7.9e-4 0.243506,0.003 0.365072,-0.002 0.395163,-0.0182 0.721947,-0.0717 1.124516,-0.12361 0.307888,-0.0128 0.615775,-0.0256 0.923666,-0.0384 0,0 -2.544802,-1.8508 -2.544802,-1.8508 v 0 c -0.349523,-0.016 -0.699045,-0.032 -1.048568,-0.048 -0.458422,-0.0393 -0.974118,-0.097 -1.444991,-0.10138 -0.1171,-0.001 -0.234048,0.009 -0.351047,0.0137 -0.398682,0.0169 -0.797472,0.0374 -1.196734,0.0278 -0.62694,-0.0313 -1.254421,-0.0482 -1.881143,-0.0845 -0.605646,-0.0345 -1.227246,-0.0668 -1.822789,-0.188 -0.08969,-0.0183 -0.177505,-0.0447 -0.266258,-0.0671 0,0 3.139788,2.35533 3.139788,2.35533 z" />
      <path
         style="fill:#ffffff;fill-opacity:1;stroke-width:0.264583"
         id="path9815"
         d="m 68.940813,190.61107 c 0.10024,-2.6e-4 0.200737,0.006 0.300715,-0.001 0.299495,-0.0216 0.596757,-0.073 0.896778,-0.0853 1.244936,-0.0511 2.332765,0.006 3.590671,0.0418 0,0 -1.719302,-1.26784 -1.719302,-1.26784 v 0 c -2.066377,-0.22442 -4.168378,-0.39062 -6.156843,-1.04072 0,0 3.087981,2.35318 3.087981,2.35318 z" />
      <path
         style="fill:#ffffff;fill-opacity:1;stroke-width:0.264583"
         id="path9817"
         d="m 69.613222,191.54147 c 0.142867,-0.0358 0.282581,-0.0881 0.428604,-0.10731 0.778185,-0.10221 2.17057,-0.13432 2.842916,-0.16192 0,0 -1.804273,-1.3266 -1.804273,-1.3266 v 0 c -1.348264,-0.17934 -2.509504,-0.30445 -3.821335,-0.56786 -0.274965,-0.0552 -0.543451,-0.13884 -0.815178,-0.20825 0,0 3.169266,2.37194 3.169266,2.37194 z" />
      <path
         style="fill:#ffffff;fill-opacity:1;stroke-width:0.264583"
         id="path9819"
         d="m 52.804744,185.45926 c 1.168536,0.67011 2.334518,1.3447 3.505609,2.01033 0.09281,0.0528 0.1906,0.0962 0.285742,0.14463 0.245078,0.12472 0.388151,0.20544 0.64362,0.30982 0.02579,0.0105 0.671769,0.24608 0.699016,0.25603 0.264352,0.10212 0.530915,0.19835 0.795549,0.29972 0.0586,0.0224 0.116049,0.048 0.175446,0.0682 0.08021,0.0273 0.218756,0.0607 0.302516,0.0819 0.09796,0.0179 0.190768,0.056 0.287701,0.0778 0.05855,0.0131 0.118514,0.0192 0.177254,0.0315 0.06904,0.0144 0.137134,0.0331 0.205947,0.0486 0.07795,0.0175 0.156212,0.0336 0.23432,0.0504 0.0821,0.0188 0.164198,0.0375 0.246298,0.0563 0.443706,0.10244 0.880623,0.23062 1.321004,0.34589 0.415237,0.10005 0.822357,0.23487 1.242285,0.31412 0.338092,0.0728 0.674433,0.1514 1.013941,0.2176 0.150067,0.0231 0.294548,0.071 0.441878,0.10552 0.134337,0.0315 0.268034,0.056 0.401154,0.0932 0.21791,0.0655 0.43861,0.11906 0.654909,0.18963 0.208717,0.0464 0.414552,0.10584 0.620147,0.1646 0.04934,0.0141 0.09802,0.0309 0.148232,0.0415 0.05901,0.0124 0.119216,0.0182 0.178824,0.0273 0.461675,0.0628 0.92056,0.15092 1.372659,0.26362 0.373602,0.0792 0.740336,0.18481 1.107866,0.28753 0.415639,0.0888 0.813961,0.239 1.208513,0.394 0.360794,0.15393 0.713785,0.32516 1.06911,0.49112 0.05718,0.027 0.114504,0.0538 0.171548,0.0811 0.07718,0.0369 0.233452,0.1155 0.314214,0.14773 0.174654,0.0697 0.360756,0.11134 0.540787,0.16445 0.05206,0.0177 0.29836,0.10243 0.354417,0.11632 0.06511,0.0161 0.131787,0.0251 0.197805,0.0369 0.119671,0.0215 0.294373,0.0504 0.414923,0.0706 0,0 -3.056322,-2.30518 -3.056322,-2.30518 v 0 c -0.165192,-0.0323 -0.226157,-0.0404 -0.391554,-0.089 -0.183094,-0.0538 -0.361116,-0.12518 -0.545534,-0.17496 -0.06207,-0.0215 -0.124856,-0.041 -0.186205,-0.0644 -0.278125,-0.10636 -0.539295,-0.25274 -0.812986,-0.36941 -0.352112,-0.16486 -0.707641,-0.32162 -1.072308,-0.45719 -0.07237,-0.0266 -0.144119,-0.055 -0.217107,-0.0799 -0.342662,-0.11676 -0.700495,-0.18598 -1.042006,-0.30685 -0.365836,-0.0977 -0.737788,-0.17103 -1.105942,-0.2594 -0.457787,-0.0825 -0.921398,-0.13798 -1.369004,-0.27002 -0.328414,-0.10117 -0.664237,-0.17733 -0.988018,-0.29358 -0.21849,-0.06 -0.438526,-0.11423 -0.659217,-0.16551 -0.27772,-0.0546 -0.552604,-0.12236 -0.831361,-0.17209 -0.329874,-0.0676 -0.659847,-0.13499 -0.988436,-0.2086 -0.39589,-0.10125 -0.796809,-0.18221 -1.189031,-0.29781 -0.03993,-0.0116 -0.433426,-0.12618 -0.478225,-0.13792 -0.279674,-0.0733 -0.565609,-0.12158 -0.845784,-0.19287 -0.409746,-0.10085 -0.815126,-0.21595 -1.219722,-0.33545 -0.369495,-0.11373 -0.737597,-0.23314 -1.103224,-0.35874 -0.332669,-0.12739 -0.35194,-0.12797 -0.683438,-0.28396 -1.293008,-0.60843 -3.475579,-2.11155 2.047235,1.2207 0,0 -3.595045,-1.38565 -3.595045,-1.38565 z" />
      <path
         style="fill:#ffffff;fill-opacity:1;stroke-width:0.264583"
         id="path9821"
         d="m 51.454402,185.08671 c 0.202154,0.15865 0.393938,0.32988 0.593283,0.49186 1.127814,0.82294 2.624081,1.54327 3.648789,2.13014 0.02614,0.015 0.05565,0.0231 0.08347,0.0346 0.02867,0.0179 0.05733,0.0359 0.086,0.0538 0.03454,0.0171 0.06958,0.0333 0.103634,0.0514 0.08759,0.0465 0.112794,0.0673 0.200164,0.11244 0.09554,0.0493 0.194158,0.093 0.290028,0.14182 0.225639,0.10646 0.470297,0.14265 0.714805,0.17602 0.08319,0.0102 0.166679,0.018 0.250429,0.0215 0.01929,7.9e-4 0.03992,0.008 0.0579,0.002 0.01812,-0.007 0.109202,-0.0792 0.131527,-0.0966 0.07623,-0.0673 0.120031,-0.16028 0.183265,-0.23773 -0.01296,0.0347 -0.05505,0.1323 -0.03995,0.16696 0.01234,0.0283 0.05017,0.0368 0.07834,0.0495 0.04872,0.0219 0.100788,0.0354 0.151011,0.0536 0.230959,0.0836 0.155767,0.0555 0.385002,0.15101 0.241952,0.0955 0.47873,0.20154 0.714229,0.31152 0.158758,0.0645 0.314675,0.13935 0.455428,0.23758 -1.091806,-0.63026 -2.183613,-1.26051 -3.27542,-1.89076 0.02376,0.0121 0.04833,0.0228 0.07127,0.0364 0.03835,0.0228 0.07133,0.054 0.109803,0.0765 0.01104,0.006 0.0654,0.03 0.08157,0.037 0.09592,-0.09 0.02983,-0.0211 0.148332,-0.27562 0.01772,-0.0381 0.04447,-0.0738 0.05066,-0.11529 0.0037,-0.0247 -0.118002,-0.0522 -0.129896,-0.0563 -0.181986,-0.017 -0.357552,-0.0625 -0.527174,-0.12978 -0.02446,-0.0129 -0.04805,-0.0276 -0.07339,-0.0387 -0.02463,-0.0108 -0.05135,-0.0162 -0.0761,-0.0267 -0.08538,-0.0362 -0.158985,-0.0924 -0.244542,-0.12771 -0.03746,-0.0315 -0.04545,-0.0436 -0.09043,-0.0616 -0.01503,-0.006 -0.03284,-0.005 -0.0468,-0.0129 -0.01149,-0.007 -0.03796,-0.0366 -0.0264,-0.03 2.742813,1.56991 4.479126,2.60502 3.319108,1.91365 -0.01503,-0.007 -0.03093,-0.0123 -0.04509,-0.0209 -0.01421,-0.009 -0.02634,-0.0203 -0.03952,-0.0305 -1.144376,-0.65835 -2.286426,-1.32076 -3.433129,-1.97504 -0.01599,-0.009 -0.03626,-0.007 -0.05336,-0.0143 -0.03203,-0.0128 -0.06044,-0.0332 -0.09094,-0.0494 -0.0176,-0.006 -0.03462,-0.0138 -0.0528,-0.0175 -0.01999,-0.004 -0.04105,-7.9e-4 -0.06092,-0.005 -0.01752,-0.004 -0.03301,-0.0144 -0.05008,-0.02 -0.01718,-0.006 -0.03586,-0.007 -0.0525,-0.0137 -0.05358,-0.0344 -0.02531,-0.0205 -0.08473,-0.0417 -0.125964,-0.049 -0.253929,-0.095 -0.382296,-0.1384 -0.08269,-0.0288 -0.168897,-0.0505 -0.250858,-0.0812 -0.04452,-0.0167 -0.08352,-0.0464 -0.128335,-0.0623 -0.02304,-0.008 -0.04775,-0.0105 -0.07163,-0.0158 -0.170653,-0.0395 -0.339232,-0.0863 -0.505457,-0.14169 -0.167216,-0.0498 -0.32775,-0.11636 -0.480707,-0.19981 -0.198627,-0.0912 0.06484,0.0327 -0.126237,-0.0667 -0.02029,-0.0106 -0.04245,-0.0172 -0.06278,-0.0277 -0.01838,-0.009 -0.03462,-0.0228 -0.0531,-0.032 -0.03378,-0.0169 -0.06998,-0.0285 -0.104697,-0.0435 -0.01797,-0.005 -0.03665,-0.008 -0.0539,-0.0148 -0.01552,-0.006 -0.02833,-0.0181 -0.04365,-0.0249 -0.04547,-0.0202 -0.0963,-0.0159 -0.140938,-0.037 -0.0138,-0.007 -0.02526,-0.0171 -0.03789,-0.0257 -0.01507,-0.005 -0.03103,-0.009 -0.04522,-0.0161 -0.03982,-0.0208 -0.03544,-0.0309 -0.06917,-0.059 -0.0123,-0.0102 -0.05325,-0.0355 -0.03939,-0.0275 3.320471,1.91647 4.376762,2.68724 3.295547,1.90055 -1.144147,-0.65683 -2.288295,-1.31367 -3.432443,-1.9705 -0.01361,-0.007 -0.02645,-0.0166 -0.04084,-0.0225 -0.0146,-0.006 -0.03212,-0.005 -0.04556,-0.0127 -0.01174,-0.007 -0.01588,-0.023 -0.02665,-0.0316 -0.02654,-0.0211 -0.04,-0.0168 -0.07168,-0.0184 -0.116193,0.0938 -0.205718,0.22295 -0.253854,0.36481 -0.01107,0.0326 -0.01561,0.0915 -0.01927,0.12447 0.0096,0.0681 0.04558,0.12911 0.04471,0.19838 -0.0045,0.0613 -0.01233,0.1039 0.01213,0.16788 0.01095,0.0287 0.02657,0.0596 0.05294,0.0753 1.139456,0.67811 2.286581,1.34336 3.437461,2.00189 0.03195,0.0183 0.07213,0.0153 0.107242,0.0264 0.03639,0.0115 0.07123,0.0274 0.106842,0.0411 0.09275,0.0306 0.18311,0.0652 0.273624,0.1012 0.02248,0.009 0.04647,0.014 0.06844,0.0242 0.225856,0.10405 -0.109606,-0.0334 0.101154,0.051 0.114971,0.0544 -0.03171,-0.01 0.10057,0.029 0.01641,0.005 0.03034,0.0159 0.04633,0.022 0.05185,0.0196 0.108596,0.0325 0.161672,0.0485 0.02144,0.008 0.04381,0.0144 0.06432,0.0248 0.02113,0.0107 0.03904,0.027 0.05999,0.038 0.08568,0.0451 0.182622,0.0604 0.275209,0.0846 0.05353,0.0127 0.101359,0.0407 0.153053,0.0582 0.02716,0.009 0.05612,0.0127 0.08296,0.0228 0.02473,0.009 0.04641,0.0256 0.07106,0.0351 0.03484,0.0135 0.11379,0.0306 0.150608,0.0392 0.06247,0.0231 0.127122,0.0396 0.192995,0.0493 0.019,0.003 0.03876,0.001 0.05725,0.007 0.01483,0.004 0.02681,0.0154 0.04108,0.0212 0.01372,0.006 0.02836,0.009 0.04254,0.0129 0.01437,0.002 0.02967,7.9e-4 0.0431,0.006 0.01143,0.005 0.01743,0.0186 0.02891,0.0232 0.01348,0.005 0.02914,0.002 0.04319,0.006 0.07007,0.0183 0.01215,0.0179 0.09411,0.0345 0.02514,0.005 0.05101,0.005 0.07652,0.008 0.09995,0.0237 0.193933,0.0675 0.292319,0.0957 0.02623,0.008 0.05321,0.0121 0.07981,0.0182 0.02673,0.008 0.05345,0.0161 0.08018,0.0241 0.105784,0.0276 0.208946,0.0632 0.314614,0.0909 0.147257,0.0386 0.01122,-0.01 0.144801,0.0419 0.0912,0.0163 0.174111,0.0597 0.25973,0.093 0.140439,0.0547 0.0023,-0.0118 0.129705,0.0532 0.132145,0.0357 0.003,-0.004 0.121683,0.0448 0.01857,0.008 0.03879,0.0107 0.05707,0.019 0.01635,0.007 0.03004,0.0198 0.04621,0.0275 0.08367,0.0401 0.01729,-0.007 0.08335,0.0459 0.02673,0.005 0.04714,0.0242 0.07215,0.0327 0.01386,0.005 0.02946,0.003 0.043,0.009 0.01249,0.005 0.02151,0.0167 0.03367,0.0226 0.03993,0.0195 0.06027,0.0179 0.105359,0.0237 0.162769,0.0387 -0.03667,-0.0131 0.123087,0.0427 0.04535,0.0159 0.09349,0.0226 0.139018,0.038 0.03229,0.0109 0.111852,0.0433 0.142782,0.0557 0.07532,0.0192 0.145534,0.0518 0.220572,0.0719 0.02233,0.006 0.04555,0.009 0.06761,0.0156 0.193757,0.0611 -0.08127,-0.0113 0.112507,0.0376 0.03281,0.016 0.071,0.005 0.104648,0.0154 0.01296,0.004 0.02201,0.0167 0.03484,0.0211 0.04341,0.0149 0.10001,0.01 0.144624,0.008 0.0186,-0.001 0.03718,-0.005 0.05577,-0.004 0.03917,0.003 0.07717,0.0146 0.116076,0.0199 0.05994,0.008 0.118107,0.0132 0.177191,0.0264 0.136655,0.0478 0.267089,0.0587 0.4025,0.11614 0.100634,0.0338 0.198602,0.0752 0.299527,0.1081 0.194908,0.0634 -0.01148,-0.0166 0.169661,0.0569 0.149294,0.035 0.289103,0.0955 0.411576,0.18758 1.093195,0.77755 0.02577,0.0157 -3.246118,-1.87287 -0.02791,-0.0161 0.05366,0.0357 0.08071,0.0532 0.0735,0.0476 0.14682,0.0914 0.216277,0.14479 1.143733,0.83968 2.322844,1.7581 3.701738,2.11503 0.220626,0.0828 -0.09721,-0.0332 0.14478,0.0435 0.02389,0.008 0.04575,0.0207 0.06961,0.0284 0.08137,0.0261 0.170743,0.0364 0.254592,0.0503 0.03966,0.007 0.07971,0.0125 0.118978,0.0215 0.03869,0.009 0.07619,0.0225 0.114633,0.0324 0.13488,0.035 0.273905,0.0608 0.411205,0.0844 0.249656,0.0205 0.496867,0.062 0.740476,0.11956 0.316617,0.0858 0.64012,0.1407 0.957578,0.223 0.130987,0.0281 0.255233,0.0804 0.383463,0.11724 0.13688,0.0393 0.279657,0.0628 0.419526,0.0882 0.270695,0.0511 0.536093,0.12653 0.800312,0.20364 0.119213,0.0348 0.234129,0.0829 0.35247,0.12029 0.06843,0.0216 0.139885,0.033 0.207941,0.0557 0.02647,0.009 0.05108,0.0225 0.07662,0.0338 0.05401,0.0308 0.115464,0.0347 0.173669,0.0499 0.03022,0.008 0.05603,0.0288 0.08633,0.0363 0.02164,0.005 0.04431,0.005 0.06647,0.007 0.07941,0.0316 0.165603,0.0299 0.248034,0.0447 0.02982,0.005 0.05849,0.0159 0.08798,0.0228 0.07045,0.0166 0.141406,0.0309 0.211918,0.0472 0.03981,0.007 0.214143,0.0368 0.254296,0.0453 0.03822,0.008 0.0754,0.021 0.113866,0.0278 0.04406,0.008 0.08904,0.009 0.133268,0.0162 0.0502,0.008 0.305498,0.0564 0.345019,0.0638 0.371846,0.0816 0.751822,0.11494 1.126001,0.18219 0.148315,0.0194 0.295071,0.0462 0.442185,0.0723 7.93e-4,1.3e-4 0.235177,0.0362 0.237564,0.0367 0.04111,0.009 0.08129,0.0211 0.121928,0.0316 0.312256,0.0327 0.60916,0.13881 0.912886,0.21184 0.106527,0.0435 0.220052,0.0581 0.331306,0.0822 0.120952,0.0262 0.240742,0.0616 0.360728,0.092 0.15063,0.0457 0.30915,0.053 0.462706,0.0834 0.06908,0.0137 0.136874,0.0333 0.205861,0.0475 0.137782,0.051 0.28542,0.0535 0.429861,0.0663 0.06631,0.006 0.189886,0.0205 0.257572,0.0283 0.254106,0.0238 0.50882,-5.3e-4 0.763304,0.007 0.15983,0.003 0.318448,0.0161 0.476991,0.0354 0,0 -3.115638,-2.29847 -3.115638,-2.29847 v 0 c -0.157729,-0.004 -0.315502,-0.007 -0.473117,-0.0143 -0.260501,-0.0104 -0.520989,-0.0241 -0.779939,-0.0557 -0.08675,-0.009 -0.14964,-0.0143 -0.236731,-0.0307 -0.149576,-0.0281 -0.293825,-0.0799 -0.445005,-0.0994 -0.12704,-0.0232 -0.06146,-0.0125 -0.196797,-0.0316 -0.15108,-0.0263 -0.298402,-0.0696 -0.447567,-0.10439 -0.227457,-0.0535 -0.452622,-0.11613 -0.681095,-0.16484 -0.03246,-0.008 -0.237305,-0.0583 -0.26374,-0.0639 -0.21826,-0.0461 -0.440835,-0.0731 -0.655563,-0.13572 -0.262355,-0.042 -0.525658,-0.0726 -0.789218,-0.1058 -0.368305,-0.045 -0.73402,-0.10666 -1.096584,-0.18586 -0.178183,-0.0399 -0.355613,-0.0848 -0.533892,-0.12375 -0.118292,-0.0259 -0.239929,-0.0383 -0.355264,-0.0777 -0.01072,-0.003 -0.215204,-0.054 -0.235516,-0.0585 -0.03135,-0.007 -0.06341,-0.0106 -0.09454,-0.0186 -0.08409,-0.0213 -0.163922,-0.0582 -0.248541,-0.078 -0.02072,-0.009 -0.04066,-0.0208 -0.06216,-0.0283 -0.08009,-0.028 -0.03752,-0.003 -0.107077,-0.0242 -0.04677,-0.0141 -0.0906,-0.0405 -0.140417,-0.0456 -0.205537,-0.0382 -0.398725,-0.12798 -0.604682,-0.16691 -0.264866,-0.0689 -0.531032,-0.12922 -0.799864,-0.18041 -0.268042,-0.0724 -0.531993,-0.16067 -0.806141,-0.20838 -0.321818,-0.0623 -0.637643,-0.14834 -0.958506,-0.21461 -0.262062,-0.0472 -0.524491,-0.094 -0.785116,-0.14823 -0.206407,-0.0463 -0.413989,-0.0893 -0.616876,-0.14946 -0.158417,-0.0561 -0.315,-0.11618 -0.466866,-0.18781 -0.02019,-0.0118 -0.04087,-0.0228 -0.06054,-0.0355 -0.01651,-0.0107 -0.06493,-0.0442 -0.04789,-0.0344 1.113928,0.64023 2.225879,1.28389 3.33882,1.92583 -0.01741,-0.01 -0.03426,-0.021 -0.05227,-0.0299 -0.02008,-0.01 -0.04193,-0.016 -0.0618,-0.0263 -0.02267,-0.0118 -0.04365,-0.0265 -0.06547,-0.0398 -0.101249,-0.0602 -0.188635,-0.139 -0.290648,-0.19854 -3.420065,-1.996 -2.214216,-1.47186 -3.493497,-2.02461 -0.144756,-0.045 -0.291883,-0.0831 -0.433936,-0.1361 -0.162375,-0.0469 -0.31776,-0.11635 -0.4834,-0.15275 -0.149097,-0.0275 -0.29588,-0.0686 -0.44676,-0.0834 -0.08159,-0.008 -0.161886,-0.0225 -0.243243,-0.032 -0.0227,-0.003 -0.0458,-0.002 -0.06828,-0.006 -0.01613,-0.003 -0.03127,-0.01 -0.0469,-0.0149 -0.03667,-0.0156 -0.0798,-0.0402 -0.118899,-0.0485 -0.01503,-0.003 -0.03096,7.9e-4 -0.04601,-0.002 -0.02825,-0.006 -0.05203,-0.0267 -0.08062,-0.0314 -0.154811,-0.0564 0.06444,0.0213 -0.107859,-0.0319 -0.08904,-0.0275 -0.174849,-0.0675 -0.263548,-0.0962 -0.141605,-0.0462 -0.282847,-0.0928 -0.420684,-0.14839 -0.03185,-0.0206 -0.06129,-0.042 -0.09674,-0.0563 -0.0138,-0.006 -0.02944,-0.006 -0.04301,-0.0121 -0.0333,-0.0151 -0.06684,-0.0432 -0.103358,-0.0545 -0.09291,-0.017 0.0081,0.005 -0.08619,-0.0267 -0.07394,-0.0247 -0.1512,-0.0415 -0.221389,-0.077 -0.09337,-0.0253 -0.183661,-0.0607 -0.277405,-0.085 -0.02138,-0.006 -0.04364,-0.007 -0.06502,-0.0127 -0.0216,-0.006 -0.04246,-0.0137 -0.06369,-0.0206 -0.15203,-0.0311 -0.298142,-0.0866 -0.448102,-0.12637 -0.154732,-0.046 -0.307112,-0.0993 -0.464988,-0.13472 -0.07238,-0.032 -0.06762,-0.033 -0.140666,-0.0539 -0.01669,-0.005 -0.03417,-0.007 -0.05062,-0.0122 -0.01312,-0.004 -0.02414,-0.0145 -0.03767,-0.0175 -0.01462,-0.003 -0.03013,0.002 -0.04489,-5.3e-4 -0.01221,-0.002 -0.02323,-0.009 -0.03484,-0.0128 -0.05679,-0.0138 -0.02677,-0.009 -0.09026,-0.0132 -0.07393,-0.0149 -0.141249,-0.0613 -0.21663,-0.0724 -0.14716,-0.0589 -0.29705,-0.10797 -0.448094,-0.15666 -0.08695,-0.0344 -0.169158,-0.0844 -0.257652,-0.11428 -0.0246,-0.008 -0.05043,-0.0125 -0.07531,-0.0199 -0.02439,-0.007 -0.04827,-0.0162 -0.0724,-0.0242 -0.05442,-0.0208 -0.108444,-0.0453 -0.163231,-0.0649 -0.01701,-0.006 -0.03551,-0.008 -0.05202,-0.0152 -0.196536,-0.0873 0.11301,0.0304 -0.09053,-0.0445 -0.101381,-0.0417 0.02096,0.006 -0.09861,-0.0307 -0.101817,-0.0312 -0.200849,-0.0721 -0.298448,-0.11453 -0.03476,-0.0157 -0.07078,-0.0289 -0.104267,-0.0471 -0.03436,-0.0187 -0.132534,-0.0833 -0.09871,-0.0636 1.092153,0.63598 2.186313,1.26857 3.273795,1.9125 0.01781,0.0106 -0.0409,-0.014 -0.06124,-0.0102 -0.03015,0.006 -0.04995,0.0395 -0.08253,0.0407 -0.03573,-0.0548 -0.01,-0.14711 -0.04652,-0.20567 -0.01223,0.001 -0.02788,-0.006 -0.03672,0.003 -0.06249,0.0601 -0.108087,0.185 -0.155438,0.25774 0.03508,0.0534 0.03648,0.0263 0.08472,0.0463 0.02675,0.0111 0.04219,0.0428 0.07453,0.0446 -1.115925,-0.64227 -2.23185,-1.28455 -3.347774,-1.92682 1.244969,0.57649 -0.01667,-0.009 3.472738,2.00781 0.01533,0.009 0.03146,0.0165 0.04819,0.0223 0.03138,0.0109 0.06544,0.0124 0.09692,0.023 0.01454,0.005 0.02808,0.0124 0.04212,0.0186 0.04385,0.009 0.05551,0.008 0.09493,0.0283 0.06008,0.0304 0.008,0.015 0.07436,0.043 0.01572,0.007 0.03304,0.009 0.04856,0.0162 0.01506,0.007 0.02844,0.017 0.04266,0.0255 0.11189,0.0557 0.223641,0.11009 0.340794,0.15445 0.16373,0.0552 0.330252,0.10145 0.495007,0.15357 0.172124,0.0484 0.345415,0.0951 0.510602,0.16435 0.136654,0.0679 0.292485,0.0877 0.430463,0.15477 0.137105,0.056 0.274598,0.11118 0.411553,0.16703 0.05787,0.0244 0.130892,0.035 0.185777,0.0643 0.01536,0.008 0.0271,0.0219 0.04143,0.0318 0.01418,0.01 0.02933,0.0181 0.044,0.0272 0.03227,0.0154 0.06671,0.0266 0.09763,0.0446 0.01444,0.008 0.05443,0.0386 0.03994,0.0303 -1.114844,-0.63985 -2.227569,-1.28339 -3.341353,-1.92509 0.05966,0.0245 0.03211,0.008 0.08251,0.0493 1.182881,0.67538 0.02477,0.0141 3.465422,1.99952 0.01132,0.006 0.02666,0.001 0.03864,0.006 0.01218,0.005 0.02045,0.017 0.03166,0.0241 0.0408,0.0258 0.04546,0.023 0.0943,0.0366 0.08221,0.0422 0.168504,0.064 0.255965,0.0924 0.0241,0.008 0.04709,0.019 0.07146,0.026 0.02717,0.008 0.05521,0.0121 0.08281,0.0181 0.185935,0.0398 0.375416,0.0662 0.554568,0.13224 0.04242,0.008 0.145201,0.043 0.187553,0.0173 0.143081,-0.087 0.283168,-0.28757 0.270603,-0.45699 -0.02162,-0.0342 -0.04483,-0.0752 -0.07452,-0.10317 -0.0085,-0.008 -0.116764,-0.0826 -0.122246,-0.0869 -0.02389,-0.0189 -0.04581,-0.0402 -0.06872,-0.0602 -1.144413,-0.66218 -2.288824,-1.32436 -3.433236,-1.98654 -0.163481,-0.071 -0.32574,-0.14443 -0.490407,-0.21261 -0.209348,-0.0808 -0.422538,-0.15111 -0.631843,-0.23226 -0.694621,-0.25787 0.347859,0.12977 -0.402883,-0.15163 -0.06003,-0.0225 -0.275741,-0.11668 -0.363702,-0.10091 -0.122562,0.022 -0.161868,0.094 -0.231017,0.17691 -0.0078,0.0129 -0.05732,0.11338 -0.05932,0.0544 -0.0042,-0.004 -0.01075,-0.007 -0.01254,-0.013 -0.0035,-0.0112 0.0065,-0.0275 -0.0024,-0.035 -0.01138,-0.01 -0.02958,-0.003 -0.04435,-0.004 -0.0666,-0.007 -0.132962,-0.0166 -0.198561,-0.0302 -0.226776,-0.0527 -0.43837,-0.14614 -0.63979,-0.26268 -0.198065,-0.10083 -0.392129,-0.20937 -0.586715,-0.31665 -0.03518,-0.0173 -0.07104,-0.0333 -0.105542,-0.0519 -0.02833,-0.0153 -0.110684,-0.0658 -0.08281,-0.0497 5.642426,3.25749 4.226411,2.42199 3.044988,1.76404 -0.208074,-0.12226 -0.398256,-0.26785 -0.574,-0.43352 0,0 -3.654443,-1.48755 -3.654443,-1.48755 z" />
      <path
         style="fill:#ffffff;fill-opacity:1;stroke-width:0.264583"
         id="path9823"
         d="m 63.576439,190.62694 c 0.192759,-0.11397 0.407207,-0.17885 0.611478,-0.26823 0.05463,-0.0175 0.109252,-0.0351 0.163878,-0.0526 0,0 -3.179117,-2.16395 -3.179117,-2.16395 v 0 c -0.05867,0.0183 -0.117343,0.0367 -0.176014,0.055 -0.05901,0.0157 -0.118467,0.0298 -0.177027,0.0471 -0.179039,0.0529 -0.345978,0.1435 -0.530757,0.17806 0,0 3.287559,2.20468 3.287559,2.20468 z" />
      <path
         style="fill:#ffffff;fill-opacity:1;stroke-width:0.264583"
         id="path9825"
         d="m 63.460969,190.65494 c 0.07224,-0.1101 0.177234,-0.19082 0.267012,-0.28504 0.03952,-0.0233 0.06227,-0.0646 0.09484,-0.0951 0.0054,-0.005 0.01259,-0.008 0.01889,-0.0118 0.0094,-0.0105 0.01889,-0.021 0.02835,-0.0315 0,0 -3.393879,-2.06157 -3.393879,-2.06157 v 0 c -0.04556,0.047 -0.08455,0.10008 -0.127558,0.14935 -0.08859,0.10216 -0.176009,0.20621 -0.27971,0.29368 0,0 3.39207,2.042 3.39207,2.042 z" />
      <path
         style="fill:#ffffff;fill-opacity:1;stroke-width:0.264583"
         id="path9831"
         d="m 62.949659,189.72335 c 0.02612,-0.0178 0.05127,-0.0371 0.07837,-0.0533 0.04975,-0.0298 0.158829,-0.0829 0.209171,-0.10813 0.09689,-0.0486 0.191895,-0.097 0.292368,-0.13769 0.116276,-0.0532 0.238233,-0.096 0.347109,-0.16392 0.01442,-0.0101 0.02886,-0.0202 0.04329,-0.0304 0,0 -3.337766,-2.14284 -3.337766,-2.14284 v 0 c -0.0072,0.004 -0.0145,0.008 -0.02178,0.0119 -0.103825,0.0493 -0.197207,0.11768 -0.300259,0.1688 -0.191432,0.10903 -0.386874,0.21585 -0.599491,0.27767 0,0 3.288983,2.17784 3.288983,2.17784 z" />
      <path
         style="fill:#ffffff;fill-opacity:1;stroke-width:0.264583"
         id="path9835"
         d="m 50.933572,185.18972 c 0.126181,0.0903 0.234608,0.20116 0.349447,0.30445 1.00854,1.01017 2.305516,1.91733 3.724975,2.12543 0.04842,0.0145 0.101058,0.009 0.149636,0.0232 0.01821,0.005 0.03399,0.0168 0.05159,0.0237 0.01539,0.006 0.03233,0.008 0.04721,0.0153 0.09943,0.0483 -0.03247,0.005 0.0774,0.037 0.185986,0.0263 -0.08046,-0.0161 0.07942,0.0235 0.01504,0.004 0.03104,8e-4 0.04637,0.003 0.05373,0.008 0.107008,0.0201 0.16099,0.0275 0.0866,0.0116 0.02255,-0.006 0.08522,0.0324 0.0105,0.006 0.02425,0.007 0.03364,0.0152 0.0086,0.007 0.01,0.0208 0.01808,0.0286 0.0534,0.0515 2.91e-4,-0.0305 0.04005,0.039 0.0099,0.003 0.03868,0.0133 0.02977,0.008 -1.125741,-0.65101 -2.256595,-1.29317 -3.381139,-1.94625 -0.0092,-0.005 0.02201,-0.003 0.03192,0.001 0.03199,0.0125 0.01916,0.0371 0.04957,0.0549 1.141561,0.66684 2.288624,1.32423 3.432936,1.98634 0.0856,0.0275 0.175607,0.0399 0.26199,0.0635 0.181975,0.0498 -0.07143,-0.007 0.110475,0.0318 0.01765,0.003 0.0353,0.005 0.05295,0.008 0,0 -3.14234,-2.40646 -3.14234,-2.40646 v 0 c -0.0137,-0.005 -0.0274,-0.0109 -0.0411,-0.0163 -0.06436,-0.0251 -0.03078,-0.0137 -0.100921,-0.0338 -0.08063,-0.0301 -0.154855,-0.079 -0.225361,-0.12711 1.115756,0.64689 2.233538,1.2903 3.34727,1.94067 0.0096,0.006 -0.02258,-0.001 -0.03297,-0.005 -0.109928,-0.0422 0.07929,0.0163 -0.04045,-0.0537 -1.138961,-0.66594 -2.286531,-1.31704 -3.428865,-1.97718 -0.0084,-0.005 -0.01542,-0.0118 -0.02313,-0.0177 -0.01193,-2.3e-4 -0.02385,-5.3e-4 -0.03578,-8e-4 -0.0086,-0.003 -0.01677,-0.008 -0.02582,-0.009 -0.01288,-5.3e-4 -0.02542,0.005 -0.03832,0.005 -0.01209,-4e-5 -0.02374,-0.005 -0.03583,-0.006 -0.08721,-0.002 -0.0062,0.0141 -0.0894,-0.008 -0.05146,-0.016 -0.106307,-0.0296 -0.156225,-0.0497 -0.01288,-0.005 -0.0236,-0.0151 -0.03671,-0.0197 -0.117311,-0.0411 0.02916,0.027 -0.07558,-0.0244 -0.09811,-0.0375 -0.21166,-0.02 -0.304625,-0.0787 -0.02206,-0.0119 -0.04448,-0.0232 -0.06619,-0.0357 -0.02123,-0.0123 -0.08382,-0.051 -0.06254,-0.0388 1.110143,0.63685 2.222589,1.26972 3.329186,1.9127 0.01684,0.01 -0.0393,-0.004 -0.05728,-0.0116 -0.03928,-0.0163 -0.06647,-0.0555 -0.109577,-0.0654 -0.03864,-0.0305 -0.07978,-0.0578 -0.117597,-0.0893 -0.07495,-0.0625 -0.140701,-0.13638 -0.212217,-0.20261 0,0 -3.670122,-1.48819 -3.670122,-1.48819 z" />
      <path
         style="fill:#ffffff;fill-opacity:1;stroke-width:0.264583"
         id="path9841"
         d="m 61.309116,188.09732 c 0.0069,0.004 0.01442,0.007 0.02072,0.0122 0.0095,0.008 0.0285,0.0296 0.03464,0.04 0.0056,0.01 0.01585,0.0291 0.0081,0.0418 -0.003,0.005 -0.0099,0.006 -0.01479,0.008 -0.0231,0.001 -0.02841,0.002 -0.05297,-0.002 -0.01,-0.002 -0.01968,-0.005 -0.02947,-0.008 -0.0082,-0.002 -0.0163,-0.005 -0.02453,-0.008 -0.0053,-0.002 -0.01098,-0.002 -0.01617,-0.004 -0.005,-0.002 -0.0095,-0.005 -0.01423,-0.008 -0.0057,-2.6e-4 -0.01146,-7.9e-4 -0.01717,-0.001 -0.0039,-0.002 -0.0075,-0.004 -0.01169,-0.005 -0.0041,-5.3e-4 -0.008,0.003 -0.01209,0.002 -0.0024,-2.3e-4 -0.0037,-0.005 -0.0056,-0.004 -0.0056,0.004 -0.01418,0.0163 -0.01918,0.0235 -0.0041,0.005 -0.0082,0.0108 -0.01236,0.0162 -7.94e-4,-2.7e-4 -0.0024,1e-5 -0.0024,-8e-4 2.64e-4,-0.002 0.0019,-0.005 0.0031,-0.004 0.0035,0.003 0.01744,0.0229 0.01828,0.0283 5.29e-4,0.003 -0.0026,0.006 -0.0038,0.009 0,0 3.285638,2.06455 3.285638,2.06455 v 0 c 0.01453,-0.003 0.01016,-0.004 0.0297,0.002 0.0067,0.002 0.01275,0.007 0.01976,0.007 0.0036,0 0.0055,-0.005 0.0078,-0.007 0.0011,-0.001 0.0028,-0.006 0.0019,-0.004 -0.0029,0.004 -0.0053,0.008 -0.0079,0.0123 0.0011,0.007 0.0019,0.009 -0.0093,0.0166 -0.0019,0.001 0.0013,-0.005 9.8e-5,-0.007 -7.94e-4,-0.002 -0.004,-1.3e-4 -0.0051,-0.002 -0.0019,-0.003 -0.0019,-0.006 -0.0028,-0.009 -0.0019,-0.002 -0.0039,-0.005 -0.0058,-0.007 8.2e-5,-0.005 5e-6,-0.0102 2.48e-4,-0.0153 2.22e-4,-0.005 0.0016,-0.009 0.0011,-0.014 -7.94e-4,-0.007 -0.0031,-0.0128 -0.0046,-0.0192 -0.0028,-0.0123 -0.0084,-0.0323 -0.0051,-0.0454 0.0019,-0.008 0.0075,-0.0144 0.01125,-0.0216 0.0071,-0.006 0.01299,-0.0132 0.02125,-0.0169 0.02077,-0.009 0.05295,-0.009 0.07427,-0.009 0.01347,5e-5 0.02697,5.3e-4 0.04041,0.001 0.02236,0.002 0.04446,0.006 0.06693,0.007 0,0 -3.368243,-2.06943 -3.368243,-2.06943 z" />
      <path
         style="fill:#ffffff;fill-opacity:1;stroke-width:0.264583"
         id="path9843"
         d="m 60.310615,187.33428 c 0.0052,0.004 0.01204,0.007 0.01551,0.0126 0.0035,0.006 -5.29e-4,0.019 -0.0047,0.0236 -0.0046,0.005 -0.01505,0.005 -0.02061,0.007 -0.0056,0.001 -0.01122,0.003 -0.01683,0.004 -0.0019,5.3e-4 -0.02596,0.006 -0.02937,0.007 -0.0033,7.9e-4 -0.007,2.1e-4 -0.0099,0.002 -0.0071,0.004 -0.0167,0.0183 -0.02135,0.0232 -0.003,0.003 -0.0066,0.006 -0.0099,0.008 -0.0019,8e-4 -0.0042,0.001 -0.0059,0.003 -0.0043,0.003 -0.0093,0.009 -0.0053,0.0147 0.0019,0.003 0.0072,0.002 0.0094,0.005 0.0033,0.004 0.004,0.01 0.0061,0.0147 0.003,0.007 0.0061,0.0137 0.0092,0.0206 -0.0026,0.003 -0.0044,0.007 -0.0076,0.009 -0.0063,0.005 -0.02262,0.009 -0.02983,0.009 -0.0069,-1e-5 -0.01347,-0.003 -0.02027,-0.003 -0.03923,-0.004 -0.0078,0.003 -0.04211,-0.006 0,0 3.269983,2.10727 3.269983,2.10727 v 0 c -0.0019,-0.004 -0.0035,-0.009 -0.0054,-0.0133 -0.0019,-0.004 -0.0053,-0.008 -0.0061,-0.0123 -0.0031,-0.0171 0.007,-0.0311 0.02101,-0.0395 0.0057,-0.003 0.01217,-0.005 0.01826,-0.008 0.0026,2.6e-4 0.05102,0.006 0.05833,0.006 0.0081,-5.3e-4 0.01564,-0.004 0.02371,-0.005 0.0035,-5.3e-4 0.007,0.002 0.0105,10e-4 0.0037,-10e-5 0.0053,-0.004 0.0071,-0.006 -0.0011,0.003 -0.0016,0.005 -0.0019,0.008 -8.4e-5,0.001 -1.69e-4,0.003 5.3e-4,0.003 0.0033,-0.003 -0.0011,-0.009 -0.0029,-0.0108 -2.65e-4,-0.001 -0.0016,-0.002 -0.0011,-0.004 0.0026,-0.005 0.01111,-0.009 0.01635,-0.01 0.0046,-5.3e-4 0.0092,8e-4 0.01373,0.002 0.0059,0.002 0.01146,0.004 0.01717,0.006 0.0097,0.002 0.01947,0.005 0.02919,0.007 0,0 -3.285148,-2.1853 -3.285148,-2.1853 z" />
      <path
         style="fill:#ffffff;fill-opacity:1;stroke-width:0.264583"
         id="path9845"
         d="m 59.919172,187.27932 c 0.03078,0.0865 -0.0063,-0.0102 0.03472,0.0741 0.0055,0.0113 0.0104,0.0231 0.0136,0.0354 0.0044,0.017 0.0058,0.0391 -0.0042,0.055 -0.0051,0.008 -0.0141,0.0129 -0.02114,0.0193 -0.01013,0.003 -0.02006,0.006 -0.03037,0.008 -0.01297,0.002 -0.05412,0.004 -0.06753,0.005 -0.01003,5.2e-4 -0.02011,2.6e-4 -0.03005,0.002 -0.01122,0.001 -0.02799,0.007 -0.03883,0.0109 -0.0086,0.007 -0.02093,0.003 -0.03011,0.008 -0.0078,0.004 -0.01199,0.0149 -0.01434,0.0223 -0.0021,0.007 -0.0048,0.0133 -0.0048,0.0202 8e-6,0.008 0.0032,0.0153 0.0048,0.0229 -0.0064,0.0277 0.0021,0.005 -0.01611,0.027 -0.0037,0.005 -0.0046,0.0115 -0.0092,0.0152 -0.0054,0.004 -0.01265,0.006 -0.01923,0.008 -0.0099,0.003 -0.03309,0.009 -0.04335,0.0112 -0.01524,0.004 -0.02551,0.004 -0.03842,0.0131 -0.015,0.0102 -0.03435,0.0345 -0.0431,0.0503 -0.0042,0.008 -0.0072,0.0156 -0.01085,0.0234 -0.0145,0.0599 -0.007,0.0185 -0.01185,0.0865 -0.0011,0.0138 -7.94e-4,0.0279 -0.0039,0.0414 -0.0021,0.009 -0.0077,0.0172 -0.01156,0.0258 0,0 3.388098,1.71968 3.388098,1.71968 v 0 c -0.004,-0.001 -0.0084,-0.005 -0.01201,-0.003 -0.0032,0.002 -0.0019,0.007 -0.0019,0.011 0.0016,0.0506 0.0052,-0.006 0.0013,0.0378 -5.29e-4,0.002 -5.29e-4,0.004 -0.0013,0.006 -5.29e-4,0.002 -0.0061,0.005 -0.0062,0.005 -0.0019,-4e-5 2.64e-4,-0.0242 -0.007,-0.0233 -0.0011,-0.0126 -0.0037,-0.0355 0.006,-0.0459 0.0047,-0.005 0.01241,-0.006 0.01794,-0.0101 0.03239,-0.0237 -0.0093,-0.004 0.03579,-0.0219 0.0095,3e-5 0.01897,-2.7e-4 0.02844,8e-5 0.0049,1.8e-4 0.0098,0.002 0.01471,0.002 0.0075,-8e-5 0.01595,-0.002 0.02074,-0.008 0.0038,-0.005 0.0043,-0.016 0.0051,-0.0222 5.3e-4,-0.003 0.0038,-0.0228 0.0036,-0.0246 -7.93e-4,-0.006 -0.0039,-0.0122 -0.0054,-0.0185 -0.003,-0.0128 -0.0064,-0.0324 -0.004,-0.0455 0.0013,-0.008 0.0057,-0.0149 0.0085,-0.0223 0.0069,-0.004 0.01291,-0.0107 0.02069,-0.0134 0.01101,-0.004 0.02286,-0.005 0.03449,-0.006 0.0352,-0.003 0.0532,2e-4 0.08733,0.0117 0.01545,0.005 0.03138,0.0102 0.04499,0.0191 0.01106,0.007 0.01836,0.0191 0.02756,0.0286 0,0 -3.311893,-2.1596 -3.311893,-2.1596 z" />
      <path
         style="fill:#ffffff;fill-opacity:1;stroke-width:0.264583"
         id="path9849"
         d="m 59.617439,188.1118 c 0.0094,0.0138 0.01278,0.0298 0.01511,0.046 7.94e-4,0.006 5.3e-4,0.0122 0.0021,0.018 0.0064,0.0208 0.0097,0.005 0.0052,0.0192 -0.01537,0.007 -0.0114,0.007 -0.02975,0.009 -0.0056,5.3e-4 -0.01135,0.001 -0.01691,5.3e-4 -0.0089,-0.001 -0.01648,-0.008 -0.02535,-0.009 -0.0034,-5.3e-4 -0.0069,1.9e-4 -0.0104,2.6e-4 -0.0042,0.003 -0.0021,-0.0148 -0.007,-0.0136 -0.02215,0.005 -0.0011,0.0104 -0.0033,0.004 -0.0016,-0.004 -0.0039,0.007 -0.0019,-5.3e-4 -0.0013,7.9e-4 -0.0024,0.002 -0.0038,0.002 -2.64e-4,1.1e-4 -5.29e-4,-5.3e-4 -5.29e-4,-0.001 -9.8e-5,-5.3e-4 7.94e-4,-0.002 1.3e-4,-0.002 -0.0024,8e-4 -0.01106,0.008 -0.01175,0.009 -7.93e-4,5.3e-4 -0.0016,7.9e-4 -0.0024,0.001 -2.17e-4,-2.4e-4 -2.65e-4,-8e-4 -5.29e-4,-8e-4 -2.65e-4,-1e-5 -2.54e-4,5.3e-4 -5.29e-4,8e-4 -0.0021,0.002 -0.0038,0.006 -0.0068,0.007 -0.0013,5.3e-4 -0.0011,-0.003 -0.0021,-0.003 -0.0013,-8e-4 -0.0031,1.3e-4 -0.0047,-3e-5 -7.94e-4,-7e-5 -0.0013,-5.3e-4 -0.0021,-5.3e-4 -0.0019,10e-4 -0.0047,0.006 -0.0059,0.004 -0.0019,-0.004 0.0069,-0.0141 0.0083,-0.0163 1.01e-4,-1.7e-4 -2.46e-4,-2.7e-4 -1.93e-4,-5.3e-4 7.94e-4,-0.002 0.0024,-0.005 0.0024,-0.007 -3.2e-5,-8e-4 -0.0019,1.2e-4 -0.0026,1.9e-4 -0.0039,0.003 -0.0052,0.006 -0.0095,0.002 -0.0013,-0.001 -0.0013,-0.005 -0.0031,-0.005 -0.0019,-5.3e-4 -0.0035,0.002 -0.0054,0.002 -0.01217,-7.9e-4 0.01259,-0.0132 -0.0118,0.003 -0.0067,-0.006 -0.01815,0.0155 -0.02064,0.009 -7.94e-4,-0.002 0.0034,-0.006 0.0013,-0.007 -0.01127,-0.006 -0.0044,0.0109 -0.0078,0.001 -0.004,0.005 -0.0076,0.01 -0.01217,0.0138 -0.0011,0.001 7.93e-4,-0.003 0.0013,-0.004 0.0029,-0.005 0.01188,-0.009 0.0093,-0.0147 -0.0024,-0.005 -0.0064,0.009 -0.01016,0.013 -0.0013,10e-4 0.0019,-0.003 0.0028,-0.005 0.0027,-0.004 0.0055,-0.008 0.0083,-0.0125 -0.0057,0.008 -0.01122,0.0158 -0.01699,0.0236 -5.29e-4,5.2e-4 -0.0016,0.002 -0.0016,0.002 -6.9e-5,-0.002 0.0024,-0.006 0.0016,-0.004 -0.0034,0.005 -0.006,0.0108 -0.0093,0.016 -0.01423,0.0227 -0.01011,0.0176 -0.02021,0.029 0.0081,-0.0175 0.01934,-0.0334 0.02947,-0.0497 0.0032,-0.005 0.0081,-0.01 0.0096,-0.0157 7.94e-4,-0.004 -0.0048,0.006 -0.0077,0.008 -5.29e-4,5.3e-4 -5e-6,-10e-4 -8e-6,-0.002 0.0016,-0.003 0.0032,-0.005 0.0048,-0.008 0,0 3.271575,2.26648 3.271575,2.26648 v 0 c 0.0026,-0.003 0.0051,-0.006 0.0076,-0.009 7.94e-4,-10e-4 0.0033,-0.004 0.0027,-0.003 -0.0013,0.003 -0.0068,0.009 -0.0049,0.007 0.0044,-0.005 0.0085,-0.0109 0.01265,-0.0165 0.01315,-0.0175 0.02609,-0.0353 0.03771,-0.0539 -0.0047,0.008 -0.01275,0.021 -0.01495,0.0251 -0.0024,0.005 -0.0051,0.009 -0.0064,0.0145 -5.3e-4,0.002 0.0024,-0.004 0.004,-0.006 2.28e-4,-2.3e-4 5.29e-4,2.2e-4 0.0011,2.7e-4 -0.0048,0.007 -0.0096,0.015 -0.01445,0.0225 0.0037,-0.004 0.0073,-0.009 0.01101,-0.0133 0.0016,-0.002 0.0063,-0.008 0.0052,-0.006 -0.0019,0.004 -0.01143,0.0151 -0.0078,0.012 2.65e-4,-2.6e-4 0.03222,-0.0425 0.0059,-0.008 5.29e-4,-10e-4 0.003,-0.003 0.0019,-0.004 -0.0011,-0.001 -0.0038,0.004 -0.0033,0.003 0.0011,-0.003 0.0038,-0.005 0.0054,-0.008 2.64e-4,-5.3e-4 7.93e-4,-0.002 5.29e-4,-0.002 -0.0028,0.002 -0.0048,0.006 -0.0075,0.008 -7.94e-4,8e-4 0.0013,-0.002 0.0019,-0.003 -5.3e-4,0.001 -0.003,0.004 -0.0019,0.003 0.0016,-0.001 0.0021,-0.004 0.0038,-0.005 5.29e-4,-5.3e-4 0.0016,2.6e-4 0.0021,-2.5e-4 0.0019,-0.002 0.0056,-0.0107 0.009,-0.0125 0.0011,-5.3e-4 0.0026,2.7e-4 0.0038,5.3e-4 0.01455,-0.007 -0.0034,0.002 0.01733,-0.013 0.0024,-0.002 0.0056,-0.002 0.0081,-0.004 0.01561,-0.011 0.01056,-0.009 0.02275,-0.0233 1.8e-4,-2.1e-4 5.29e-4,1.9e-4 7.94e-4,2.7e-4 0.0016,-0.002 0.0035,-0.003 0.0049,-0.005 0.0053,-0.007 -0.0016,-0.004 0.0075,-0.0122 5.3e-4,-5.3e-4 1.3e-4,0.002 7.94e-4,0.002 0.0042,-0.001 0.01087,-0.007 0.01402,-0.009 0.0016,-0.001 0.0028,-0.003 0.0045,-0.004 2.65e-4,-1.8e-4 -1.21e-4,7.9e-4 -1.82e-4,0.001 7.94e-4,-5.2e-4 0.0019,-0.001 0.0026,-0.002 0.0059,-0.005 0.0113,-0.01 0.01706,-0.0148 0.01953,-0.0182 -7.93e-4,5.3e-4 0.01151,-0.0104 0.0029,-0.003 0.0052,-0.006 0.0085,-0.008 5.3e-4,-2.6e-4 2.65e-4,0.003 5.3e-4,0.002 0.0016,-0.004 0.0053,-0.0221 0.0056,-0.0239 -7.94e-4,-0.002 -0.0021,-0.005 -0.0026,-0.007 -0.0011,-0.004 -0.0042,-0.0263 -0.0047,-0.0285 -0.0019,-0.009 -0.0057,-0.0172 -0.004,-0.0267 7.93e-4,-0.004 0.0035,-0.008 0.0052,-0.0119 0.0057,-0.004 0.01058,-0.01 0.01701,-0.0125 0.02339,-0.0105 0.02061,-0.005 0.04099,-0.004 0.0047,2.6e-4 0.0095,-0.001 0.01402,-2.2e-4 0.0021,5.3e-4 0.02853,0.0147 0.02989,0.0154 0,0 -3.375329,-2.07375 -3.375329,-2.07375 z" />
      <path
         style="fill:#ffffff;fill-opacity:1;stroke-width:0.264583"
         id="path9851"
         d="m 59.271558,187.5198 c 0.01245,0.009 0.02655,0.0166 0.03321,0.0317 0.0071,0.0159 0.0016,0.0328 -0.01387,0.041 -0.004,0.002 -0.0089,0.002 -0.01338,0.002 -0.01701,-2.6e-4 -0.01516,-0.002 -0.03105,0.003 -0.0034,0.001 -0.0067,0.002 -0.01,0.004 -8.73e-4,5.3e-4 -0.0019,8e-4 -0.0024,0.002 -0.01092,0.0234 0.0056,-0.002 -0.01183,0.0222 -0.01093,0.008 -0.01677,0.0114 -0.02467,0.0235 -0.004,0.006 -0.0069,0.013 -0.0099,0.0197 -0.0036,0.008 -0.007,0.0163 -0.01,0.0247 -0.004,0.0114 -0.0094,0.0225 -0.01084,0.0345 -0.002,0.0164 5.02e-4,0.033 7.4e-4,0.0495 0.0015,0.013 0.003,0.0261 0.0044,0.0391 0.0027,0.0122 0.0066,0.0242 0.0081,0.0366 0.0011,0.009 0.0019,0.0182 -5.83e-4,0.0267 -0.0041,0.0141 -0.01748,0.0211 -0.02981,0.0255 -0.0063,0.002 -0.01314,0.003 -0.01971,0.005 -0.0097,10e-4 -0.02155,0.006 -0.03007,-0.003 -0.0026,-0.003 -0.0045,-0.007 -0.0036,-0.0103 0.0024,-0.01 0.0078,-0.0187 0.01298,-0.0274 0.01386,-0.0234 0.0139,-0.0222 0.02853,-0.0352 0.005,-2.7e-4 0.02247,-0.002 0.02633,1.6e-4 0.0069,0.003 0.01385,0.008 0.01788,0.014 0.0093,0.0148 0.0096,0.0312 -0.0025,0.0442 -0.0049,0.005 -0.01247,0.007 -0.0187,0.0104 -0.02,0.0102 -0.04196,0.015 -0.06372,0.0197 -0.0059,0.001 -0.01183,0.003 -0.01787,0.004 -0.0036,2.7e-4 -0.0073,-5.2e-4 -0.01089,-7.9e-4 -0.0031,-1.4e-4 -0.0062,-1.2e-4 -0.0093,-1.8e-4 -0.0065,-0.002 -0.01518,-0.004 -0.0208,0.002 -0.0029,0.003 -0.0044,0.007 -0.0073,0.01 -0.005,0.005 -0.01027,0.006 -0.01654,0.009 -0.002,-4e-5 -0.0042,-0.001 -0.006,-1.3e-4 -0.0044,0.002 -0.0077,0.006 -0.01167,0.009 -0.0037,0.003 -0.0087,0.006 -0.01325,0.008 -9.53e-4,2.7e-4 -0.0022,-3e-5 -0.003,5.3e-4 -0.003,0.002 -0.0054,0.005 -0.0081,0.008 -0.0014,0.001 -0.0033,0.002 -0.0042,0.004 -3.7e-4,8e-4 0.0023,-0.001 0.0023,-2.5e-4 -6.3e-5,0.003 -0.0016,0.006 -0.0025,0.008 -3.7e-4,0.001 -7.41e-4,0.002 -0.0011,0.003 -2.91e-4,1.9e-4 -7.14e-4,2.6e-4 -8.73e-4,5.2e-4 -0.0015,0.003 -0.0026,0.005 -0.004,0.008 -6.35e-4,7.9e-4 -0.0014,0.002 -0.0019,0.002 -0.0078,0.0136 1.2e-4,0.004 -0.01259,0.0198 -0.0011,0.001 -0.0042,0.005 -0.0037,0.004 0.005,-0.0147 0.0039,-0.0131 0.01085,-0.008 0.0016,-1e-5 0.0036,-0.001 0.0049,-5e-5 0.0022,0.002 -0.0054,0.006 -0.0048,0.004 0.0061,-0.011 0.02169,-0.0126 0.03277,-0.0102 0.0043,0.001 0.0051,0.007 0.0076,0.0108 -0.0011,0.004 -10e-5,0.01 -0.0032,0.0134 -0.0092,0.01 -0.02392,0.008 -0.03533,0.008 -0.007,5.3e-4 -0.01397,5.3e-4 -0.02087,0.002 -0.01667,0.003 -0.01945,0.005 -0.03441,0.0111 -0.0042,0.002 -0.0079,0.006 -0.01247,0.006 -0.0022,2.6e-4 -0.0036,-0.004 -0.0058,-0.004 -0.0041,7.9e-4 -0.0065,0.006 -0.01066,0.007 -0.0022,4e-5 6.62e-4,-0.006 -0.0015,-0.006 -0.0033,-1.9e-4 -0.0067,0.009 -0.0079,0.006 -0.0017,-0.004 0.0033,-0.009 0.005,-0.0131 -0.0022,0.002 -0.0078,0.0102 -0.0068,0.007 0.0024,-0.007 0.0072,-0.0132 0.01105,-0.0196 0.01726,-0.0286 0.02685,-0.0377 0.0142,-0.0248 0,0 3.32797,2.17927 3.32797,2.17927 v 0 c -0.0067,0.0135 -0.0046,0.009 0.01995,-0.0278 0.01818,-0.0271 0.01842,-0.0268 0.0092,-0.0167 0.0026,-0.005 0.0052,-0.0104 0.0078,-0.0156 -0.0016,7.9e-4 -0.0043,0.004 -0.0049,0.003 -0.0011,-0.003 0.0038,-0.007 0.0024,-0.01 -0.0011,-0.002 -0.0048,0.004 -0.0062,0.002 -0.01066,-0.0119 0.0096,-0.008 -0.0058,-0.01 -0.0071,-8e-4 -0.0096,-2.6e-4 -0.01556,-0.005 -0.0065,-0.006 -0.01048,-0.0118 -0.0099,-0.0208 1.8e-4,-0.003 0.0013,-0.006 0.0037,-0.007 0.0056,-0.002 0.01201,-0.001 0.01802,-0.002 0.02868,-0.003 0.03849,-0.002 0.06777,-0.0171 0.02162,-0.0114 0.0098,-0.0106 0.01826,-0.0214 0.0016,-0.002 0.0039,-0.004 0.006,-0.006 0.0038,-0.003 0.0079,-0.005 0.01177,-0.008 0.01556,-0.006 0.01011,-0.001 0.02085,-0.0209 5.29e-4,-8e-4 0.0011,-0.003 2.12e-4,-0.003 -0.0019,0.001 -0.0033,0.003 -0.0044,0.005 -2.65e-4,5.3e-4 1.11e-4,0.002 5.29e-4,0.002 0.0013,-0.001 0.0019,-0.003 0.0028,-0.004 0.0026,0.007 0.0031,-0.006 0.0078,-0.007 0.0011,-1.2e-4 7.94e-4,0.003 0.0019,0.003 0.0087,-0.003 0.0077,-0.004 0.0056,-0.006 -0.0013,7.9e-4 -0.0029,0.004 -0.0042,0.003 -0.0013,-0.001 0.0013,-0.003 0.0016,-0.005 1.51e-4,-0.001 2.64e-4,-0.002 -2.65e-4,-0.003 -5.29e-4,-7.9e-4 -0.0019,-10e-4 -0.0029,-7.9e-4 -0.0019,2.2e-4 -0.0044,0.003 -0.0056,0.002 -0.0016,-0.002 7.94e-4,-0.005 0.0013,-0.008 -2.4e-5,-7.9e-4 -5.29e-4,-0.008 5.29e-4,-0.009 5.29e-4,-5.3e-4 0.0019,5.3e-4 0.0024,3e-5 0.0076,-0.007 0.0088,-0.0187 0.0096,-0.0283 0.0011,-0.005 0.0046,-0.0226 0.0042,-0.0272 -7.94e-4,-0.009 -0.0074,-0.0171 -0.0095,-0.0255 -0.0024,-0.01 -0.0011,-0.0199 -7.94e-4,-0.0295 0.0019,-0.005 0.0019,-0.011 0.0056,-0.0146 0.01233,-0.0119 0.0354,-0.005 0.04833,-0.006 0.01283,-8e-4 0.02588,-0.002 0.03821,-0.006 0.01447,-0.004 0.03705,-0.0196 0.05034,-0.028 0.0182,-0.0212 0.02641,-0.0292 0.04147,-0.057 0.0066,-0.0121 0.01304,-0.0246 0.01611,-0.038 0.0033,-0.0143 -0.0053,-0.0312 -0.01363,-0.0417 -0.0052,-0.006 -0.01199,-0.0114 -0.01799,-0.0172 -0.01323,-0.014 -0.02566,-0.026 -0.03631,-0.0422 -0.0041,-0.006 -0.0084,-0.0127 -0.01029,-0.0199 -0.003,-0.0117 0.0026,-0.0165 0.01349,-0.0142 0.0037,7.9e-4 0.0063,0.004 0.0094,0.006 0.0024,0.007 0.0064,0.0142 0.0075,0.0218 7.94e-4,0.005 -0.0019,0.009 -0.0021,0.0137 -5.29e-4,0.005 2.4e-5,0.006 0.0016,0.0102 1.38e-4,2.6e-4 -2.25e-4,-8e-4 -2.65e-4,-0.001 6.1e-5,-0.002 1.22e-4,-0.004 1.83e-4,-0.005 0.0019,-0.001 0.0036,-0.003 0.0058,-0.004 0.0033,-0.002 0.0075,-0.002 0.01048,-0.004 0.0081,-0.006 0.01288,-0.0126 0.01355,-0.0225 2.64e-4,-0.004 -7.94e-4,-0.008 -0.0011,-0.0119 -5.29e-4,-0.006 -7.94e-4,-0.0117 -0.0013,-0.0176 0.0021,-0.009 0.0029,-0.0214 0.0099,-0.029 0.01159,-0.0125 0.0182,-0.0122 0.03493,-0.0146 0.03004,-0.004 0.02777,-0.003 0.05985,-0.002 0,0 -3.380545,-1.99811 -3.380545,-1.99811 z" />
      <path
         style="fill:#ffffff;fill-opacity:1;stroke-width:0.264583"
         id="path9853"
         d="m 59.906022,188.03517 c 0.02643,0.0253 0.0085,0.005 0.02801,0.0402 0.0029,0.005 0.01506,0.0143 0.0067,0.0222 -0.0054,0.005 -0.01995,0.008 -0.0263,0.009 -0.01429,0.003 -0.01677,0.002 -0.02812,0.01 -0.01048,0.007 -0.0067,0.009 -0.02056,0.0124 -0.004,10e-4 -0.0082,1.7e-4 -0.01225,5.2e-4 -0.0051,5.3e-4 -0.01021,0.001 -0.01532,0.002 -0.0034,-8e-4 -0.0069,-0.001 -0.01027,-0.002 -0.0016,-5.3e-4 0.0028,-0.006 0.0062,-0.008 0.0062,-0.004 0.01704,-0.005 0.0149,-0.0109 -0.0011,-0.003 -0.0046,-0.004 -0.0069,-0.007 -0.01196,-0.009 -0.0245,-0.0177 -0.03682,-0.0265 -0.0065,-0.005 -0.01902,-0.0163 -0.02913,-0.0122 -0.0068,0.003 -0.0105,0.0103 -0.01574,0.0155 -0.01503,0.013 -0.01461,0.035 -0.02955,0.0477 -0.0024,0.002 -0.0055,0.003 -0.0082,0.004 0,0 3.224596,2.15837 3.224596,2.15837 v 0 c 0.0026,-8e-4 0.0051,-0.002 0.0078,-0.002 0.0029,1.3e-4 0.0061,7.9e-4 0.0081,0.003 0.0098,0.01 0.0069,0.0163 0.0067,0.029 -0.0011,0.004 -7.94e-4,0.01 -0.0035,0.0132 -0.0011,0.001 -0.0033,-0.002 -0.0035,-0.004 -5.29e-4,-0.004 7.94e-4,-0.007 0.0019,-0.0107 0.0013,-0.004 0.0032,-0.008 0.0052,-0.0113 0.0077,-0.0142 0.0075,-0.0121 0.01963,-0.0244 0.0057,-0.004 0.01109,-0.009 0.01725,-0.0123 0.03812,-0.0213 0.01736,-0.004 0.06055,-0.0261 0.0084,-0.004 0.01572,-0.0103 0.02347,-0.0156 0.0048,-0.003 0.01061,-0.006 0.01426,-0.0102 0.0024,-0.003 0.0021,-0.008 0.0032,-0.0115 -1.72e-4,-0.003 -0.0011,-0.006 -5.29e-4,-0.009 0.0013,-0.006 0.0059,-0.0152 0.01072,-0.0195 0.0067,-0.006 0.01363,-0.006 0.01818,-0.0148 0.0016,-0.003 0.0013,-0.007 0.0021,-0.0103 0.0047,-0.008 0.0087,-0.0173 0.01714,-0.0228 0.01371,-0.009 0.03397,-0.0137 0.04993,-0.0111 0.01879,0.003 0.0337,0.0198 0.05384,0.0189 0,0 -3.35362,-2.1034 -3.35362,-2.1034 z" />
      <path
         style="fill:#ffffff;fill-opacity:1;stroke-width:0.264583"
         id="path9855"
         d="m 59.756067,187.98763 c 0.02664,0.0225 0.05406,0.039 0.0663,0.074 0.0033,0.009 0.0039,0.0213 -0.0016,0.0295 -0.0053,0.008 -0.01691,0.01 -0.02617,0.0123 -0.03108,0.009 -0.04099,0.004 -0.07348,-5.2e-4 -0.0794,-0.0155 -0.0047,2.6e-4 -0.078,-0.0188 -0.03267,-0.009 -0.02604,-0.002 -0.05073,-0.0169 -0.0036,-0.002 -0.0086,-0.003 -0.01005,-0.007 -0.0013,-0.004 0.0019,-0.008 0.0027,-0.0117 0.0011,-0.002 0.01064,-0.0115 0.0037,-0.0153 -0.0036,-0.002 -0.0083,-7.9e-4 -0.01228,-0.002 -0.0055,-10e-4 -0.01085,-0.003 -0.0163,-0.005 0,0 3.184382,2.26133 3.184382,2.26133 v 0 c -7.94e-4,-0.002 -0.0031,-0.004 -0.0028,-0.006 2.65e-4,-0.002 0.0028,-0.002 0.0044,-0.003 0.006,-0.003 0.03629,-0.0184 0.03928,-0.0199 0.01019,-0.009 0.02172,-0.0134 0.02305,-0.0279 0.0016,-0.0184 -0.0047,-0.0164 -0.0131,-0.0318 -0.0085,-0.0159 -0.01066,-0.0264 -0.01561,-0.0435 7.94e-4,-0.007 -7.93e-4,-0.0155 0.0024,-0.0222 0.0031,-0.006 0.0092,-0.0111 0.01537,-0.0145 0.02659,-0.0147 0.04555,-0.007 0.07544,0.002 0.0082,0.002 0.129244,0.0452 0.137568,0.0482 0,0 -3.254735,-2.18074 -3.254735,-2.18074 z" />
      <path
         style="fill:#ffffff;fill-opacity:1;stroke-width:0.264583"
         id="path9857"
         d="m 59.557069,187.92876 c 0.0092,0.014 0.01564,0.0168 0.01185,0.0333 -5.29e-4,0.002 -0.0026,0.003 -0.0043,0.003 -0.005,0.002 -0.02106,0.004 -0.02638,0.005 -0.0055,8e-4 -0.01095,0.002 -0.0164,0.003 -0.0064,0.005 -0.0141,0.011 -0.0218,0.0141 -0.0019,8e-4 -0.0043,5.3e-4 -0.0062,0.002 -0.0052,0.003 -0.0097,0.006 -0.01471,0.009 -0.0036,0.002 -0.02267,0.0111 -0.02601,0.0127 -0.01198,-0.007 -0.01116,-0.008 -0.02177,0.006 -5.29e-4,5.2e-4 0.0021,-2.3e-4 0.0021,5.2e-4 -3.2e-5,0.002 -0.0013,0.004 -0.0021,0.006 -0.0013,0.003 -0.0031,0.006 -0.0046,0.008 5.29e-4,0.005 5.29e-4,0.003 -0.0024,0.0115 -0.0031,0.0102 -0.0051,0.0125 -0.01365,0.0219 -0.0029,0.003 -0.0057,0.007 -0.0097,0.008 -0.0038,0.001 -0.0081,-1.3e-4 -0.01225,-1.9e-4 -0.01326,-0.002 -0.02458,0.006 -0.03714,0.008 -0.01349,0.002 -0.01117,-0.007 -0.02397,0.003 -0.0058,0.005 -0.0098,0.011 -0.0149,0.0163 -0.0014,0.001 -0.003,0.003 -0.0045,0.004 -0.003,0.005 -0.0059,0.009 -0.0089,0.0135 -0.002,0.003 -0.0043,0.005 -0.0061,0.008 -0.0028,0.004 -0.005,0.009 -0.0077,0.013 -0.0014,0.002 -0.003,0.004 -0.0047,0.006 -8.46e-4,0.001 -0.0025,0.001 -0.003,0.002 -4.5e-4,0.001 0.0018,-0.001 0.0027,-0.002 -0.0022,0.005 -0.0048,0.017 -0.01309,0.0159 -0.0013,-1.7e-4 -0.0029,-0.001 -0.0041,-0.002 -0.0027,0.003 -0.0044,0.007 -0.0082,0.008 -0.0016,2.5e-4 0.0013,-0.0128 0.0011,-0.0134 -2.44e-4,-8e-4 -0.0013,10e-4 -0.0019,0.002 0.0055,-0.007 0.01155,-0.0142 0.01748,-0.0212 9.26e-4,-0.001 0.0017,-0.002 0.0028,-0.003 1.73e-4,-1.5e-4 6.08e-4,2.7e-4 4.49e-4,5.3e-4 -0.0016,0.002 -0.0035,0.003 -0.0052,0.005 -0.0196,0.0314 3.7e-4,7.9e-4 -0.0118,0.0171 -0.0023,0.003 -0.0041,0.007 -0.0065,0.01 -9.79e-4,0.001 -0.0024,0.002 -0.0036,0.003 -0.0035,0.003 -0.0067,0.006 -0.01074,0.008 -0.0025,0.001 -0.0055,7.9e-4 -0.0083,0.001 -0.002,-1.1e-4 -0.0045,-0.002 -0.006,-2.7e-4 -0.0053,0.005 -0.0086,0.0115 -0.01281,0.0174 -0.0046,0.006 -0.01729,0.0258 -0.02216,0.0309 -6.61e-4,8e-4 -0.0021,-5.3e-4 -0.0026,-0.001 -5.03e-4,-7.9e-4 3e-5,-0.002 4.4e-5,-0.003 0.0016,-0.006 0.0062,-0.011 0.0076,-0.0171 2.91e-4,-0.001 -0.0042,0.003 -0.0037,0.001 0.0053,-0.0118 0.01565,-0.0275 0.02432,-0.038 0.0014,-0.002 0.0032,-0.003 0.0048,-0.004 -0.01102,0.0194 0.0056,-0.0243 -0.01138,0.0139 -2.91e-4,7.9e-4 0.0012,0.001 0.0013,0.002 3.97e-4,0.003 9.6e-5,0.005 1.43e-4,0.008 0,0 3.288568,2.14686 3.288568,2.14686 v 0 c 0.0031,0.001 0.0061,0.003 0.0094,0.003 0.003,1.1e-4 0.0065,-0.004 0.0088,-0.002 0.01135,0.009 -0.0159,0.0129 0.0047,0.002 0.0011,-5.3e-4 0.0016,10e-4 0.0024,0.002 0.0035,-0.002 0.0074,-0.004 0.01056,-0.007 0.01423,-0.0133 0.02262,-0.0265 0.03296,-0.0433 2.65e-4,-5.3e-4 -5.29e-4,-0.001 -2.19e-4,-0.002 0.0057,-0.011 0.0092,-0.0158 0.01516,-0.0248 0.0013,-0.002 0.0027,-0.005 0.0037,-0.007 7.93e-4,-0.002 0.0027,-0.007 0.0011,-0.006 -0.005,0.004 -0.01,0.0148 -0.01331,0.0205 -0.0024,0.004 -0.0041,0.009 -0.0076,0.0125 -0.0011,0.001 -1.49e-4,-0.003 -2.23e-4,-0.005 -5.29e-4,-0.001 -2.64e-4,-0.003 -0.0016,-0.004 -0.0011,-5.3e-4 -0.0038,0.002 -0.0029,0.002 0.01156,-0.008 7.94e-4,-0.003 0.0075,-2.1e-4 0.0069,0.003 0.0036,-0.008 0.005,0.006 0.0082,-5.3e-4 0.01524,-0.007 0.02125,-0.012 0.01238,-0.0102 0.02371,-0.0217 0.03434,-0.0337 0.0067,-0.005 0.01132,-0.0125 0.01476,-0.0203 0.0016,-0.004 0.004,-0.007 0.004,-0.0109 -2e-6,-0.002 -0.0026,0.002 -0.004,0.003 0.0035,-0.007 0.0026,-0.005 0.0058,-0.0129 0.0011,-0.002 0.0036,-0.009 0.005,-0.0114 5.29e-4,-0.001 0.0011,-0.003 0.0024,-0.003 0.0011,5e-5 0.0011,0.002 0.0016,0.003 0.0027,-0.003 0.0057,-0.005 0.0082,-0.008 7.94e-4,-0.001 0.0011,-0.003 0.0019,-0.004 5.3e-5,-9e-5 2.65e-4,-2.6e-4 2.65e-4,-1.6e-4 -0.0019,0.006 -0.0044,0.011 -0.0066,0.0164 5.3e-4,-5.3e-4 0.0019,-0.002 0.0013,-0.001 -0.0029,0.004 -0.0051,0.008 -0.0088,0.011 -0.0052,0.004 -0.008,-0.008 -0.008,-0.009 -0.01799,-0.0146 -0.0013,0.0107 -0.0123,-0.008 0.0016,-0.003 0.0019,-0.007 0.0044,-0.01 0.0074,-0.007 0.0088,8e-5 0.01558,8e-4 0.0048,5.2e-4 0.0096,-0.001 0.01445,-0.001 0.02265,2.6e-4 0.0042,0.005 0.02733,-0.004 0.0049,7.9e-4 0.01228,0.003 0.01725,0.002 0.0044,-0.001 0.008,-0.006 0.01241,-0.005 0.0021,2.6e-4 -0.0039,0.006 -0.0016,0.006 0.0056,5.3e-4 0.0036,-0.0158 0.008,-0.0149 -0.0011,1.9e-4 -0.0024,-2.6e-4 -0.0028,5.3e-4 -5.29e-4,10e-4 -0.0024,0.003 -0.0013,0.003 0.0016,-2.6e-4 0.01164,-0.007 0.01498,-0.006 0.0013,5.3e-4 5.29e-4,0.003 5.29e-4,0.004 -5.29e-4,-8e-4 -0.0016,-0.002 -0.0013,-0.002 5.29e-4,-0.001 0.0083,-0.006 0.0094,-0.007 0.005,-0.001 0.01024,-0.004 0.01527,-0.003 0.01635,0.003 0.02739,0.0217 0.04425,0.0235 0,0 -3.253459,-2.23429 -3.253459,-2.23429 z" />
    </g>
    <path
       style="display:inline;image-rendering:auto;fill:#f9c019;fill-opacity:1"
       d="M 136.81484,280.40685 C 134.43527,266.41936 130.85428,259.87523 118.56443,247.05489 101.78699,229.55324 96.883399,222.28351 91.021558,206.22168 88.303009,198.77268 86.077357,188 87.25693,188 c 48.23742,19.49288 -0.277905,9.395 -0.861763,-0.43601 -0.173191,-2.74853 -0.250419,-21.52204 0.08513,-23.31063 l 3.537813,-15.80529 3.67621,17.55261 c 0.933853,4.45882 23.57198,4.4765 7.26772,4.99932 -11.563072,0.37078 -18.018706,-29.57534 -3.552231,-15.64066 3.743981,-3.16815 9.068671,9.26098 5.906771,6.21215 C 92.306581,169.6582 97.925,157.02597 96,155.96823 87.650537,151.38036 87.68123,151.68613 94.246473,138.5 100.46926,126.00168 106.22462,118.01785 115.20902,109.42076 131.64583,93.692541 148.88628,84.954571 173.5,79.877176 c 14.85651,-3.064646 35.5182,-2.297079 51.72704,1.921623 20.64489,5.373277 37.31087,14.59063 50.85343,28.125201 12.82729,12.81971 21.93962,28.41074 26.34512,45.076 6.22178,24.51528 -3.69086,54.36823 -11.1196,66.80572 l -5.09302,8.16397 c -7.91459,11.09082 -27.27972,15.72829 -12.7021,-7.25343 15.41739,-16.87178 -9.56075,10.30353 -0.71748,11.06881 l 21.23586,-18.0425 -12.14321,20.54218 c -1.84645,3.12356 -13.38213,13.84188 -21.79672,19.43744 -7.32468,4.87081 -14.83613,8.5381 -26.12468,12.75478 -10.41105,3.8889 -13.75522,4.55794 -37.96464,7.59523 -27.53022,3.45392 -39.95501,5.8107 -45.45788,8.62262 C 142.79529,288.65341 139.90173,290 139.14238,290 c -0.38255,0 -1.42994,-4.31692 -2.32754,-9.59315 z"
       id="path471"
       inkscape:label="face"
       sodipodi:nodetypes="sssccscsscccsssssccccccsssssss"
       transform="matrix(0.26458333,0,0,0.26458333,12.315389,75.581875)" />
    <path
       style="display:inline;image-rendering:auto;fill:#6a647a;fill-opacity:1"
       d="m 216,403.92683 c -18.42498,-0.90848 -47.89542,-4.31246 -57,-6.58379 -15.38901,-3.83911 -24.58229,-11.06615 -31.5,-24.76281 -3.74166,-7.40827 -3.99984,-8.47394 -3.99746,-16.5 0.002,-7.8182 0.32911,-9.26456 3.6795,-16.28556 7.36019,-15.42383 30.10609,-33.39357 48.56852,-38.37015 3.16219,-0.85237 11.82444,-1.95251 19.24944,-2.44475 31.51281,-2.08913 61.74029,-11.91931 82.0881,-26.69559 C 285.7037,266.02766 299,254.78159 299,253.75099 c 0,-1.04028 7.61865,-8.07806 11.5,-14.50851 l 5.28054,-8.74857 c 82.86009,-5.22946 79.58821,11.99963 0.0914,1.60983 -1.05055,-1.05055 6.17231,-22.7992 8.06211,-24.50945 48.94578,-15.74172 75.25614,-3.01153 -1.03879,2.00659 l 4.19066,-18.82469 c 1.49382,-6.71033 1.03656,-22.38522 -0.56762,-33.0277 C 318.84927,106.87037 274.21128,65.325702 217.55469,56.335811 204.12119,54.204272 177.20028,54.978059 164.87043,57.850112 138.24324,64.052518 116.59847,75.599386 98.140086,93.448855 87.773274,103.47368 78.303846,116.89419 72.527863,129.36942 l -7.576847,16.36481 c -8.725762,-6.33458 -12.191725,-8.1268 -18.886089,-15.25306 L 56.819334,109.48134 C 67.096872,89.412683 72.514094,85.023288 81.757646,74 89.458615,64.816301 92.365161,61.947826 104.33693,51.71646 c 5.09973,-4.358354 5.82951,-5.513864 8.21025,-13 C 113.98433,34.197407 115.41226,27.125 115.72037,23 116.3804,14.163153 118.86623,8.2026512 123.6394,4.0117482 128.20791,5.4378615e-4 131.5559,0.08640763 149.84516,4.683831 167.92088,9.2275787 180.51725,9.6171329 199.5,6.2194528 220.10932,2.5306367 233.49174,1.7001874 263,2.2789436 c 21.92318,0.4299873 29.76109,0.9621925 38.64974,2.6243722 20.18742,3.7750542 45.17597,11.9441192 61.1603,19.9940532 11.01718,5.54841 14.56535,6.28818 34.18996,7.128382 20.35345,0.871407 27.64521,2.409362 31.58655,6.662136 3.92863,4.23906 6.45696,12.752668 7.50332,25.265813 2.21969,26.544487 1.48531,24.261992 15.93702,49.53332 17.94069,31.37243 29.8349,67.25161 38.95642,117.51298 3.40924,18.78563 7.14634,55.25327 7.17949,70.05942 0.0276,12.32128 -0.96233,14.47645 -11.92785,25.96844 -32.7821,34.35602 -75.61299,55.18791 -141.74288,68.94023 -38.7053,8.04913 -77.68806,10.4637 -128.49207,7.95874 z M 72.94428,371.41903 C 71.049926,369.9995 66.455069,367.2901 62.733488,365.39814 45.672233,356.72465 31.384742,346.48783 17.78844,333.19556 l -9.7115599,-9.4944 0.4930184,-18.10058 c 1.2440872,-45.67517 8.5581145,-92.59562 20.6279905,-132.33129 3.028691,-9.97086 6.053813,-20.34878 8.565408,-19.71841 26.098904,10.22717 24.338265,-5.81907 25.24774,33.48985 0.621958,5.83146 2.186247,14.66838 3.585286,19.56192 1.399038,4.89354 2.733531,10.17883 2.96554,11.74508 0.232009,1.56624 1.888003,5.13781 3.679986,7.9368 1.791983,2.799 5.512839,8.58246 8.268568,12.85215 12.547832,17.76162 32.930553,32.30225 35.481303,51.29804 1.43802,11.34197 -0.15058,16.95853 -8.4791,29.9781 -1.86147,2.90994 -4.83169,8.16998 -6.60049,11.68899 -1.76881,3.519 -4.589169,9.09819 -6.267475,12.39819 -1.678305,3.3 -3.160893,7.05051 -3.29464,8.33447 -0.486213,4.66763 -4.595945,15.30435 -7.031541,18.19889 -3.21501,3.82082 -7.607328,3.95772 -12.374194,0.38567 z m -38.081486,-214.5615 4.685341,-13.17794 c 1.849769,-5.20264 5.981968,-13.61452 6.799666,-13.41424 2.088529,0.51153 17.136677,7.19004 19.411647,9.13503 2.783598,0.96251 -2.757558,19.97698 -4.346877,30.46427 -8.762482,-4.27965 -17.7873,-8.72746 -26.549777,-13.00712 z"
       id="path467"
       inkscape:label="blanket"
       sodipodi:nodetypes="ssscssssssccccssssssccssssssssssssssssssssssscssccsssccsssssscssccc"
       transform="matrix(0.26458333,0,0,0.26458333,12.315389,75.581875)" />
    <path
       style="display:inline;image-rendering:auto;fill:#333333;fill-opacity:1"
       d="m 105.36468,385.33037 c -5.26986,-12.61254 -6.963726,-32.37076 -3.8164,-44.51667 4.52904,-17.47816 16.09422,-33.21777 34.69455,-47.21751 6.93425,-5.21913 9.80717,-6.65127 9.72163,-4.84619 -0.0196,0.4125 -3.40482,3.18779 -7.52282,6.16732 -15.68026,11.34525 -28.62497,27.61002 -33.49251,42.08268 -4.31482,12.82926 -3.65216,30.6249 1.67079,44.86906 2.74651,7.34963 2.70575,7.13094 1.32905,7.13094 -0.57806,0 -1.74099,-1.65133 -2.58429,-3.66963 z"
       id="path461"
       inkscape:label="sleeve_line"
       sodipodi:nodetypes="sssssssss"
       transform="matrix(0.26458333,0,0,0.26458333,12.315389,75.581875)" />
    <path
       style="display:inline;fill:#2b1100;fill-opacity:1;stroke-width:0.264583;image-rendering:auto"
       d="m 108.7363,150.1029 c -5.79863,-0.15897 -6.24891,-0.20656 -6.68073,-0.70608 -0.55639,-0.64364 -0.59593,-1.36022 -0.0979,-1.77359 0.40329,-0.3347 20.34275,-0.42811 27.54838,-0.12905 4.13037,0.17142 5.15938,0.44642 5.15938,1.37883 0,1.06334 -0.33089,1.10515 -8.74724,1.10515 -5.96361,0.35856 -11.92924,0.28753 -17.18193,0.12474 z m -2.46944,-6.38655 c -0.30096,-0.30095 -0.19384,-1.59734 0.15434,-1.86786 0.1819,-0.14134 1.50382,-0.3964 2.9376,-0.56681 1.43378,-0.17041 2.82494,-0.42654 3.09146,-0.56918 0.26652,-0.14264 1.21937,-0.25934 2.11744,-0.25934 0.89806,0 2.30488,-0.16259 3.12625,-0.36131 0.82136,-0.19872 2.44589,-0.37842 3.61006,-0.39934 1.16417,-0.0209 3.57777,-0.27505 5.36356,-0.56473 1.7858,-0.28969 3.83054,-0.52671 4.54388,-0.52671 0.71334,0 1.89943,-0.13906 2.63576,-0.30902 1.77191,-0.40901 2.74468,-0.0266 2.62156,1.03045 -0.0642,0.55096 -0.26727,0.75861 -0.87726,0.89694 -0.43656,0.099 -1.36101,0.31115 -2.05432,0.47144 -0.69331,0.1603 -1.96276,0.29144 -2.82099,0.29144 -0.85824,0 -2.49364,0.18474 -3.63423,0.41054 -1.14058,0.22579 -3.41738,0.50874 -5.05955,0.62877 -2.25304,0.16468 -3.11167,0.33219 -3.49884,0.68258 -0.42888,0.38812 -1.13306,0.47721 -4.29029,0.54275 -2.07746,0.0431 -4.19313,0.20608 -4.70149,0.3621 -1.02856,0.31568 -2.99203,0.38021 -3.26494,0.10729 z m -48.027932,-4.73597 c -0.757764,-0.61344 -2.032514,-0.76588 -2.727423,-1.11076 -0.04881,-0.11307 -1.219838,-0.7153 -2.602286,-1.33828 -1.382447,-0.62299 -2.811197,-1.3411 -3.175,-1.59582 -0.363802,-0.25471 -1.316302,-0.73954 -2.116666,-1.07739 -0.800365,-0.33786 -2.313034,-1.0836 -3.361488,-1.6572 -3.892447,-1.24806 -7.434232,-3.79758 -10.816566,-5.25021 -0.552253,-0.20996 -0.664833,-0.38855 -0.539559,-0.85592 0.08707,-0.32483 0.15993,-0.91802 0.161917,-1.3182 0.002,-0.40019 0.123706,-0.72761 0.270487,-0.72761 0.146781,0 0.633448,0.32742 1.081483,0.72761 0.959079,0.85664 -0.335418,0.42823 -0.335418,-0.003 0,-0.18081 2.343266,0.67244 2.625081,0.91538 0.254662,0.21953 0.820209,0.58225 1.256771,0.80603 0.436563,0.22378 1.482694,0.77554 2.324736,1.22614 0.842043,0.4506 1.615949,0.79561 1.719792,0.76668 0.103843,-0.0289 1.736618,0.69612 3.628389,1.61121 1.891771,0.91509 4.153958,1.98125 5.027083,2.36924 0.873125,0.388 2.420938,1.14975 3.439583,1.6928 1.018646,0.54305 2.62599,1.35458 3.571875,1.8034 5.160415,2.44864 5.48132,2.71146 4.503981,3.6888 -0.764153,0.76415 -1.437674,0.64902 -3.936772,-0.67297 z m -0.594748,-6.95333 c -0.931675,-0.7053 -2.059431,-1.47135 -2.506124,-1.70235 -0.446693,-0.23099 -0.966904,-0.60643 -1.156024,-0.8343 -1.093221,-0.596 -2.210366,-1.1905 -3.054501,-1.87696 -0.981415,-0.80445 -2.901554,-2.06488 -4.266976,-2.80096 -1.365422,-0.73608 -2.482585,-1.44609 -2.482585,-1.57781 0,-0.13172 -0.625079,-0.60305 -1.389063,-1.0474 -2.020684,-1.17527 -2.21958,-1.2982 -4.777512,-2.95286 -2.794768,-2.00879 -3.695448,-1.81729 -4.225709,-3.3875 -0.197529,-0.64514 0.282628,-1.5875 0.808867,-1.5875 0.268292,0 0.718613,0.21023 1.000714,0.46718 4.575245,3.03195 9.141319,6.11851 13.596352,8.78477 0.938497,0.57726 1.754842,1.00108 1.814102,0.94182 0.05926,-0.0592 0.338341,0.10709 0.620182,0.36967 0.281841,0.26257 1.13237,0.81163 1.890064,1.22012 0.757695,0.4085 1.913409,1.21074 2.568252,1.78277 0.654844,0.57203 1.607344,1.25949 2.116667,1.5277 0.509323,0.26821 1.380453,0.92581 1.935845,1.46134 l 1.009801,0.97369 -0.728573,0.76047 c -0.400716,0.41826 -0.807606,0.76047 -0.9042,0.76047 -0.09659,0 -0.937904,-0.57706 -1.869579,-1.28236 z"
       id="path473"
       inkscape:label="whiskers"
       sodipodi:nodetypes="cssssccssssssssssssssssssssccsssccssssssssssssssscssccsssccsccssssscssss"
       transform="translate(-20.485496,-12.483781)" />
    <path
       id="path3237"
       style="display:inline;fill:#333333;fill-opacity:1;stroke-width:0.264583;image-rendering:auto"
       inkscape:label="eyes_and_mouth"
       d="m 63.389235,124.9044 c -0.236913,-0.0124 -0.478345,0.13976 -0.731736,0.45269 -0.639919,0.79025 -0.617549,1.96073 0.06408,3.36878 0.645184,1.33278 1.634437,2.11371 3.058726,2.41433 1.099852,0.23213 2.542442,0.0579 3.417364,-0.4129 0.659841,-0.35509 2.761588,-2.59767 2.761588,-2.94659 0,-1.3903 -1.115428,-1.40059 -2.942973,-0.0274 -2.209919,1.6605 -3.277071,1.32525 -4.440555,-1.39475 -0.408665,-0.95536 -0.791634,-1.43353 -1.186493,-1.45417 z m 40.972175,4.72374 c -0.54889,-0.0599 -1.06081,0.43005 -1.63297,1.54771 -0.92253,1.80209 -1.33396,2.13372 -2.64945,2.13372 -1.572883,0 -2.057173,-0.31039 -3.149173,-2.01745 -0.72431,-1.1323 -1.05822,-1.43596 -1.5074,-1.37201 -0.86322,0.12291 -0.92867,2.07017 -0.12247,3.63854 0.74923,1.45757 1.71312,2.18056 3.17862,2.38487 2.870543,0.40019 5.455733,-0.82931 6.271453,-2.98225 0.44798,-1.18235 0.36051,-3.07797 -0.1509,-3.27422 -0.0802,-0.0308 -0.15929,-0.0504 -0.23771,-0.0589 z m -34.18861,7.12102 c -1.747578,0 -1.489654,3.16443 0.61857,7.58299 1.359635,2.84965 2.144072,3.6229 3.274734,3.22875 0.417222,-0.14545 1.792515,-1.20892 3.056144,-2.36316 1.263629,-1.15426 2.453279,-2.09858 2.643769,-2.09858 0.19049,0 1.01252,0.99076 1.82676,2.20193 0.81424,1.21118 1.90593,2.69947 2.42621,3.30729 0.52027,0.60783 1.1048,1.10536 1.29914,1.10536 0.52007,0 4.29448,-2.86564 6.43837,-4.88808 1.87411,-1.76794 2.38431,-2.73045 2.03295,-3.83749 -0.38573,-1.2153 -1.32191,-0.68405 -5.93711,3.36776 -1.03596,0.90949 -1.98577,1.65364 -2.11046,1.65364 -0.12469,0 -0.73343,-0.80368 -1.35289,-1.78594 -2.30236,-3.65078 -3.53549,-5.41364 -3.87883,-5.54539 -0.56476,-0.21672 -1.63851,0.62564 -4.205948,3.29902 l -2.401403,2.50062 -0.972034,-2.53886 c -0.534443,-1.3963 -0.971516,-2.82004 -0.971516,-3.16415 0,-0.762 -1.114467,-2.02571 -1.786456,-2.02571 z"
       sodipodi:nodetypes="ssssssssscsssssssscsssssscssssscscccss"
       transform="translate(-20.485496,-12.483781)" />
  </g>
  <metadata
     id="metadata10691">
    <rdf:RDF>
      <cc:Work
         rdf:about="">
        <cc:license
           rdf:resource="http://creativecommons.org/publicdomain/zero/1.0/" />
      </cc:Work>
      <cc:License
         rdf:about="http://creativecommons.org/publicdomain/zero/1.0/">
        <cc:permits
           rdf:resource="http://creativecommons.org/ns#Reproduction" />
        <cc:permits
           rdf:resource="http://creativecommons.org/ns#Distribution" />
        <cc:permits
           rdf:resource="http://creativecommons.org/ns#DerivativeWorks" />
      </cc:License>
    </rdf:RDF>
  </metadata>
</svg>
