<?xml version="1.0" encoding="UTF-8" standalone="no"?>
<!-- Created with Inkscape (http://www.inkscape.org/) -->

<svg
   width="800.0px"
   height="800.0px"
   viewBox="0 0 800.0 800.0"
   version="1.1"
   id="SVGRoot"
   sodipodi:docname="blobcat_banhammer.svg"
   inkscape:version="1.2 (dc2aedaf03, 2022-05-15)"
   xml:space="preserve"
   xmlns:inkscape="http://www.inkscape.org/namespaces/inkscape"
   xmlns:sodipodi="http://sodipodi.sourceforge.net/DTD/sodipodi-0.dtd"
   xmlns:xlink="http://www.w3.org/1999/xlink"
   xmlns="http://www.w3.org/2000/svg"
   xmlns:svg="http://www.w3.org/2000/svg"
   xmlns:rdf="http://www.w3.org/1999/02/22-rdf-syntax-ns#"
   xmlns:cc="http://creativecommons.org/ns#"
   xmlns:dc="http://purl.org/dc/elements/1.1/"><sodipodi:namedview
     id="namedview889"
     pagecolor="#505050"
     bordercolor="#eeeeee"
     borderopacity="1"
     inkscape:showpageshadow="0"
     inkscape:pageopacity="0"
     inkscape:pagecheckerboard="0"
     inkscape:deskcolor="#505050"
     showgrid="true"
     inkscape:current-layer="layer1"><inkscape:grid
       type="xygrid"
       id="grid1008"
       spacingx="5"
       spacingy="5"
       empspacing="10"
       color="#3fff00"
       opacity="0.1254902"
       empcolor="#ffff00"
       empopacity="0.25098039" /></sodipodi:namedview><title
     id="title1016">Blobcat with banhammer</title><defs
     id="defs1121"><linearGradient
       id="linearGradient15303"
       inkscape:swatch="solid"><stop
         style="stop-color:#000000;stop-opacity:1;"
         offset="0"
         id="stop15301" /></linearGradient><linearGradient
       id="symbols_colour"
       inkscape:swatch="solid"
       gradientTransform="translate(-13.10251,-10.076902)"><stop
         style="stop-color:#66cccc;stop-opacity:1;"
         offset="0"
         id="stop14689" /></linearGradient><linearGradient
       id="shaft_colour"
       inkscape:swatch="solid"><stop
         style="stop-color:#d0d4fe;stop-opacity:1;"
         offset="0"
         id="stop13975" /></linearGradient><linearGradient
       inkscape:collect="always"
       id="linearGradient1610"><stop
         style="stop-color:#620c5f;stop-opacity:1;"
         offset="0.1"
         id="stop1606" /><stop
         style="stop-color:#fc75e5;stop-opacity:1;"
         offset="0.1"
         id="stop8585" /><stop
         style="stop-color:#fc75e5;stop-opacity:1;"
         offset="0.34"
         id="stop8587" /><stop
         style="stop-color:#620c5f;stop-opacity:1;"
         offset="0.34"
         id="stop8589" /><stop
         style="stop-color:#620c5f;stop-opacity:1"
         offset="0.63825238"
         id="stop8591" /><stop
         style="stop-color:#fc75e5;stop-opacity:1;"
         offset="0.63825238"
         id="stop8593" /><stop
         style="stop-color:#fc75e5;stop-opacity:1;"
         offset="0.89999998"
         id="stop8599" /><stop
         style="stop-color:#620c5f;stop-opacity:1;"
         offset="0.89999998"
         id="stop8583" /></linearGradient><linearGradient
       id="blush_colour"
       inkscape:swatch="solid"
       gradientTransform="matrix(1.6,0,0,1.6,-200,-369.99999)"><stop
         style="stop-color:#ed6c30;stop-opacity:1;"
         offset="0"
         id="stop4680" /></linearGradient><linearGradient
       id="contour_colour"
       inkscape:swatch="solid"
       gradientTransform="translate(-2.7227351,-46.670976)"><stop
         style="stop-color:#2b2b00;stop-opacity:1;"
         offset="0"
         id="stop7071" /></linearGradient><linearGradient
       id="blob_color"
       inkscape:swatch="solid"
       gradientTransform="matrix(-1.347683,0,0,1.347683,874.42881,-364.83269)"><stop
         style="stop-color:#fcc314;stop-opacity:1;"
         offset="0"
         id="stop5975" /></linearGradient><linearGradient
       inkscape:collect="always"
       xlink:href="#blob_color"
       id="linearGradient5979"
       x1="38.738472"
       y1="437.70772"
       x2="761.27481"
       y2="437.70772"
       gradientUnits="userSpaceOnUse"
       gradientTransform="matrix(0.86140248,0,0,0.86140248,-29.560007,145.6653)" /><linearGradient
       inkscape:collect="always"
       xlink:href="#contour_colour"
       id="linearGradient5558"
       gradientUnits="userSpaceOnUse"
       gradientTransform="matrix(-1.3827831,-0.35029425,0.38353716,-1.5700333,779.50946,1346.311)"
       x1="539.43036"
       y1="437.90143"
       x2="660.23444"
       y2="437.90143" /><linearGradient
       inkscape:collect="always"
       xlink:href="#contour_colour"
       id="linearGradient15760"
       gradientUnits="userSpaceOnUse"
       gradientTransform="matrix(-1.3827831,-0.35029425,0.38353716,-1.5700333,1239.6278,1346.311)"
       x1="539.43036"
       y1="437.90143"
       x2="660.23444"
       y2="437.90143" /><linearGradient
       inkscape:collect="always"
       xlink:href="#contour_colour"
       id="linearGradient15762"
       gradientUnits="userSpaceOnUse"
       gradientTransform="matrix(-1.3827831,-0.35029425,0.38353716,-1.5700333,1239.6278,1346.311)"
       x1="539.43036"
       y1="437.90143"
       x2="660.23444"
       y2="437.90143" /><linearGradient
       inkscape:collect="always"
       xlink:href="#contour_colour"
       id="linearGradient5190"
       gradientUnits="userSpaceOnUse"
       gradientTransform="matrix(0.86140248,0,0,-0.86140248,-29.560007,1073.4986)" /><linearGradient
       inkscape:collect="always"
       xlink:href="#contour_colour"
       id="linearGradient777"
       gradientUnits="userSpaceOnUse"
       gradientTransform="matrix(-1.3827831,-0.35029425,0.38353716,-1.5700333,779.50946,1346.311)"
       x1="539.43036"
       y1="437.90143"
       x2="660.23444"
       y2="437.90143" /><linearGradient
       inkscape:collect="always"
       xlink:href="#linearGradient1610"
       id="linearGradient1612"
       x1="590"
       y1="190"
       x2="840"
       y2="440"
       gradientUnits="userSpaceOnUse" /><linearGradient
       inkscape:collect="always"
       xlink:href="#shaft_colour"
       id="linearGradient13979"
       x1="370"
       y1="507.5"
       x2="665"
       y2="507.5"
       gradientUnits="userSpaceOnUse" /><clipPath
       clipPathUnits="userSpaceOnUse"
       id="clipPath14362"><path
         style="display:inline;fill:url(#linearGradient14366);fill-opacity:1;stroke:none;stroke-width:1px;stroke-linecap:butt;stroke-linejoin:miter;stroke-opacity:1"
         d="m 616.49185,679.73483 c -60.34067,156.88574 -544.0532,153.21421 -602.981733,0 C -29.560007,567.75251 91.59398,386.66189 91.03634,386.85799 c 0,0 -51.684153,-103.3683 -25.84208,-129.21037 25.84208,-25.84208 180.89453,17.22805 180.89453,17.22805 43.07012,-17.22805 94.75427,-17.22805 137.82439,0 0,0 155.05245,-43.07013 180.89452,-17.22805 25.84208,25.84207 -25.84207,129.21037 -25.84207,129.21037 -0.34673,0.0103 120.59635,180.89452 77.52622,292.87684 z"
         id="path14364"
         sodipodi:nodetypes="sscsccscs"
         inkscape:label="body" /></clipPath><linearGradient
       inkscape:collect="always"
       xlink:href="#blob_color"
       id="linearGradient14366"
       gradientUnits="userSpaceOnUse"
       gradientTransform="matrix(0.86140248,0,0,0.86140248,-29.560007,145.6653)"
       x1="38.738472"
       y1="437.70772"
       x2="761.27481"
       y2="437.70772" /><filter
       inkscape:collect="always"
       style="color-interpolation-filters:sRGB"
       id="filter14368"
       x="-0.6075"
       y="-0.759375"
       width="2.215"
       height="2.51875"><feGaussianBlur
         inkscape:collect="always"
         stdDeviation="101.25"
         id="feGaussianBlur14370" /></filter><linearGradient
       inkscape:collect="always"
       xlink:href="#symbols_colour"
       id="linearGradient14763"
       gradientUnits="userSpaceOnUse"
       gradientTransform="translate(27.075354,-435.52058)"
       x1="563.94257"
       y1="179.8708"
       x2="633.89789"
       y2="179.8708" /><linearGradient
       inkscape:collect="always"
       xlink:href="#linearGradient15303"
       id="linearGradient15305"
       x1="3.998507"
       y1="64"
       x2="124.00149"
       y2="64"
       gradientUnits="userSpaceOnUse" /></defs><path
     style="display:inline;fill:url(#linearGradient5979);fill-opacity:1;stroke:none;stroke-width:1px;stroke-linecap:butt;stroke-linejoin:miter;stroke-opacity:1"
     d="m 616.49185,679.73483 c -60.34067,156.88574 -544.0532,153.21421 -602.981733,0 C -29.560007,567.75251 91.59398,386.66189 91.03634,386.85799 c 0,0 -51.684153,-103.3683 -25.84208,-129.21037 25.84208,-25.84208 180.89453,17.22805 180.89453,17.22805 43.07012,-17.22805 94.75427,-17.22805 137.82439,0 0,0 155.05245,-43.07013 180.89452,-17.22805 25.84208,25.84207 -25.84207,129.21037 -25.84207,129.21037 -0.34673,0.0103 120.59635,180.89452 77.52622,292.87684 z"
     id="blobcat_body"
     sodipodi:nodetypes="sscsccscs"
     inkscape:label="body"
     sodipodi:insensitive="true" /><ellipse
     style="display:inline;opacity:1;fill:url(#blush_colour);fill-opacity:1;stroke:none;stroke-width:25;stroke-linecap:round;stroke-linejoin:round;stroke-dasharray:none;filter:url(#filter14368)"
     id="path14334"
     cx="320"
     cy="510"
     rx="200"
     ry="160"
     inkscape:label="blush"
     clip-path="url(#clipPath14362)"
     sodipodi:insensitive="true" /><path
     style="fill:none;stroke:url(#linearGradient5190);stroke-width:25;stroke-linecap:round;stroke-linejoin:round;stroke-miterlimit:4;stroke-dasharray:none;stroke-opacity:1"
     d="m 246.08879,625.56937 34.4561,-43.07012 34.4561,43.07012 34.45609,-43.07012 34.4561,43.07012"
     id="mouth"
     inkscape:label="mouth"
     sodipodi:nodetypes="ccccc"
     sodipodi:insensitive="true" /><g
     id="whiskers"
     inkscape:label="whiskers"
     transform="matrix(0.86140248,0,0,0.86140248,-29.560007,145.6653)"
     style="stroke-width:1.1609"
     sodipodi:insensitive="true"><path
       style="fill:url(#linearGradient15760);fill-opacity:1;stroke:none;stroke-width:1.76264px;stroke-linecap:butt;stroke-linejoin:miter;stroke-opacity:1"
       d="m 760,555 c 5,-5 -160,-60 -165,-35 -5,25 160,40 165,35 z"
       id="whisker_right_bottom"
       sodipodi:nodetypes="zzz"
       inkscape:label="right bottom" /><path
       style="fill:url(#linearGradient15762);fill-opacity:1;stroke:none;stroke-width:1.76264px;stroke-linecap:butt;stroke-linejoin:miter;stroke-opacity:1"
       d="m 760,410 c -5,-5 -180,55 -165,80 15,25 170,-75 165,-80 z"
       id="whisker_right_top"
       sodipodi:nodetypes="zzz"
       inkscape:label="right top" /><path
       style="fill:url(#linearGradient777);fill-opacity:1;stroke:none;stroke-width:1.76264px;stroke-linecap:butt;stroke-linejoin:miter;stroke-opacity:1"
       d="m 40,555 c -5,-5 160,-60 165,-35 5,25 -160,40 -165,35 z"
       id="whisker_left_bottom"
       sodipodi:nodetypes="zzz"
       inkscape:label="left bottom" /><path
       style="fill:url(#linearGradient5558);fill-opacity:1;stroke:none;stroke-width:1.76224;stroke-linecap:butt;stroke-linejoin:miter;stroke-dasharray:none;stroke-opacity:1"
       d="m 40,410 c 5,-5 180,55 165,80 C 190,515 35,415 40,410 Z"
       id="whisker_left_top"
       sodipodi:nodetypes="zzz"
       inkscape:label="left top" /></g><g
     id="eyes"
     inkscape:label="eyes"
     style="display:inline;stroke-width:1.1609"
     transform="matrix(0.86140248,0,0,0.86140248,-29.560007,145.6653)"
     sodipodi:insensitive="true"><path
       id="eye_right"
       style="display:inline;fill:url(#contour_colour);fill-opacity:1;stroke:none;stroke-width:33.9794;stroke-linecap:round;stroke-linejoin:round"
       inkscape:label="right"
       d="M 557.46504,351.43208 C 568.52231,361.84474 575,377.93941 575,395 v 0 c 0,30.37566 -20.14719,55 -45,55 -24.85281,0 -45,-24.62434 -45,-55"
       sodipodi:nodetypes="csssc" /><path
       id="path14375"
       style="fill:url(#contour_colour);stroke-width:33.9794;stroke-linecap:round;stroke-linejoin:round"
       inkscape:label="left"
       d="M 314.99997,395.06829 C 314.96914,425.41726 294.831,450 270,450 c -24.85281,0 -45,-24.62434 -45,-55 0,-15.7212 5.5044,-30.69091 15.12313,-41.12869"
       sodipodi:nodetypes="cssc" /></g><metadata
     id="metadata1014"><rdf:RDF><cc:Work
         rdf:about=""><dc:title>Blobcat with banhammer</dc:title><dc:date>2022-07-04</dc:date><dc:creator><cc:Agent><dc:title>tastytea</dc:title></cc:Agent></dc:creator><dc:source>https://schlomp.space/tastytea/blobcats</dc:source><dc:subject><rdf:Bag><rdf:li>blobcat</rdf:li><rdf:li>emoji</rdf:li><rdf:li>hammer</rdf:li><rdf:li>banning</rdf:li><rdf:li>angry</rdf:li></rdf:Bag></dc:subject><cc:license
           rdf:resource="http://creativecommons.org/publicdomain/zero/1.0/" /></cc:Work><cc:License
         rdf:about="http://creativecommons.org/publicdomain/zero/1.0/"><cc:permits
           rdf:resource="http://creativecommons.org/ns#Reproduction" /><cc:permits
           rdf:resource="http://creativecommons.org/ns#Distribution" /><cc:permits
           rdf:resource="http://creativecommons.org/ns#DerivativeWorks" /></cc:License></rdf:RDF></metadata><g
     inkscape:groupmode="layer"
     id="layer1"
     inkscape:label="hammer"
     style="display:inline;stroke-width:1.09373"
     transform="matrix(0.91429913,0,0,0.91429913,-62.012208,122.42428)"><path
       style="display:inline;fill:url(#linearGradient13979);fill-opacity:1;stroke:none;stroke-width:1.09373px;stroke-linecap:butt;stroke-linejoin:miter;stroke-opacity:1"
       d="M 587.34848,363.74936 605,360 665,420 658.44119,434.84206 642.97252,419.37339 410,655 370,615 603.75449,380.15537 Z"
       id="path13587"
       sodipodi:nodetypes="ccccccccc"
       inkscape:label="shaft" /><path
       style="display:inline;opacity:1;fill:url(#linearGradient1612);fill-opacity:1;stroke:none;stroke-width:1.09373px;stroke-linecap:butt;stroke-linejoin:miter;stroke-opacity:1"
       d="M 690,90 C 680,80 500,260 510,270 c 0,0 20.69382,25.03199 25,25 l 5,-5 c 5,15 185.93482,194.98337 200,200 l -5,5 c 0,5 25,25 25,25 10.18077,0.56259 190,-170 180,-180 0,0 -19.85396,-25.15562 -25,-25 l -5,5 C 905,305 725,125 710,120 l 5,-5 c -0.0533,-5.37853 -25,-25 -25,-25 z"
       id="path930"
       sodipodi:nodetypes="ssccccccccccs"
       inkscape:label="head" /><text
       xml:space="preserve"
       style="font-style:normal;font-variant:normal;font-weight:normal;font-stretch:normal;font-size:157.498px;line-height:1.25;font-family:'CAC Moose';-inkscape-font-specification:'CAC Moose';letter-spacing:0px;word-spacing:0px;display:none;fill:url(#symbols_colour);fill-opacity:1;stroke:url(#contour_colour);stroke-width:10.9373;stroke-dasharray:none"
       x="573.97791"
       y="-251.37686"
       id="text14687"
       transform="rotate(45.431416)"
       inkscape:label="ban_text"><tspan
         sodipodi:role="line"
         id="tspan14685"
         style="font-style:normal;font-variant:normal;font-weight:normal;font-stretch:normal;font-size:157.498px;font-family:'CAC Moose';-inkscape-font-specification:'CAC Moose';fill:url(#symbols_colour);fill-opacity:1;stroke:url(#contour_colour);stroke-width:10.9373;stroke-dasharray:none"
         x="0"
         y="0">BAN</tspan></text><g
       aria-label="BAN"
       transform="rotate(45.431416)"
       id="text14834"
       style="font-size:157.498px;line-height:1.25;font-family:'CAC Moose';-inkscape-font-specification:'CAC Moose';letter-spacing:0px;word-spacing:0px;fill:url(#symbols_colour);stroke:url(#contour_colour);stroke-width:10.9373"
       inkscape:label="ban_path"><path
         d="m 646.65154,-332.20225 q 0,4.15278 -4.84491,7.38272 -4.07587,2.384 -8.22865,4.6911 h -3.46065 q -0.0769,0 -0.15381,0.0769 0,0.15381 0,0.15381 -0.53832,0 -1.46116,0.30761 -1.30736,0 -3.76826,0.15381 -2.46091,0.0769 -3.69136,0.0769 -0.0769,0 -0.23071,-0.1538 v -0.0769 q -0.0769,0 -0.15381,-0.0769 -0.15381,0 -0.23071,0 -0.92284,0 -1.84568,1.84568 -0.0769,0 -2.69161,3.38375 -0.69213,0.53832 -1.99949,1.84568 l -0.38452,-0.30762 q -0.23071,-0.69213 -0.23071,-0.84593 0,-0.84594 0.0769,-2.69162 0.0769,-1.92258 0.0769,-2.84542 0,-0.0769 -0.15381,-0.0769 -0.1538,0 -0.1538,-0.1538 v -10.38195 q 0,-0.0769 0.1538,-0.0769 0.15381,-0.0769 0.15381,-4.38348 0.30761,-0.53833 0.69213,-1.46117 1.07665,-3.76826 7.84414,-5.15252 2.4609,-0.53832 2.4609,-0.53832 h 5.30633 q 2.53781,0 9.53601,1.92258 1.84568,0.46142 4.15278,2.07639 2.61472,1.76878 2.99923,3.22994 0.23071,0.99974 0.23071,2.07639 z m 25.83952,46.68031 q -0.30761,-0.30761 -0.53832,-2.15329 -1.46117,-12.45834 -16.61112,-18.22609 -3.69136,-1.38426 -5.22943,-2.15329 0,-0.0769 -0.0769,-0.15381 -0.0769,-0.0769 -0.0769,-0.1538 0,-0.53833 5.46013,-4.07588 6.61369,-4.30658 9.99743,-7.92104 5.46014,-5.61394 5.46014,-11.30479 0,-0.30761 -0.15381,-0.92284 -0.1538,-0.61522 -0.1538,-0.84593 v -4.07588 q -0.69213,-1.76878 -1.84568,-5.38323 -3.53756,-5.22943 -10.15124,-9.92053 -1.84568,-1.15355 -6.07536,-2.92233 -1.38426,-0.92284 -4.38349,-2.3071 -1.84568,-0.69213 -5.69085,-1.84568 -2.15329,-0.46142 -6.45988,-1.53806 -1.92258,-0.61523 -10.76646,-1.38426 -0.38452,0 -1.23046,-0.23071 -0.84593,-0.23071 -1.30735,-0.23071 h -6.8444 q -0.61522,0 -1.92258,0.38451 -1.30736,0.30762 -1.84568,0.30762 -6.8444,0.38451 -19.61035,4.22968 0,0 -4.15278,2.07639 -4.07587,2.07639 -8.15175,4.15278 -4.30659,2.92232 -4.30659,7.61343 0,1.38426 2.69162,5.46013 0.69213,1.23046 2.2302,2.99923 1.38426,0.84594 4.38349,1.23046 2.23019,0.30761 3.76826,2.4609 1.61497,2.07639 1.61497,1.92258 0,0.53833 -0.38452,1.61497 -0.38451,0.99975 -0.38451,1.46117 v 3.53755 q 0,0.23071 -0.46142,1.07665 -0.38452,0.84593 -0.38452,1.38426 0,0.92284 0.0769,2.76852 0,1.84568 0,2.76852 0,0.0769 -0.0769,0.1538 -0.30761,0 -0.30761,1.53807 0.0769,2.07639 0.0769,1.99948 -0.0769,1.23046 -0.46142,3.69136 -0.38452,2.46091 -0.53832,3.69136 0,0 0,5.07562 0,0.30762 -0.30762,0.99975 -0.23071,0.61522 -0.23071,0.99974 v 4.92181 q 0,0.0769 -0.1538,0.0769 -0.0769,0 -0.0769,0.1538 v 13.07357 q 0,0.0769 0.0769,0.1538 0.69213,0 0.69213,13.22737 0,0.84594 0.61522,2.92233 0.76904,2.53781 0.84594,3.15304 0.0769,0.84593 0.38452,2.4609 1.92258,4.22969 5.84465,4.30659 -0.0769,0.15381 0.23071,0.15381 7.84414,0 11.5355,-2.53781 4.46039,-2.92233 5.46013,-10.53576 l 0.0769,-0.61523 q 0.0769,-0.84593 -0.23071,-2.3071 -0.23071,-1.53806 -0.23071,-2.15329 0,-0.99974 0.23071,-2.84542 0.23071,-1.84568 0.23071,-3.53755 0,-0.23071 -0.15381,-0.61523 -0.15381,-0.46142 -0.15381,-0.61523 v -4.07587 q -0.23071,0.46142 -0.23071,-0.0769 v -8.22865 q 0,-2.15329 3.69136,-2.92233 2.61471,-0.38451 5.30633,-0.76903 1.38426,-0.38452 4.15278,-0.84594 -0.23071,-0.23071 0.15381,-0.23071 h 9.2284 q -0.38452,0 2.69161,0.61523 9.1515,2.15329 10.84337,6.53678 0.46142,1.38426 0.46142,3.46065 0,3.30684 -3.30684,7.30582 -2.84543,3.46065 -6.30608,5.46013 -2.384,0.61523 -6.9982,2.15329 h -4.30658 q -0.99975,0 -3.15304,-0.53832 -2.15329,-0.61522 -3.15304,-0.61522 -2.07639,0 -5.92155,5.07561 -0.76903,5.07562 -2.07639,7.84414 -0.53832,1.07665 -0.53832,1.84568 v 2.69162 q 0.84593,1.69187 3.15303,4.46039 1.92258,0.53832 5.84465,1.15355 -0.0769,0.0769 0.15381,0.15381 h 8.99769 q 3.84517,-0.0769 10.99717,-1.92259 7.15201,-1.76877 10.61266,-3.61445 3.99898,-2.15329 8.69008,-6.69059 1.46116,-1.15355 3.99897,-3.69136 7.15201,-9.2284 7.15201,-21.22532 z"
         id="path14836" /><path
         d="m 733.09088,-303.2097 q 0,0.23071 -0.76903,0.99974 -2.99923,0.76904 -7.07511,0.76904 -0.15381,0 -0.15381,0.1538 0,0.0769 -0.1538,0.15381 h -3.92207 q -0.0769,0 -0.15381,0.0769 0,0.0769 0,0.0769 h -0.23071 q -0.15381,0 -1.99949,-0.23071 -0.23071,-1.15355 -0.23071,-0.84594 l 1.07665,-2.76852 q 1.92258,-5.07562 3.92207,-10.15124 2.384,-5.76775 4.84491,-9.68982 h 0.76903 q 0.61523,1.92259 1.53807,5.76775 0,0 0,2.76852 0,0.0769 0.0769,0.15381 0.15381,0 0.15381,0 0.23071,0.76903 0.53832,2.3071 1.76878,8.22865 1.76878,10.45885 z m 40.98947,44.37322 q 0,-1.53807 -1.84568,-5.99846 -2.61471,-6.15227 -2.61471,-6.22917 -3.92207,-11.15098 -11.22789,-33.52985 -1.46116,-4.84491 -4.22968,-14.53473 -0.76903,-1.99948 -1.99949,-5.92155 -0.84593,-3.76827 -2.69161,-11.22789 -0.76904,-2.99923 -2.46091,-8.84388 -1.61497,-5.92156 -2.46091,-8.84388 -0.38451,-0.38452 -1.07664,-1.61497 -3.22994,-1.38426 -2.99923,-1.38426 -2.53781,0 -4.92182,1.99949 -2.30709,1.99948 -2.23019,1.99948 -0.61523,0 -1.69187,-0.84593 -0.99975,-0.84594 -1.76878,-0.84594 1.23045,0 -3.38375,0.61523 l -1.61497,1.61496 q 0,2.3071 -1.30735,2.3071 -0.38452,0 -1.15355,-0.1538 -0.69213,-0.15381 -1.07665,-0.15381 -2.07639,0 -5.99846,2.92233 -2.23019,1.84568 -3.99897,4.6911 -0.46142,1.15355 -1.61497,3.22994 -0.23071,0.15381 -0.69213,0.69213 -0.69213,1.23045 -8.15175,18.5337 -0.30762,0.76903 -1.15355,2.2302 -0.76904,1.38426 -1.07665,2.15329 -1.53807,3.92207 -5.76775,13.38118 -0.30761,0.69213 -0.84593,2.15329 -0.46142,1.38426 -0.76904,2.07639 -4.22968,8.76698 -10.84337,25.91642 -1.53806,4.22968 -1.53806,6.45988 v 4.07587 q 0.46142,1.07665 0.53832,1.76878 1.07665,1.07665 2.3071,3.61446 0.15381,-0.0769 0.23071,0.23071 v 2.69161 q 0,0.30762 1.07665,2.07639 2.4609,1.61497 4.15278,1.61497 h 3.53755 l 2.61471,-0.76903 q 0.38452,0 1.07665,0.0769 0.69213,0.15381 0.99974,0.15381 2.3071,0 6.76749,-10.99718 0.23071,-1.07664 0.84594,-3.15303 1.38426,-4.22969 5.07562,-11.76621 2.384,-1.15355 20.30248,-3.76826 0.69213,-0.0769 1.92258,-0.46142 1.23045,-0.38452 1.92258,-0.38452 0.76904,-0.0769 2.384,-0.15381 3.61446,-0.76903 2.69162,-0.76903 0.23071,0 0.76903,0 0.46142,0.0769 0.69213,0.0769 l 0.61523,0.53833 q 0.38452,0.84593 0.99974,2.61471 2.1533,6.69059 6.7675,18.14918 3.15303,5.92156 3.99897,7.15201 2.384,3.46065 5.84465,5.61394 1.99949,1.23046 2.53781,1.23046 0.53832,0 3.76826,-1.07665 0.61523,-0.69213 1.53807,-2.15329 0,-1.15355 1.15355,-2.99923 0.92284,-0.15381 2.69162,-0.53832 2.99923,-1.07665 4.99871,-3.46065 0,-0.30762 0.15381,-0.99975 0.23071,-0.69213 0.23071,-1.07664 z"
         id="path14838" /><path
         d="m 868.13312,-264.75804 v -24.60906 q -0.23071,0.23071 -0.23071,0 v -8.84388 q -0.30761,-0.38452 -0.30761,-1.07665 0,-0.61523 0.23071,-0.84594 0.1538,-0.61522 0.1538,-0.99974 0,-0.23071 -0.1538,-0.69213 -0.15381,-0.46142 -0.15381,-0.61523 v -10.68956 q -0.30761,0.23071 -0.30761,-0.0769 v -12.38144 q -0.23071,0.46142 -0.23071,-0.0769 v -7.99794 q -0.38452,-0.46142 -0.38452,-1.38426 0,-0.38452 0.15381,-1.15355 0.23071,-0.76904 0.23071,-1.23046 l -0.0769,-0.92284 q -0.23071,0.46142 -0.23071,-0.0769 v -2.76852 q -0.0769,-0.69213 -0.30761,-1.76878 -0.23071,0.23071 -0.23071,-0.1538 v -4.07588 q 0,-0.23071 0.15381,-0.69213 0.1538,-0.46142 0.1538,-0.76903 0,-0.23071 -0.0769,-0.53833 -0.15381,0.0769 -0.23071,-0.23071 v -5.30632 q -0.15381,-1.07665 -0.53832,-3.07614 -0.0769,-0.30761 -0.38452,-0.76903 -0.23071,-0.46142 -0.30761,-0.69213 -0.30762,-2.3071 -1.15355,-5.30633 -0.15381,-0.23071 -0.61523,-0.61523 -0.46142,-0.46142 -0.76903,-0.61522 -0.23071,-0.15381 -0.92284,-0.15381 -0.69213,0 -1.99949,0.46142 -1.23045,0.46142 -1.92258,0.38452 l -0.61523,-0.0769 q -2.07639,-2.07639 -3.07613,-2.07639 -3.30684,0 -4.99872,1.07665 -0.46142,0.53832 -1.23045,1.23045 -0.46142,-0.1538 -2.69162,1.92259 0,0.23071 -0.1538,0.76903 -0.15381,0.46142 -0.15381,0.76903 0,0.23071 0.15381,0.69213 0.1538,0.46142 0.1538,0.69213 0,0.15381 -0.1538,0.53833 -0.15381,0.30761 -0.15381,0.53832 0,0.15381 0.15381,0.53832 0.1538,0.30762 0.1538,0.53833 0,0.53832 -0.38451,2.84542 -0.0769,-0.0769 -0.15381,0.15381 v 6.92129 q 0.23071,0.23071 0.23071,1.07665 0,0.30761 0.0769,0.38452 0.0769,0 0.15381,0.23071 v 4.6911 q 0,0.38452 -0.23071,1.23045 -0.23071,0.84594 -0.23071,1.30736 v 4.5373 q 0,0.0769 0.0769,0.30761 0.15381,0.23071 0.15381,0.38452 v 3.22993 q 0,0.0769 -0.15381,0.30762 -0.0769,0.23071 -0.0769,0.38451 v 2.84543 q 0,0.1538 0,0.1538 -0.30761,-0.0769 -0.30761,0.0769 v 5.76775 q 0,0.0769 0.1538,0.0769 0.15381,0 0.15381,0.15381 v 14.99614 q 0,0.15381 0,0.15381 -0.30761,0 -0.30761,3.22994 -0.23071,0.23071 -0.15381,1.46116 0.0769,0.92284 -0.76903,0.92284 -0.15381,0 -0.69213,-1.07664 -2.53781,-4.92182 -7.61343,-14.68854 -2.15329,-4.15278 -6.30607,-12.38143 -0.15381,-0.38452 -0.46142,-1.23046 -0.30762,-0.84593 -0.53833,-1.23045 -0.76903,-1.69187 -2.4609,-4.99871 -1.61497,-3.38375 -2.38401,-5.07562 -1.61497,-3.84517 -5.30633,-11.22789 -0.53832,-0.99974 -2.69161,-1.30736 -1.61497,-0.2307 -3.22994,-0.38451 -0.46142,-0.23071 -1.38426,-0.46142 h -2.76852 q -1.99949,0.99974 -5.99846,3.15303 -0.84594,0.69213 -2.69162,1.69188 -5.15252,1.84568 -7.92104,4.22968 -1.38426,5.15252 -2.99923,15.53447 -0.1538,-0.30761 -0.1538,0.0769 0,3.76827 0,3.76827 -0.0769,0.76903 -0.38452,2.384 -0.30761,1.61497 -0.38452,2.46091 0,0 0,2.61471 0,0.15381 0,0.15381 0.0769,0 -0.30761,2.76852 -0.76903,7.0751 -0.76903,7.99794 0,0.30761 -0.23071,0.99974 -0.23071,0.69213 -0.23071,1.07665 v 17.68776 l 0.23071,0.15381 -0.23071,0.30761 q 0.23071,0.53833 0.0769,0.69213 -0.0769,0.0769 -0.0769,2.38401 v 0.30761 q 0.1538,-0.0769 0.23071,0.23071 v 15.91899 q 0.30761,0.30761 0.30761,0.92284 0,0.92284 0,0.92284 0.23071,-0.23071 0.23071,0.1538 v 2.76852 q 0.15381,1.15355 1.30736,3.53756 2.3071,1.92258 5.99846,6.30607 2.76851,4.768 5.30632,4.768 1.30736,0 2.84543,-1.84568 1.61497,-1.76877 2.23019,-1.99948 0.61523,-0.30761 4.84491,-1.15355 0.84594,-0.69213 2.07639,-2.384 0.0769,-0.76904 0.61523,-2.07639 v -6.45988 q -0.0769,-0.84594 -0.38452,-2.2302 -0.0769,0.0769 -0.1538,-0.15381 v -4.07587 q -0.30762,0.23071 -0.30762,-0.0769 v -2.84542 q -0.23071,0.30762 -0.23071,-5.15252 -0.23071,0.46142 -0.23071,-0.0769 v -10.61266 q -0.30761,0.30761 -0.30761,0 v -13.38118 q 0.30761,0.15381 0.30761,-0.15381 v -3.30684 q 0.0769,0.0769 0.0769,0.0769 0.1538,0 0.1538,-3.84516 0,0.76903 0.30762,-2.3071 0.23071,0.23071 0.23071,-0.15381 v -2.69161 q 0.23071,-0.38452 0.23071,-0.76904 0.23071,-0.0769 0.61522,-0.30761 0.76904,0.15381 1.15355,1.38426 0.30762,0.92284 0.61523,1.84568 1.38426,2.92232 1.99948,4.46039 5.76775,14.68854 6.61369,16.53422 3.84517,9.3053 7.53653,16.07279 2.3071,3.22994 6.38297,10.07433 0.61523,1.23046 2.07639,3.46065 2.15329,2.76852 4.30659,5.53704 2.92232,3.30685 5.69084,3.30685 1.30736,0 3.15304,-0.99975 1.92258,-1.07664 2.46091,-1.07664 h 3.46064 q 0.69213,0.30761 1.53807,0.84593 1.07665,1.30736 2.53781,1.30736 1.53807,0 3.69136,-1.23045 2.2302,-1.30736 2.99923,-2.53781 v -7.38272 q 0.23071,0.23071 0.23071,-0.15381 z"
         id="path14840" /></g></g><g
     inkscape:groupmode="layer"
     id="layer2"
     inkscape:label="hands"
     style="display:inline;stroke-width:1.1609"
     transform="matrix(0.86140248,0,0,0.86140248,0.58908,111.2092)"
     sodipodi:insensitive="true"><path
       style="display:inline;fill:url(#blob_color);stroke:url(#contour_colour);stroke-width:29.0224;stroke-linecap:round;stroke-linejoin:round;stroke-dasharray:none;stroke-opacity:1"
       d="M 156.0373,677.72129 340,590 c 75,-20 70,55 60,80 -19.27093,41.47198 -44.13155,58.11312 -93.04602,83.17963"
       id="path13857"
       sodipodi:nodetypes="cccc"
       inkscape:label="left" /><path
       style="display:inline;fill:url(#blob_color);stroke:url(#contour_colour);stroke-width:29.0224;stroke-linecap:round;stroke-linejoin:round;stroke-dasharray:none;stroke-opacity:1"
       d="M 570,715 C 522.35477,696.44395 470,660 445,625 420,580 434.05494,473.70704 535,530 l 100,60"
       id="path13860"
       inkscape:label="right"
       sodipodi:nodetypes="cccc" /></g><g
     id="g15286"
     transform="matrix(1.0727033,0.2934735,-0.2934735,1.0727033,218.41654,273.36542)"
     style="display:inline;fill:#fd3c30;fill-opacity:1;stroke:none;stroke-width:0.98346"
     inkscape:label="anger"
     sodipodi:insensitive="true"><g
       id="g15249"
       style="fill:#fd3c30;fill-opacity:1;stroke:none;stroke-width:0.98346">
	<g
   id="g15247"
   style="fill:#fd3c30;fill-opacity:1;stroke:none;stroke-width:0.98346">
		<path
   style="fill:#fd3c30;fill-opacity:1;stroke:none;stroke-width:0.98346"
   d="M 63.7,40.03 C 35.93,40.03 24.77,12.8 24.77,12.8 23.55,10.46 22.98,7.47 24.74,5.42 24.87,5.27 25,5.14 25.13,5.01 c 2.19,-2.02 5.49,-0.86 6.61,2.11 2.27,6.02 11.25,18.63 31.79,18.63 21.24,0 30.81,-13.83 32.87,-19.01 0.43,-1.09 1.18,-2.01 2.17,-2.4 1.58,-0.62 3.4,-0.2 4.66,1.26 1.76,2.04 1.3,4.28 -0.02,7.38 0,0 -11.74,27.05 -39.51,27.05 z"
   id="path15245" />
	</g>
</g><g
       id="g15255"
       style="fill:#fd3c30;fill-opacity:1;stroke:none;stroke-width:0.98346">
	<g
   id="g15253"
   style="fill:#fd3c30;fill-opacity:1;stroke:none;stroke-width:0.98346">
		<path
   style="fill:#fd3c30;fill-opacity:1;stroke:none;stroke-width:0.98346"
   d="m 64.71,87.97 c 27.77,0 38.93,27.23 38.93,27.23 1.22,2.34 1.79,5.33 0.03,7.38 -0.13,0.15 -0.26,0.28 -0.39,0.41 -2.19,2.02 -5.49,0.86 -6.61,-2.11 -2.27,-6.02 -11.25,-18.63 -31.79,-18.63 -21.24,0 -30.81,13.83 -32.87,19.01 -0.43,1.09 -1.18,2.01 -2.17,2.4 -1.58,0.62 -3.4,0.2 -4.66,-1.26 -1.76,-2.04 -1.3,-4.28 0.02,-7.38 0,0 11.73,-27.05 39.51,-27.05 z"
   id="path15251" />
	</g>
</g><g
       id="g15261"
       style="fill:#fd3c30;fill-opacity:1;stroke:none;stroke-width:0.98346">
	<g
   id="g15259"
   style="fill:#fd3c30;fill-opacity:1;stroke:none;stroke-width:0.98346">
		<path
   style="fill:#fd3c30;fill-opacity:1;stroke:none;stroke-width:0.98346"
   d="m 87.97,63.62 c 0,-27.33 27.23,-38.31 27.23,-38.31 2.34,-1.2 5.33,-1.76 7.38,-0.03 0.15,0.12 0.28,0.25 0.41,0.39 2.02,2.15 0.86,5.4 -2.11,6.5 -6.02,2.24 -18.63,11.07 -18.63,31.28 0,20.9 13.83,30.32 19.01,32.34 1.09,0.42 2.01,1.16 2.4,2.13 0.62,1.56 0.2,3.35 -1.26,4.59 -2.04,1.73 -4.28,1.28 -7.38,-0.01 0,-0.01 -27.05,-11.56 -27.05,-38.88 z"
   id="path15257" />
	</g>
</g><g
       id="g15267"
       style="fill:#fd3c30;fill-opacity:1;stroke:none;stroke-width:0.98346">
	<g
   id="g15265"
   style="fill:#fd3c30;fill-opacity:1;stroke:none;stroke-width:0.98346">
		<path
   style="fill:#fd3c30;fill-opacity:1;stroke:none;stroke-width:0.98346"
   d="m 40.03,64.21 c 0,27.33 -27.23,38.31 -27.23,38.31 -2.34,1.2 -5.33,1.76 -7.38,0.03 C 5.27,102.43 5.14,102.3 5.01,102.16 2.99,100.01 4.15,96.76 7.12,95.66 13.14,93.42 25.75,84.59 25.75,64.38 25.75,43.48 11.92,34.06 6.74,32.04 5.65,31.62 4.73,30.88 4.34,29.91 3.72,28.35 4.14,26.56 5.6,25.32 c 2.04,-1.73 4.28,-1.28 7.38,0.01 0,0 27.05,11.55 27.05,38.88 z"
   id="path15263" />
	</g>
</g></g></svg>
