<?xml version="1.0" encoding="UTF-8" standalone="no"?>
<!-- Created with Inkscape (http://www.inkscape.org/) -->

<svg
   width="131.81831mm"
   height="112.04431mm"
   viewBox="0 0 131.81832 112.0443"
   version="1.1"
   id="svg2114"
   sodipodi:docname="blobcat_wrapped_in_blanket.svg"
   inkscape:version="1.2.2 (b0a8486541, 2022-12-01)"
   xmlns:inkscape="http://www.inkscape.org/namespaces/inkscape"
   xmlns:sodipodi="http://sodipodi.sourceforge.net/DTD/sodipodi-0.dtd"
   xmlns="http://www.w3.org/2000/svg"
   xmlns:svg="http://www.w3.org/2000/svg"
   xmlns:rdf="http://www.w3.org/1999/02/22-rdf-syntax-ns#"
   xmlns:cc="http://creativecommons.org/ns#">
  <sodipodi:namedview
     id="namedview2116"
     pagecolor="#ffffff"
     bordercolor="#000000"
     borderopacity="0.25"
     inkscape:showpageshadow="2"
     inkscape:pageopacity="0.0"
     inkscape:pagecheckerboard="true"
     inkscape:deskcolor="#d1d1d1"
     inkscape:document-units="mm"
     showgrid="false"
     inkscape:zoom="2.587745"
     inkscape:cx="233.40785"
     inkscape:cy="195.34382"
     inkscape:window-width="2560"
     inkscape:window-height="1391"
     inkscape:window-x="0"
     inkscape:window-y="0"
     inkscape:window-maximized="1"
     inkscape:current-layer="layer1" />
  <defs
     id="defs2111" />
  <g
     inkscape:label="Layer 1"
     inkscape:groupmode="layer"
     id="layer1"
     transform="translate(-12.368137,-75.876434)"
     style="display:inline">
    <g
       id="g3124"
       inkscape:label="blanket_hem">
      <path
         style="display:inline;fill:#ffffff;stroke-width:0.264583"
         d="m 14.479231,161.21636 c 0.09954,6.93692 0.09028,7.03247 0.09028,7.03247 0,0 1.601695,1.77545 2.494989,2.56631 0.81001,0.71713 1.705431,1.33251 2.584081,1.96367 1.113509,0.79987 2.253211,1.56344 3.403843,2.30891 1.007623,0.65283 2.018185,1.30371 3.063598,1.89413 1.646479,0.92988 3.254855,1.9859 5.046089,2.59175 1.375639,0.46528 2.477927,0.9916 4.287889,0.77063 1.883073,-0.2299 2.831258,-1.35057 2.831258,-1.35057 l 1.65886,-1.98616 -0.05499,0.0882 z"
         id="path3115"
         inkscape:label="left"
         sodipodi:nodetypes="ccaaaaascccc" />
      <path
         style="display:inline;fill:#ffffff;stroke-width:0.264583"
         d="m 39.821221,177.23063 c 0,0 1.803715,3.19488 3.168995,4.36478 1.567102,1.34284 3.569547,2.11926 5.508197,2.82683 2.854688,1.04191 5.883357,1.56841 8.885305,2.04077 4.299516,0.67654 8.662582,0.89 13.008569,1.1265 4.39996,0.23944 8.811083,0.40823 13.216109,0.29542 4.939261,-0.12649 9.881989,-0.45947 14.782562,-1.0893 3.971512,-0.51042 7.910852,-1.28121 11.813942,-2.17525 3.27766,-0.75077 6.53578,-1.61362 9.72683,-2.67378 3.38282,-1.12387 6.70887,-2.43231 9.95756,-3.89945 1.67615,-0.75697 3.31637,-1.59953 4.90628,-2.524 1.31462,-0.7644 2.60816,-1.57528 3.82049,-2.49332 1.04241,-0.78937 2.07487,-1.61302 2.95417,-2.58078 0.91992,-1.01246 1.91126,-2.05391 2.39228,-3.33451 0.26887,-0.7158 0.22056,-2.28325 0.22056,-2.28325 l -0.15492,-7.58621 z"
         id="path3118"
         inkscape:label="right"
         sodipodi:nodetypes="caaaaaaaaaaaaaccc" />
      <path
         style="display:inline;fill:#ffffff;fill-opacity:1;image-rendering:auto"
         d="M 215.61356,395.63853 C 197.18858,394.73005 168.10458,399.61437 159,397.34304 143.61099,393.50393 74.747369,379.6042 67.829659,365.90754 132.43952,315.9755 303.9448,407.01047 104.74572,382.53165 91.312221,380.40011 59.639274,344.91627 47.309424,347.78832 54.151376,307.57059 59.292606,206.70024 59.960976,247.49033 45.024543,289.83284 67.040383,148.18517 58.401636,132.91122 l 15.245485,-20.6155 C 152.90506,-40.001887 332.34617,31.327271 363.09831,233.99454 c 3.40924,18.78563 -40.35962,30.16341 -40.32647,44.96956 4.8254,40.96134 19.47854,120.7166 -107.15828,116.67443 z M 72.94428,371.41903 c -1.894354,-1.41953 -6.489211,-4.12893 -10.210792,-6.02089 -125.740723,-79.79636 97.201582,-187.48107 22.584986,5.63522 -3.21501,3.82082 -7.607328,3.95772 -12.374194,0.38567 z"
         id="path10944"
         inkscape:label="around_face"
         sodipodi:nodetypes="cscccccccccsccs"
         transform="matrix(0.26458333,0,0,0.26458333,12.315389,75.581875)" />
    </g>
    <path
       style="display:inline;fill:#f9c019;fill-opacity:1;stroke-width:0.264583;image-rendering:auto"
       d="m 48.514315,149.77285 c -0.629595,-3.70085 -1.577065,-5.43232 -4.828754,-8.82437 -4.439031,-4.63064 -5.73644,-6.55409 -7.287385,-10.80379 -0.719283,-1.97088 -1.308153,-4.82115 -0.996058,-4.82115 12.762817,5.15749 -0.07353,2.48576 -0.228008,-0.11536 -0.04582,-0.72722 -0.06626,-5.69437 0.02252,-6.1676 l 0.936046,-4.18182 0.972664,4.64413 c 0.247082,1.17973 6.236753,1.1844 1.922918,1.32273 -3.059396,0.0981 -4.767449,-7.82514 -0.939861,-4.13825 0.990595,-0.83824 2.399419,2.4503 1.562833,1.64363 -2.913062,2.13961 -1.426522,-1.20267 -1.935845,-1.48253 -2.209129,-1.21388 -2.201008,-1.13297 -0.463954,-4.6218 1.646445,-3.30685 3.169218,-5.41924 5.54634,-7.69389 4.348906,-4.16142 8.910442,-6.473342 15.422822,-7.816736 3.930785,-0.810854 9.397523,-0.607769 13.686112,0.50843 5.462294,1.421679 9.871834,3.860436 13.45497,7.441456 3.393887,3.39188 5.804858,7.51701 6.97048,11.92636 1.646179,6.48634 -1.476408,15.5435 -3.63905,18.7082 -2.440241,3.57092 -8.748993,7.0056 -4.011303,-0.79161 4.079184,-4.46399 -2.529615,2.72615 -0.189833,2.92863 l 5.618654,-4.77375 c 0,0 -1.87615,3.80958 -3.212891,5.43512 -1.63597,1.98941 -3.540688,3.66233 -5.767049,5.14282 -1.937988,1.28874 -3.925392,2.25904 -6.912154,3.37471 -2.754591,1.02893 -3.639402,1.20595 -10.044811,2.00957 -7.284038,0.91385 -10.57143,1.53741 -12.027398,2.2814 -2.049682,1.04738 -2.815269,1.40366 -3.016181,1.40366 -0.101216,0 -0.378338,-1.14218 -0.615828,-2.53819 z"
       id="path471"
       inkscape:label="face"
       sodipodi:nodetypes="sssccscsscccssssscscccasssssss" />
    <path
       style="display:inline;fill:#6a647a;fill-opacity:1;stroke-width:0.264583;image-rendering:auto"
       d="m 69.465388,182.45418 c -4.874942,-0.24037 -12.672329,-1.141 -15.08125,-1.74196 -4.071675,-1.01576 -6.504064,-2.92792 -8.334374,-6.55183 -0.989981,-1.9601 -1.058291,-2.24206 -1.057662,-4.36562 5.29e-4,-2.06857 0.08708,-2.45125 0.973535,-4.30889 1.947383,-4.08089 7.965569,-8.83538 12.85042,-10.1521 0.836663,-0.22552 3.12855,-0.5166 5.093081,-0.64684 8.337765,-0.55275 16.335452,-3.15365 21.719143,-7.06321 2.279544,-1.65537 4.11092,-3.01634 5.797524,-4.90357 1.861124,-2.08251 3.486404,-4.42885 4.660967,-6.96282 1.414021,-3.05058 2.332539,-6.3655 2.770096,-9.69927 0.379117,-2.88851 0.274256,-5.92275 -0.150183,-8.73857 C 96.677591,103.85799 84.867123,92.865967 69.876733,90.487391 66.322453,89.923422 59.199629,90.128153 55.937356,90.88805 c -7.04511,1.641054 -12.644132,5.016889 -17.655736,9.41883 -2.923297,2.56768 -4.821341,6.1401 -6.776567,9.50399 -0.799245,1.37507 -2.004708,4.32985 -2.004708,4.32985 -2.308691,-1.67602 -3.225727,-2.15021 -4.996944,-4.0357 l 2.845437,-5.55621 c 2.719265,-5.30983 4.152571,-6.47119 6.598261,-9.387769 2.037548,-2.429853 2.806572,-3.188804 5.974102,-5.895853 1.349304,-1.153148 1.542392,-1.458876 2.172296,-3.439583 0.380246,-1.195666 0.758052,-3.066907 0.839573,-4.158313 0.174633,-2.338083 0.832342,-3.915132 2.095243,-5.023975 1.208752,-1.061298 2.094574,-1.03858 6.933607,0.177822 4.782535,1.2022 8.115324,1.305269 13.137843,0.4063 5.452883,-0.976 8.993648,-1.195723 16.801042,-1.042594 5.800508,0.113768 7.874288,0.254581 10.226077,0.694366 5.341255,0.998816 11.952808,3.160214 16.181998,5.290093 2.91496,1.468017 3.85375,1.663747 9.04609,1.886051 5.38518,0.23056 7.31446,0.637477 8.35728,1.76269 1.03945,1.121585 1.7084,3.374143 1.98525,6.684913 0.58729,7.023229 0.39299,6.419319 4.21667,13.105692 4.74681,8.30062 7.89382,17.79365 10.30722,31.09197 0.90203,4.97037 1.8908,14.6191 1.89957,18.53656 0.007,3.26 -0.25461,3.83023 -3.15591,6.87082 -8.6736,9.09003 -20.00594,14.6018 -37.5028,18.24043 -10.240779,2.12967 -20.554968,2.76852 -33.996862,2.10575 z M 31.61523,173.85316 c -0.501215,-0.37559 -1.716938,-1.09245 -2.701606,-1.59303 -4.514124,-2.29486 -8.294355,-5.00335 -11.89171,-8.52026 l -2.569517,-2.51206 0.130444,-4.78912 c 0.329165,-12.08488 2.264335,-24.49925 5.457823,-35.01265 0.801341,-2.63812 1.601738,-5.38395 2.266264,-5.21716 6.905335,2.70594 6.439499,-1.53963 6.680131,8.86085 0.16456,1.54291 0.575606,3.46189 0.948607,5.17576 0.227196,1.04392 0.427604,2.10061 0.784632,3.10755 0.257844,0.72721 0.601776,1.42392 0.973663,2.09995 0.64963,1.18092 1.458606,2.27078 2.187726,3.40046 3.319947,4.69943 8.712875,8.54664 9.387761,13.57261 0.380476,3.0009 -0.03984,4.48694 -2.243429,7.93171 -0.492514,0.76992 -1.278384,2.16164 -1.746379,3.09271 -0.467998,0.93107 -1.214218,2.40723 -1.65827,3.28035 -0.444051,0.87313 -0.836319,1.86545 -0.871707,2.20516 -0.128643,1.23498 -1.21601,4.04928 -1.860428,4.81513 -0.850638,1.01092 -2.012772,1.04714 -3.274005,0.10204 z m -10.075727,-56.7694 1.239663,-3.48666 c 0.489418,-1.37653 1.582729,-3.60218 1.799079,-3.54918 0.552589,0.13534 4.449414,2.02234 5.135998,2.41697 0.67563,0.38833 -0.729604,5.28558 -1.150111,8.06034 -2.318407,-1.13232 -4.706224,-2.30914 -7.024629,-3.44147 z"
       id="path467"
       inkscape:label="blanket"
       sodipodi:nodetypes="ssscssssaaasssaaccssssssssssssssssssssssscssccaaaccsssssscssscc" />
    <path
       style="display:inline;fill:#333333;fill-opacity:1;stroke-width:0.264583;image-rendering:auto"
       d="m 40.193127,177.53387 c -1.394317,-3.33707 -1.842486,-8.56477 -1.009756,-11.77837 1.198309,-4.62443 4.258262,-8.78887 9.1796,-12.49297 1.834687,-1.38089 2.594813,-1.75981 2.572181,-1.28222 -0.0052,0.10914 -0.900859,0.84344 -1.990413,1.63177 -4.148735,3.00177 -7.57369,7.30515 -8.86156,11.13438 -1.141629,3.39441 -0.9663,8.10284 0.442063,11.8716 0.726681,1.94459 0.715897,1.88673 0.351645,1.88673 -0.152945,0 -0.460637,-0.43691 -0.68376,-0.97092 z"
       id="path461"
       inkscape:label="sleeve_line"
       sodipodi:nodetypes="sssssssss" />
    <path
       style="display:inline;fill:#2b1100;fill-opacity:1;stroke-width:0.264583;image-rendering:auto"
       d="m 88.250804,137.61912 c -5.79863,-0.15897 -6.24891,-0.20656 -6.68073,-0.70608 -0.55639,-0.64364 -0.59593,-1.36022 -0.0979,-1.77359 0.40329,-0.3347 20.342746,-0.42811 27.548376,-0.12905 4.13037,0.17142 5.15938,0.44642 5.15938,1.37883 0,1.06334 -0.33089,1.10515 -8.74724,1.10515 -5.963606,0.35856 -11.929236,0.28753 -17.181926,0.12474 z m -2.46944,-6.38655 c -0.30096,-0.30095 -0.19384,-1.59734 0.15434,-1.86786 0.1819,-0.14134 1.50382,-0.3964 2.9376,-0.56681 1.43378,-0.17041 2.82494,-0.42654 3.09146,-0.56918 0.26652,-0.14264 1.21937,-0.25934 2.11744,-0.25934 0.89806,0 2.30488,-0.16259 3.12625,-0.36131 0.82136,-0.19872 2.44589,-0.37842 3.610056,-0.39934 1.16417,-0.0209 3.57777,-0.27505 5.36356,-0.56473 1.7858,-0.28969 3.83054,-0.52671 4.54388,-0.52671 0.71334,0 1.89943,-0.13906 2.63576,-0.30902 1.77191,-0.40901 2.74468,-0.0266 2.62156,1.03045 -0.0642,0.55096 -0.26727,0.75861 -0.87726,0.89694 -0.43656,0.099 -1.36101,0.31115 -2.05432,0.47144 -0.69331,0.1603 -1.96276,0.29144 -2.82099,0.29144 -0.85824,0 -2.49364,0.18474 -3.63423,0.41054 -1.14058,0.22579 -3.41738,0.50874 -5.05955,0.62877 -2.253036,0.16468 -3.111666,0.33219 -3.498836,0.68258 -0.42888,0.38812 -1.13306,0.47721 -4.29029,0.54275 -2.07746,0.0431 -4.19313,0.20608 -4.70149,0.3621 -1.02856,0.31568 -2.99203,0.38021 -3.26494,0.10729 z M 37.753432,126.4966 c -0.757764,-0.61344 -2.032514,-0.76588 -2.727423,-1.11076 -0.04881,-0.11307 -1.219838,-0.7153 -2.602286,-1.33828 -1.382447,-0.62299 -2.811197,-1.3411 -3.175,-1.59582 -0.363802,-0.25471 -1.316302,-0.73954 -2.116666,-1.07739 -0.800365,-0.33786 -2.313034,-1.0836 -3.361488,-1.6572 -3.892447,-1.24806 -7.434232,-3.79758 -10.816566,-5.25021 -0.552253,-0.20996 -0.664833,-0.38855 -0.539559,-0.85592 0.08707,-0.32483 0.15993,-0.91802 0.161917,-1.3182 0.002,-0.40019 0.123706,-0.72761 0.270487,-0.72761 0.146781,0 0.633448,0.32742 1.081483,0.72761 0.959079,0.85664 -0.335418,0.42823 -0.335418,-0.003 0,-0.18081 2.343266,0.67244 2.625081,0.91538 0.254662,0.21953 0.820209,0.58225 1.256771,0.80603 0.436563,0.22378 1.482694,0.77554 2.324736,1.22614 0.842043,0.4506 1.615949,0.79561 1.719792,0.76668 0.103843,-0.0289 1.736618,0.69612 3.628389,1.61121 1.891771,0.91509 4.153958,1.98125 5.027083,2.36924 0.873125,0.388 2.420938,1.14975 3.439583,1.6928 1.018646,0.54305 2.62599,1.35458 3.571875,1.8034 5.160415,2.44864 5.48132,2.71146 4.503981,3.6888 -0.764153,0.76415 -1.437674,0.64902 -3.936772,-0.67297 z m -0.594748,-6.95333 c -0.931675,-0.7053 -2.059431,-1.47135 -2.506124,-1.70235 -0.446693,-0.23099 -0.966904,-0.60643 -1.156024,-0.8343 -1.093221,-0.596 -2.210366,-1.1905 -3.054501,-1.87696 -0.981415,-0.80445 -2.901554,-2.06488 -4.266976,-2.80096 -1.365422,-0.73608 -2.482585,-1.44609 -2.482585,-1.57781 0,-0.13172 -0.625079,-0.60305 -1.389063,-1.0474 -2.020684,-1.17527 -2.21958,-1.2982 -4.777512,-2.95286 -2.794768,-2.00879 -3.695448,-1.81729 -4.225709,-3.3875 -0.197529,-0.64514 0.282628,-1.5875 0.808867,-1.5875 0.268292,0 0.718613,0.21023 1.000714,0.46718 4.575245,3.03195 9.141319,6.11851 13.596352,8.78477 0.938497,0.57726 1.754842,1.00108 1.814102,0.94182 0.05926,-0.0592 0.338341,0.10709 0.620182,0.36967 0.281841,0.26257 1.13237,0.81163 1.890064,1.22012 0.757695,0.4085 1.913409,1.21074 2.568252,1.78277 0.654844,0.57203 1.607344,1.25949 2.116667,1.5277 0.509323,0.26821 1.380453,0.92581 1.935845,1.46134 l 1.009801,0.97369 -0.728573,0.76047 c -0.400716,0.41826 -0.807606,0.76047 -0.9042,0.76047 -0.09659,0 -0.937904,-0.57706 -1.869579,-1.28236 z"
       id="path473"
       inkscape:label="whiskers"
       sodipodi:nodetypes="cssssccssssssssssssssssssssccsssccssssssssssssssscssccsssccsccssssscssss" />
    <path
       id="path3237"
       style="display:inline;fill:#333333;fill-opacity:1;stroke-width:0.264583;image-rendering:auto"
       inkscape:label="eyes_and_mouth"
       d="m 42.903739,112.42062 c -0.236913,-0.0124 -0.478345,0.13976 -0.731736,0.45269 -0.639919,0.79025 -0.617549,1.96073 0.06408,3.36878 0.645184,1.33278 1.634437,2.11371 3.058726,2.41433 1.099852,0.23213 2.542442,0.0579 3.417364,-0.4129 0.659841,-0.35509 2.761588,-2.59767 2.761588,-2.94659 0,-1.3903 -1.115428,-1.40059 -2.942973,-0.0274 -2.209919,1.6605 -3.277071,1.32525 -4.440555,-1.39475 -0.408665,-0.95536 -0.791634,-1.43353 -1.186493,-1.45417 z m 40.972175,4.72374 c -0.54889,-0.0599 -1.06081,0.43005 -1.63297,1.54771 -0.92253,1.80209 -1.33396,2.13372 -2.64945,2.13372 -1.572883,0 -2.057173,-0.31039 -3.149173,-2.01745 -0.72431,-1.1323 -1.05822,-1.43596 -1.5074,-1.37201 -0.86322,0.12291 -0.92867,2.07017 -0.12247,3.63854 0.74923,1.45757 1.71312,2.18056 3.17862,2.38487 2.870543,0.40019 5.455733,-0.82931 6.271453,-2.98225 0.44798,-1.18235 0.36051,-3.07797 -0.1509,-3.27422 -0.0802,-0.0308 -0.15929,-0.0504 -0.23771,-0.0589 z m -34.18861,7.12102 c -1.747578,0 -1.489654,3.16443 0.61857,7.58299 1.359635,2.84965 2.144072,3.6229 3.274734,3.22875 0.417222,-0.14545 1.792515,-1.20892 3.056144,-2.36316 1.263629,-1.15426 2.453279,-2.09858 2.643769,-2.09858 0.19049,0 1.01252,0.99076 1.82676,2.20193 0.81424,1.21118 1.90593,2.69947 2.42621,3.30729 0.52027,0.60783 1.1048,1.10536 1.29914,1.10536 0.52007,0 4.29448,-2.86564 6.43837,-4.88808 1.87411,-1.76794 2.38431,-2.73045 2.03295,-3.83749 -0.38573,-1.2153 -1.32191,-0.68405 -5.93711,3.36776 -1.03596,0.90949 -1.98577,1.65364 -2.11046,1.65364 -0.12469,0 -0.73343,-0.80368 -1.35289,-1.78594 -2.30236,-3.65078 -3.53549,-5.41364 -3.87883,-5.54539 -0.56476,-0.21672 -1.63851,0.62564 -4.205948,3.29902 l -2.401403,2.50062 -0.972034,-2.53886 c -0.534443,-1.3963 -0.971516,-2.82004 -0.971516,-3.16415 0,-0.762 -1.114467,-2.02571 -1.786456,-2.02571 z"
       sodipodi:nodetypes="ssssssssscsssssssscsssssscssssscscccss" />
  </g>
  <metadata
     id="metadata10691">
    <rdf:RDF>
      <cc:Work
         rdf:about="">
        <cc:license
           rdf:resource="http://creativecommons.org/publicdomain/zero/1.0/" />
      </cc:Work>
      <cc:License
         rdf:about="http://creativecommons.org/publicdomain/zero/1.0/">
        <cc:permits
           rdf:resource="http://creativecommons.org/ns#Reproduction" />
        <cc:permits
           rdf:resource="http://creativecommons.org/ns#Distribution" />
        <cc:permits
           rdf:resource="http://creativecommons.org/ns#DerivativeWorks" />
      </cc:License>
    </rdf:RDF>
  </metadata>
</svg>
